<svg width="127" height="38" viewBox="0 0 127 38" fill="none" xmlns="http://www.w3.org/2000/svg">
<path d="M125.345 32.9819C125.345 34.9608 123.742 36.5637 121.759 36.5637H4.4225C2.44084 36.5637 0.832314 34.9608 0.832314 32.9819V4.41847C0.832314 2.44055 2.44084 0.832031 4.4225 0.832031H121.759C123.742 0.832031 125.344 2.44055 125.344 4.41847L125.345 32.9819Z" fill="white"/>
<path d="M121.759 37.3972H4.4225C1.98447 37.3972 0 35.4174 0 32.9822V4.41969C0 1.9826 1.98447 0 4.4225 0H121.759C124.194 0 126.181 1.9826 126.181 4.41969V32.9822C126.183 35.4174 124.196 37.3972 121.759 37.3972Z" fill="#A6A6A6"/>
<path d="M125.345 32.9819C125.345 34.9608 123.742 36.5637 121.759 36.5637H4.4225C2.44084 36.5637 0.832314 34.9608 0.832314 32.9819V4.41847C0.832314 2.44055 2.44084 0.832031 4.4225 0.832031H121.759C123.742 0.832031 125.344 2.44055 125.344 4.41847L125.345 32.9819Z" fill="black"/>
<path d="M28.1753 18.5015C28.1482 15.4874 30.6433 14.021 30.7574 13.9527C29.3443 11.8925 27.1541 11.611 26.3844 11.5886C24.5449 11.395 22.7606 12.6893 21.8235 12.6893C20.8678 12.6893 19.4248 11.6073 17.8696 11.6391C15.8683 11.6699 13.996 12.8286 12.9692 14.6279C10.85 18.2967 12.4305 23.688 14.4608 26.6535C15.4764 28.1068 16.6632 29.7275 18.2165 29.6704C19.7362 29.6087 20.3038 28.7025 22.1377 28.7025C23.9548 28.7025 24.4879 29.6704 26.0721 29.634C27.703 29.6087 28.7299 28.1751 29.71 26.7096C30.8836 25.0459 31.355 23.4056 31.3737 23.3214C31.3363 23.3084 28.2071 22.1132 28.1753 18.5015Z" fill="white"/>
<path d="M25.1827 9.63794C26.0001 8.61579 26.5593 7.22516 26.4041 5.81396C25.2211 5.86634 23.7416 6.63225 22.8896 7.63197C22.1359 8.51292 21.4625 9.95684 21.6365 11.3147C22.9654 11.4139 24.3298 10.6442 25.1827 9.63794Z" fill="white"/>
<path d="M121.759 0H58.9102L83.5272 37.3972H121.759C124.195 37.3972 126.182 35.4174 126.182 32.9794V4.41969C126.183 1.9826 124.196 0 121.759 0Z" fill="url(#paint0_linear)"/>
<path d="M50.1868 29.4623H48.063L46.8996 25.8067H42.8559L41.7477 29.4623H39.68L43.6873 17.0168H46.1618L50.1868 29.4623ZM46.5489 24.273L45.4969 21.0232C45.3856 20.6912 45.1761 19.9094 44.8693 18.6787H44.8319C44.7085 19.208 44.5112 19.9898 44.2409 21.0232L43.2066 24.273H46.5489V24.273Z" fill="white"/>
<path d="M60.472 24.8648C60.472 26.391 60.0577 27.5974 59.2282 28.4831C58.4857 29.2714 57.5626 29.6651 56.4619 29.6651C55.2733 29.6651 54.4185 29.2415 53.8995 28.3923V33.101H51.9057V23.4377C51.9057 22.4792 51.8804 21.4963 51.8318 20.4881H53.5853L53.6966 21.9106H53.734C54.3989 20.8388 55.408 20.303 56.7621 20.303C57.8207 20.303 58.7045 20.721 59.4115 21.558C60.1176 22.3969 60.472 23.4985 60.472 24.8648ZM58.4408 24.9378C58.4408 24.0643 58.2444 23.3442 57.8497 22.7765C57.4186 22.1864 56.8397 21.8909 56.114 21.8909C55.6221 21.8909 55.1751 22.0555 54.7758 22.38C54.3755 22.7073 54.1137 23.1347 53.9912 23.664C53.9294 23.9109 53.8986 24.112 53.8986 24.271V25.7682C53.8986 26.42 54.0987 26.9709 54.499 27.4216C54.8992 27.8705 55.4192 28.0959 56.0588 28.0959C56.8098 28.0959 57.3943 27.8051 57.8123 27.228C58.2313 26.6492 58.4408 25.886 58.4408 24.9378Z" fill="white"/>
<path d="M70.7937 24.8648C70.7937 26.391 70.3794 27.5974 69.5499 28.4831C68.8064 29.2714 67.8843 29.6651 66.7826 29.6651C65.594 29.6651 64.7393 29.2415 64.2202 28.3923V33.101H62.2264V23.4377C62.2264 22.4792 62.2012 21.4963 62.1525 20.4881H63.906L64.0173 21.9106H64.0547C64.7187 20.8388 65.7278 20.303 67.0828 20.303C68.1405 20.303 69.0243 20.721 69.7332 21.558C70.4383 22.3969 70.7937 23.4985 70.7937 24.8648ZM68.7615 24.9378C68.7615 24.0643 68.5642 23.3442 68.1695 22.7765C67.7384 22.1864 67.1614 21.8909 66.4357 21.8909C65.9438 21.8909 65.4968 22.0555 65.0956 22.38C64.6953 22.7073 64.4344 23.1347 64.3119 23.664C64.2511 23.9109 64.2184 24.112 64.2184 24.271V25.7682C64.2184 26.42 64.4194 26.9709 64.8178 27.4216C65.2181 27.8696 65.738 28.0959 66.3796 28.0959C67.1315 28.0959 67.716 27.8051 68.1331 27.228C68.552 26.6492 68.7615 25.886 68.7615 24.9378Z" fill="white"/>
<path d="M82.3339 25.9712C82.3339 27.0307 81.9635 27.892 81.2275 28.557C80.4177 29.2827 79.287 29.6465 77.8375 29.6465C76.4983 29.6465 75.4247 29.3883 74.6148 28.8712L75.0759 27.2094C75.9503 27.7274 76.9107 27.9856 77.9563 27.9856C78.7081 27.9856 79.2926 27.8154 79.7097 27.4778C80.1278 27.1392 80.3391 26.6866 80.3391 26.1217C80.3391 25.6158 80.1642 25.1922 79.821 24.8471C79.4759 24.5029 78.9055 24.1822 78.104 23.8876C75.925 23.0749 74.8346 21.8863 74.8346 20.3226C74.8346 19.3014 75.2199 18.4654 75.9886 17.8117C76.7573 17.1589 77.7767 16.8325 79.0448 16.8325C80.1773 16.8325 81.1209 17.0298 81.87 17.4236L81.3697 19.0489C80.6646 18.6674 79.8687 18.4766 78.9784 18.4766C78.2752 18.4766 77.7234 18.6496 77.3288 18.9937C76.9968 19.3014 76.8284 19.6764 76.8284 20.1216C76.8284 20.6125 77.0201 21.0203 77.4017 21.3401C77.7327 21.6347 78.3369 21.9555 79.2103 22.2996C80.2821 22.7317 81.0695 23.2348 81.5736 23.8128C82.0814 24.3907 82.3339 25.1117 82.3339 25.9712Z" fill="white"/>
<path d="M88.9429 21.9844H86.7452V26.3415C86.7452 27.4497 87.1323 28.0024 87.9085 28.0024C88.2648 28.0024 88.5604 27.9724 88.7942 27.9098L88.8493 29.4239C88.4566 29.5707 87.9394 29.6446 87.2988 29.6446C86.5114 29.6446 85.896 29.4042 85.4518 28.9235C85.0095 28.4428 84.7869 27.6377 84.7869 26.5042V21.9807H83.4776V20.4844H84.7869V18.8413L86.7452 18.2502V20.4844H88.9429V21.9844Z" fill="white"/>
<path d="M98.839 24.9014C98.839 26.2808 98.4443 27.4133 97.6569 28.299C96.833 29.2108 95.737 29.6653 94.3707 29.6653C93.0521 29.6653 92.0037 29.2285 91.2219 28.356C90.4401 27.4816 90.0492 26.38 90.0492 25.051C90.0492 23.6604 90.4532 22.5214 91.2584 21.6357C92.0654 20.7492 93.1521 20.3059 94.5184 20.3059C95.8352 20.3059 96.8929 20.7436 97.6934 21.617C98.4584 22.4643 98.839 23.5585 98.839 24.9014ZM96.7722 24.9472C96.7722 24.1252 96.5945 23.4201 96.2382 22.83C95.8202 22.1174 95.2217 21.7611 94.4464 21.7611C93.6478 21.7611 93.0352 22.1174 92.6181 22.83C92.2609 23.4201 92.0832 24.1374 92.0832 24.9847C92.0832 25.8076 92.2609 26.5146 92.6181 27.1029C93.0492 27.8155 93.6506 28.1718 94.4296 28.1718C95.1918 28.1718 95.7893 27.808 96.2214 27.0851C96.588 26.4809 96.7722 25.7711 96.7722 24.9472Z" fill="white"/>
<path d="M105.323 22.2416C105.125 22.2052 104.914 22.1864 104.694 22.1864C103.993 22.1864 103.45 22.4502 103.069 22.9814C102.738 23.4489 102.571 24.04 102.571 24.7535V29.4622H100.577V23.3143C100.577 22.2809 100.558 21.3382 100.52 20.4891H102.256L102.329 22.2061H102.384C102.596 21.616 102.927 21.14 103.381 20.7837C103.825 20.4629 104.305 20.303 104.822 20.303C105.007 20.303 105.173 20.3161 105.321 20.3395L105.323 22.2416Z" fill="white"/>
<path d="M114.24 24.5505C114.24 24.9077 114.216 25.2088 114.167 25.4548H108.185C108.208 26.3413 108.498 27.0203 109.053 27.4879C109.557 27.905 110.209 28.1145 111.01 28.1145C111.895 28.1145 112.703 27.9742 113.43 27.6908L113.742 29.074C112.893 29.4443 111.89 29.6285 110.734 29.6285C109.342 29.6285 108.25 29.2189 107.455 28.4016C106.662 27.5833 106.264 26.4835 106.264 25.106C106.264 23.7537 106.634 22.6268 107.374 21.7281C108.148 20.7686 109.194 20.2888 110.511 20.2888C111.804 20.2888 112.784 20.7686 113.448 21.7281C113.975 22.4884 114.24 23.431 114.24 24.5505ZM112.338 24.0333C112.352 23.4413 112.222 22.9317 111.951 22.5005C111.606 21.945 111.075 21.6682 110.363 21.6682C109.711 21.6682 109.18 21.9385 108.776 22.4809C108.444 22.912 108.247 23.4301 108.186 24.0314L112.338 24.0333Z" fill="white"/>
<path d="M45.5876 12.5626H44.543L43.9716 10.7661H41.9843L41.4391 12.5626H40.4225L42.392 6.44556H43.6078L45.5876 12.5626ZM43.7995 10.0124L43.2823 8.41506C43.2281 8.2514 43.128 7.87078 42.9737 7.26291H42.955C42.8914 7.5257 42.8007 7.90725 42.6642 8.41506L42.1564 10.0124H43.7995Z" fill="white"/>
<path d="M50.5123 8.1521L48.842 12.5624H47.8891L46.2731 8.1521H47.3261L48.0798 10.4845C48.207 10.8744 48.3155 11.2466 48.3969 11.6001H48.424C48.4969 11.2831 48.6054 10.9109 48.741 10.4845L49.4854 8.1521H50.5123Z" fill="white"/>
<path d="M54.0678 12.5623L53.9949 12.0545H53.9678C53.6685 12.4632 53.2327 12.6624 52.6791 12.6624C51.8898 12.6624 51.3268 12.1088 51.3268 11.3644C51.3268 10.2758 52.2704 9.71282 53.9042 9.71282V9.63146C53.9042 9.05071 53.5956 8.75986 52.9877 8.75986C52.5519 8.75986 52.1704 8.86928 51.8356 9.08718L51.6364 8.44284C52.045 8.18846 52.5528 8.06128 53.1523 8.06128C54.3044 8.06128 54.8861 8.66915 54.8861 9.88583V11.5102C54.8861 11.9554 54.9048 12.3005 54.9497 12.5633L54.0678 12.5623ZM53.9313 10.3656C52.8418 10.3656 52.2975 10.6293 52.2975 11.2549C52.2975 11.7179 52.579 11.9442 52.969 11.9442C53.4684 11.9442 53.9313 11.5636 53.9313 11.0464V10.3656Z" fill="white"/>
<path d="M57.0689 7.42525C56.7425 7.42525 56.4881 7.17088 56.4881 6.83515C56.4881 6.49941 56.7509 6.25439 57.0876 6.25439C57.4233 6.25439 57.6954 6.49941 57.6861 6.83515C57.6861 7.18958 57.4326 7.42525 57.0689 7.42525ZM57.5776 12.5622H56.5975V8.15189H57.5776V12.5622V12.5622Z" fill="white"/>
<path d="M60.299 12.5625H59.3189V6.12842H60.299V12.5625Z" fill="white"/>
<path d="M64.4643 12.5623L64.3914 12.0545H64.3643C64.065 12.4632 63.6292 12.6624 63.0756 12.6624C62.2863 12.6624 61.7233 12.1087 61.7233 11.3643C61.7233 10.2758 62.6669 9.71278 64.3007 9.71278V9.63142C64.3007 9.05067 63.9921 8.75982 63.3842 8.75982C62.9484 8.75982 62.5668 8.86924 62.232 9.08714L62.0319 8.44186C62.4406 8.18749 62.9484 8.0603 63.5478 8.0603C64.7 8.0603 65.2817 8.66817 65.2817 9.88485V11.5093C65.2817 11.9544 65.3013 12.2995 65.3443 12.5623H64.4643V12.5623ZM64.3278 10.3655C63.2383 10.3655 62.694 10.6293 62.694 11.2549C62.694 11.7178 62.9755 11.9441 63.3655 11.9441C63.8649 11.9441 64.3278 11.5635 64.3278 11.0464V10.3655Z" fill="white"/>
<path d="M69.2525 12.6626C68.6268 12.6626 68.1649 12.3988 67.8656 11.8817H67.846L67.7898 12.5625H66.9547C66.9818 12.209 66.9912 11.8087 66.9912 11.3739V6.12842H67.9722V8.79744H67.9909C68.2818 8.3074 68.7522 8.06239 69.3974 8.06239C70.4598 8.06239 71.2042 8.97045 71.2042 10.2947C71.2042 11.6638 70.3775 12.6626 69.2525 12.6626ZM69.0533 8.83204C68.4894 8.83204 67.9731 9.32208 67.9731 10.0029V10.7744C67.9731 11.3823 68.437 11.8817 69.0365 11.8817C69.7706 11.8817 70.2073 11.2832 70.2073 10.3302C70.2064 9.44085 69.7519 8.83204 69.0533 8.83204Z" fill="white"/>
<path d="M73.6329 12.5625H72.6537V6.12842H73.6329V12.5625Z" fill="white"/>
<path d="M78.9681 10.5927H76.026C76.0457 11.4278 76.5974 11.8991 77.4148 11.8991C77.8506 11.8991 78.2499 11.8262 78.6034 11.6906L78.7559 12.3714C78.3388 12.5528 77.8487 12.6435 77.2773 12.6435C75.897 12.6435 75.0806 11.7719 75.0806 10.4206C75.0806 9.06831 75.9166 8.05176 77.167 8.05176C78.292 8.05176 79.0009 8.88688 79.0009 10.1484C79.0046 10.3205 78.9962 10.4748 78.9681 10.5927ZM78.0694 9.89408C78.0694 9.21326 77.7243 8.73257 77.0978 8.73257C76.5348 8.73257 76.0915 9.22261 76.026 9.89408H78.0694V9.89408Z" fill="white"/>
<path d="M84.9084 12.6624C83.6198 12.6624 82.7846 11.7001 82.7846 10.3936C82.7846 9.032 83.6375 8.06128 84.9823 8.06128C86.2514 8.06128 87.1061 8.97776 87.1061 10.3216C87.1061 11.7001 86.2252 12.6624 84.9084 12.6624ZM84.9459 8.77763C84.2379 8.77763 83.7844 9.43974 83.7844 10.3656C83.7844 11.2736 84.2473 11.9358 84.9365 11.9358C85.6257 11.9358 86.0877 11.2278 86.0877 10.3469C86.0887 9.4491 85.6351 8.77763 84.9459 8.77763Z" fill="white"/>
<path d="M92.375 12.5623H91.3958V10.0298C91.3958 9.24986 91.0966 8.85895 90.5065 8.85895C89.9257 8.85895 89.5255 9.35834 89.5255 9.93909V12.5623H88.5463V9.41258C88.5463 9.02261 88.536 8.60458 88.5098 8.15102H89.3721L89.4179 8.83183H89.445C89.7069 8.3605 90.2437 8.0603 90.8422 8.0603C91.7671 8.0603 92.375 8.76824 92.375 9.92039V12.5623Z" fill="white"/>
<path d="M98.7876 8.88713H97.7093V11.0287C97.7093 11.5739 97.8991 11.8461 98.2798 11.8461C98.4528 11.8461 98.5987 11.8274 98.7155 11.8002L98.7427 12.5446C98.5519 12.6176 98.2966 12.6541 97.9814 12.6541C97.209 12.6541 96.7479 12.2276 96.7479 11.111V8.88713H96.1045V8.15207H96.7479V7.34407L97.7093 7.05322V8.15113H98.7876V8.88713Z" fill="white"/>
<path d="M103.978 12.5625H102.997V10.0487C102.997 9.25942 102.698 8.8601 102.107 8.8601C101.6 8.8601 101.128 9.20518 101.128 9.90377V12.5625H100.147V6.12842H101.128V8.7778H101.147C101.456 8.29712 101.901 8.06052 102.472 8.06052C103.406 8.06052 103.978 8.78622 103.978 9.93931V12.5625Z" fill="white"/>
<path d="M108.986 10.5927H106.045C106.063 11.4278 106.615 11.8991 107.432 11.8991C107.869 11.8991 108.268 11.8262 108.621 11.6906L108.774 12.3714C108.357 12.5528 107.866 12.6435 107.295 12.6435C105.915 12.6435 105.098 11.7719 105.098 10.4206C105.098 9.06831 105.934 8.05176 107.185 8.05176C108.31 8.05176 109.019 8.88688 109.019 10.1484C109.022 10.3205 109.013 10.4748 108.986 10.5927ZM108.087 9.89408C108.087 9.21326 107.743 8.73257 107.116 8.73257C106.552 8.73257 106.109 9.22261 106.045 9.89408H108.087V9.89408Z" fill="white"/>
<defs>
<linearGradient id="paint0_linear" x1="92.547" y1="37.4984" x2="92.547" y2="3.78872" gradientUnits="userSpaceOnUse">
<stop stop-color="#1A1A1A" stop-opacity="0.1"/>
<stop offset="0.1235" stop-color="#212121" stop-opacity="0.1506"/>
<stop offset="0.3085" stop-color="#353535" stop-opacity="0.2265"/>
<stop offset="0.5321" stop-color="#575757" stop-opacity="0.3181"/>
<stop offset="0.7834" stop-color="#858585" stop-opacity="0.4212"/>
<stop offset="1" stop-color="#B3B3B3" stop-opacity="0.51"/>
</linearGradient>
</defs>
</svg>
