<svg width="467" height="521" viewBox="0 0 467 521" fill="none" xmlns="http://www.w3.org/2000/svg">
<g clip-path="url(#clip0_3_2235)">
<path d="M98.3098 521C98.3098 521 -30.0713 479.886 37.7354 380.871C83.692 313.764 204.562 345.749 182.514 271.048C169.63 227.392 281.736 190.171 334.844 242.392C387.953 294.614 347.282 376.237 398.229 357.817C449.175 339.398 505.216 498.806 409.737 519.715C321.059 521 98.3098 521 98.3098 521Z" fill="#E4DFEF"/>
<path d="M98.3097 518.427C98.3097 518.427 66.1109 494.639 81.2266 472.079C96.3458 449.52 138.201 481.491 153.933 448.5C169.665 415.509 189.136 362.072 266.703 381.463C344.27 400.854 306.218 495.802 352.077 464.346C425.149 423.82 452.971 510.088 409.58 520.997C366.949 521 98.3097 518.427 98.3097 518.427Z" fill="#A295C7"/>
<path d="M177.033 271.045C177.033 271.045 191.832 319.517 120.087 326.32C48.3454 333.124 172.59 239.287 177.033 271.045Z" fill="#E4DFEF"/>
<path d="M257.963 247.995C257.963 247.995 241.013 184.018 284.88 160.857C328.751 137.692 297.078 210.512 257.963 247.995Z" fill="#CBC5DC"/>
<path d="M255.731 247.298C255.731 247.298 212.456 197.222 168.585 220.383C124.714 243.548 202.72 258.465 255.731 247.298Z" fill="#CBC5DC"/>
<path d="M128.238 96.0483C156.99 112.274 182.754 133.66 204.712 158.273C226.708 182.932 245.007 211.358 256.511 242.417C258.559 247.95 260.359 253.573 261.933 259.259C262.462 261.188 259.436 261.849 258.904 259.927C249.993 227.685 233.129 198.061 212.303 172.051C191.289 145.805 165.821 122.946 137.344 105.059C133.82 102.841 130.23 100.728 126.602 98.6806C124.854 97.6918 126.504 95.0664 128.238 96.0483Z" fill="#CBC5DC"/>
<path d="M234.334 199.697C234.334 199.697 191.062 149.617 147.188 172.779C103.317 195.944 181.319 210.86 234.334 199.697Z" fill="#CBC5DC"/>
<path d="M232.771 200.286C232.771 200.286 215.82 136.309 259.691 113.148C303.562 89.9863 271.885 162.807 232.771 200.286Z" fill="#CBC5DC"/>
<path d="M199.708 156.275C199.708 156.275 186.619 106.877 220.493 88.9939C254.359 71.1109 229.908 127.333 199.708 156.275Z" fill="#CBC5DC"/>
<path d="M199.332 156.473C199.332 156.473 162.317 121.236 130.348 142.333C98.3759 163.423 159.431 169.025 199.332 156.473Z" fill="#CBC5DC"/>
<path d="M168.192 126.16C168.192 126.16 158.407 89.2411 183.725 75.8741C209.04 62.5106 190.763 104.534 168.192 126.16Z" fill="#CBC5DC"/>
<path d="M168.192 126.16C168.192 126.16 137.643 103.238 115.751 121.682C93.8561 140.126 139.666 138.963 168.192 126.16Z" fill="#CBC5DC"/>
<path d="M149.848 111.233C149.848 111.233 135.342 75.8985 107.088 80.5364C78.838 85.1708 118.788 107.626 149.848 111.233Z" fill="#CBC5DC"/>
<path d="M264.76 226.982C264.76 226.982 289.501 165.596 338.508 173.319C387.518 181.038 318.534 220.387 264.76 226.982Z" fill="#56C6DF"/>
<path d="M263.392 225.091C263.392 225.091 258.73 159.067 209.723 151.351C160.716 143.625 214.253 202.284 263.392 225.091Z" fill="#56C6DF"/>
<path d="M251.877 27.6115C265.185 57.8239 273.01 90.3797 275.851 123.242C278.699 156.16 276.328 189.885 266.94 221.647C265.269 227.305 263.34 232.883 261.198 238.378C260.471 240.241 257.647 238.956 258.367 237.096C270.541 205.944 274.775 172.117 273.678 138.816C272.571 105.213 265.864 71.654 253.771 40.2751C252.274 36.3893 250.669 32.5488 248.994 28.7327C248.182 26.9012 251.079 25.787 251.877 27.6115Z" fill="#56C6DF"/>
<path d="M274.768 174.154C274.768 174.154 270.105 108.134 221.095 100.408C172.092 92.6882 225.625 151.344 274.768 174.154Z" fill="#56C6DF"/>
<path d="M273.163 173.688C273.163 173.688 297.9 112.302 346.907 120.028C395.917 127.747 326.937 167.1 273.163 173.688Z" fill="#56C6DF"/>
<path d="M273.044 118.642C273.044 118.642 292.147 71.2431 329.984 77.2076C367.816 83.1686 314.561 113.548 273.044 118.642Z" fill="#56C6DF"/>
<path d="M272.623 118.576C272.623 118.576 264.085 68.1896 225.848 65.9403C187.615 63.684 233.154 104.736 272.623 118.576Z" fill="#56C6DF"/>
<path d="M265.836 75.6513C265.836 75.6513 280.113 40.23 308.391 44.6833C336.672 49.1436 296.869 71.8491 265.836 75.6513Z" fill="#56C6DF"/>
<path d="M265.836 75.6513C265.836 75.6513 255.101 39.0008 226.524 40.6582C197.946 42.3191 235.326 68.8233 265.836 75.6513Z" fill="#56C6DF"/>
<path d="M260.088 52.709C260.088 52.709 269.632 15.7243 244.23 2.52095C218.832 -10.6824 237.377 31.2188 260.088 52.709Z" fill="#56C6DF"/>
<path d="M261.264 253.134C261.264 253.134 278.215 189.158 234.348 166C190.477 142.831 222.15 215.655 261.264 253.134Z" fill="#129FBF"/>
<path d="M263.497 252.441C263.497 252.441 306.772 202.361 350.646 225.526C394.513 248.688 316.511 263.604 263.497 252.441Z" fill="#129FBF"/>
<path d="M390.99 101.188C362.238 117.413 336.471 138.803 314.516 163.413C292.52 188.071 274.218 216.501 262.713 247.56C260.666 253.092 258.869 258.712 257.295 264.398C256.762 266.327 259.792 266.989 260.328 265.063C269.235 232.824 286.106 203.204 306.925 177.194C327.936 150.947 353.408 128.085 381.884 110.199C385.411 107.981 389.002 105.867 392.623 103.82C394.374 102.835 392.724 100.209 390.99 101.188Z" fill="#129FBF"/>
<path d="M284.894 204.837C284.894 204.837 328.166 154.757 372.043 177.922C415.911 201.083 337.909 216 284.894 204.837Z" fill="#129FBF"/>
<path d="M286.457 205.429C286.457 205.429 303.412 141.449 259.541 118.287C215.67 95.1256 247.34 167.946 286.457 205.429Z" fill="#129FBF"/>
<path d="M319.52 161.414C319.52 161.414 332.609 112.02 298.739 94.1367C264.869 76.2501 289.32 132.469 319.52 161.414Z" fill="#129FBF"/>
<path d="M319.896 161.612C319.896 161.612 356.907 126.379 388.88 147.472C420.852 168.562 359.794 174.165 319.896 161.612Z" fill="#129FBF"/>
<path d="M351.04 131.302C351.04 131.302 360.824 94.3839 335.51 81.0169C310.188 67.6533 328.465 109.673 351.04 131.302Z" fill="#129FBF"/>
<path d="M351.04 131.303C351.04 131.303 381.588 108.378 403.48 126.821C425.372 145.265 379.561 144.105 351.04 131.303Z" fill="#129FBF"/>
<path d="M369.383 116.372C369.383 116.372 383.893 81.0377 412.14 85.6756C440.39 90.31 400.44 112.768 369.383 116.372Z" fill="#129FBF"/>
<path d="M309.596 277.191C314.07 266.393 300.121 256.028 288.432 256.028C284.556 256.028 280.931 257.072 277.808 258.89C274.305 252.034 267.18 247.337 258.952 247.337C251.466 247.337 244.895 251.226 241.131 257.093C238.3 255.69 235.114 254.896 231.74 254.896C220.05 254.896 206.101 265.262 210.576 276.059C228.575 319.51 167.3 338.792 167.3 421.745C167.3 488.953 216.579 519.437 258.949 519.437C301.322 519.437 351.924 493.653 351.924 426.446C351.924 339.548 291.698 320.397 309.596 277.191Z" fill="#40327A"/>
<path d="M312.207 300.387C312.207 302.89 309.979 304.924 307.231 304.924H212C209.249 304.924 207.021 302.894 207.021 300.387V292.528C207.021 290.025 209.249 287.995 212 287.995H307.228C309.975 287.995 312.204 290.025 312.204 292.528V300.387H312.207Z" fill="#FDC25B"/>
<path d="M284.465 379.335C284.465 393.058 273.34 404.186 259.614 404.186C245.891 404.186 234.762 393.061 234.762 379.335C234.762 365.61 245.887 354.485 259.614 354.485C273.34 354.485 284.465 365.613 284.465 379.335Z" fill="#F79C4A"/>
<path d="M259.614 405.397C245.243 405.397 233.554 393.705 233.554 379.339C233.554 364.969 245.243 353.28 259.614 353.28C273.984 353.28 285.677 364.969 285.677 379.339C285.674 393.705 273.984 405.397 259.614 405.397ZM259.614 355.697C246.58 355.697 235.974 366.303 235.974 379.335C235.974 392.368 246.58 402.974 259.614 402.974C272.651 402.974 283.257 392.368 283.257 379.335C283.254 366.303 272.647 355.697 259.614 355.697Z" fill="#FDC25B"/>
<path d="M257.305 397.111V392.971C254.387 392.842 251.556 392.055 249.899 391.097L251.205 386C253.036 387.003 255.606 387.918 258.437 387.918C260.92 387.918 262.619 386.961 262.619 385.216C262.619 383.563 261.226 382.514 258.002 381.428C253.339 379.858 250.16 377.682 250.16 373.455C250.16 369.621 252.862 366.616 257.525 365.7V361.56H261.794V365.394C264.712 365.523 266.672 366.136 268.11 366.832L266.846 371.755C265.711 371.275 263.709 370.272 260.572 370.272C257.737 370.272 256.825 371.491 256.825 372.713C256.825 374.151 258.35 375.067 262.055 376.459C267.24 378.287 269.329 380.686 269.329 384.607C269.329 388.486 266.585 391.794 261.574 392.668V397.111H257.305Z" fill="white"/>
<path d="M356.367 515.279C356.367 517.048 354.337 518.479 351.83 518.479H294.383C291.879 518.479 289.845 517.048 289.845 515.279V506.212C289.845 504.447 291.876 503.013 294.383 503.013H351.83C354.334 503.013 356.367 504.444 356.367 506.212V515.279Z" fill="#FDC25B"/>
<path d="M351.83 503.013H294.383C291.879 503.013 289.845 504.444 289.845 506.212V515.279C289.845 517.048 291.876 518.479 294.383 518.479H322.487C320.443 517.062 313.813 517.96 309.498 516.213C280.816 504.573 351.83 503.013 351.83 503.013Z" fill="#F79C4A"/>
<path d="M356.367 499.813C356.367 501.578 354.337 503.013 351.83 503.013H294.383C291.879 503.013 289.845 501.578 289.845 499.813V490.746C289.845 488.981 291.876 487.546 294.383 487.546H351.83C354.334 487.546 356.367 488.981 356.367 490.746V499.813Z" fill="#FDC25B"/>
<path d="M351.83 487.546H294.383C291.879 487.546 289.845 488.981 289.845 490.746V499.813C289.845 501.578 291.876 503.013 294.383 503.013H322.487C320.443 501.595 313.813 502.494 309.498 500.746C280.816 489.106 351.83 487.546 351.83 487.546Z" fill="#F79C4A"/>
<path d="M356.367 484.346C356.367 486.112 354.337 487.546 351.83 487.546H294.383C291.879 487.546 289.845 486.115 289.845 484.346V475.279C289.845 473.511 291.876 472.079 294.383 472.079H351.83C354.334 472.079 356.367 473.511 356.367 475.279V484.346Z" fill="#FDC25B"/>
<path d="M351.83 472.084H294.383C291.879 472.084 289.845 473.515 289.845 475.283V484.35C289.845 486.116 291.876 487.55 294.383 487.55H322.487C320.443 486.133 313.813 487.031 309.498 485.283C280.816 473.643 351.83 472.084 351.83 472.084Z" fill="#F79C4A"/>
<path d="M356.367 468.88C356.367 470.648 354.337 472.079 351.83 472.079H294.383C291.879 472.079 289.845 470.648 289.845 468.88V459.813C289.845 458.047 291.876 456.613 294.383 456.613H351.83C354.334 456.613 356.367 458.044 356.367 459.813V468.88Z" fill="#FDC25B"/>
<path d="M351.83 456.617H294.383C291.879 456.617 289.845 458.048 289.845 459.817V468.884C289.845 470.652 291.876 472.083 294.383 472.083H322.487C320.443 470.666 313.813 471.565 309.498 469.817C280.816 458.177 351.83 456.617 351.83 456.617Z" fill="#F79C4A"/>
<path d="M356.367 453.298C356.367 455.067 354.337 456.498 351.83 456.498H294.383C291.879 456.498 289.845 455.067 289.845 453.298V444.231C289.845 442.466 291.876 441.031 294.383 441.031H351.83C354.334 441.031 356.367 442.462 356.367 444.231V453.298Z" fill="#FDC25B"/>
<path d="M351.83 441.035H294.383C291.879 441.035 289.845 442.466 289.845 444.235V453.302C289.845 455.071 291.876 456.502 294.383 456.502H322.487C320.443 455.085 313.813 455.983 309.498 454.235C280.816 442.595 351.83 441.035 351.83 441.035Z" fill="#F79C4A"/>
<path d="M356.367 437.835C356.367 439.6 354.337 441.035 351.83 441.035H294.383C291.879 441.035 289.845 439.6 289.845 437.835V428.768C289.845 427.003 291.876 425.568 294.383 425.568H351.83C354.334 425.568 356.367 427.003 356.367 428.768V437.835Z" fill="#FDC25B"/>
<path d="M351.83 425.568H294.383C291.879 425.568 289.845 427.003 289.845 428.768V437.835C289.845 439.6 291.876 441.035 294.383 441.035H322.487C320.443 439.618 313.813 440.516 309.498 438.768C280.816 427.128 351.83 425.568 351.83 425.568Z" fill="#F79C4A"/>
<path d="M356.367 422.368C356.367 424.134 354.337 425.568 351.83 425.568H294.383C291.879 425.568 289.845 424.137 289.845 422.368V413.301C289.845 411.536 291.876 410.102 294.383 410.102H351.83C354.334 410.102 356.367 411.533 356.367 413.301V422.368Z" fill="#FDC25B"/>
<path d="M351.83 410.102H294.383C291.879 410.102 289.845 411.533 289.845 413.301V422.368C289.845 424.134 291.876 425.568 294.383 425.568H322.487C320.443 424.151 313.813 425.049 309.498 423.301C280.816 411.661 351.83 410.102 351.83 410.102Z" fill="#F79C4A"/>
<path d="M356.367 406.902C356.367 408.671 354.337 410.102 351.83 410.102H294.383C291.879 410.102 289.845 408.671 289.845 406.902V397.835C289.845 396.07 291.876 394.635 294.383 394.635H351.83C354.334 394.635 356.367 396.066 356.367 397.835V406.902Z" fill="#FDC25B"/>
<path d="M351.83 394.639H294.383C291.879 394.639 289.845 396.07 289.845 397.839V406.906C289.845 408.675 291.876 410.106 294.383 410.106H322.487C320.443 408.688 313.813 409.587 309.498 407.839C280.816 396.199 351.83 394.639 351.83 394.639Z" fill="#F79C4A"/>
<path d="M287.206 515.015C287.206 516.78 285.176 518.215 282.669 518.215H225.221C222.718 518.215 220.684 516.784 220.684 515.015V505.948C220.684 504.179 222.714 502.748 225.221 502.748H282.669C285.173 502.748 287.206 504.179 287.206 505.948V515.015Z" fill="#FDC25B"/>
<path d="M282.669 502.748H225.221C222.718 502.748 220.684 504.179 220.684 505.948V515.015C220.684 516.78 222.714 518.215 225.221 518.215H253.325C251.281 516.798 244.652 517.696 240.337 515.948C211.655 504.308 282.669 502.748 282.669 502.748Z" fill="#F79C4A"/>
<path d="M287.206 499.548C287.206 501.317 285.176 502.748 282.669 502.748H225.221C222.718 502.748 220.684 501.317 220.684 499.548V490.481C220.684 488.716 222.714 487.281 225.221 487.281H282.669C285.173 487.281 287.206 488.713 287.206 490.481V499.548Z" fill="#FDC25B"/>
<path d="M282.669 487.281H225.221C222.718 487.281 220.684 488.713 220.684 490.481V499.548C220.684 501.317 222.714 502.748 225.221 502.748H253.325C251.281 501.331 244.652 502.229 240.337 500.481C211.655 488.841 282.669 487.281 282.669 487.281Z" fill="#F79C4A"/>
<path d="M287.206 484.082C287.206 485.847 285.176 487.281 282.669 487.281H225.221C222.718 487.281 220.684 485.847 220.684 484.082V475.015C220.684 473.249 222.714 471.815 225.221 471.815H282.669C285.173 471.815 287.206 473.249 287.206 475.015V484.082Z" fill="#FDC25B"/>
<path d="M282.669 471.815H225.221C222.718 471.815 220.684 473.249 220.684 475.015V484.082C220.684 485.847 222.714 487.281 225.221 487.281H253.325C251.281 485.864 244.652 486.763 240.337 485.015C211.655 473.375 282.669 471.815 282.669 471.815Z" fill="#F79C4A"/>
<path d="M287.206 468.615C287.206 470.38 285.176 471.815 282.669 471.815H225.221C222.718 471.815 220.684 470.384 220.684 468.615V459.548C220.684 457.783 222.714 456.348 225.221 456.348H282.669C285.173 456.348 287.206 457.779 287.206 459.548V468.615Z" fill="#FDC25B"/>
<path d="M282.669 456.352H225.221C222.718 456.352 220.684 457.783 220.684 459.552V468.619C220.684 470.384 222.714 471.819 225.221 471.819H253.325C251.281 470.402 244.652 471.3 240.337 469.552C211.655 457.912 282.669 456.352 282.669 456.352Z" fill="#F79C4A"/>
<path d="M287.206 453.033C287.206 454.799 285.176 456.233 282.669 456.233H225.221C222.718 456.233 220.684 454.802 220.684 453.033V443.967C220.684 442.201 222.714 440.767 225.221 440.767H282.669C285.173 440.767 287.206 442.198 287.206 443.967V453.033Z" fill="#FDC25B"/>
<path d="M282.669 440.771H225.221C222.718 440.771 220.684 442.202 220.684 443.971V453.038C220.684 454.803 222.714 456.237 225.221 456.237H253.325C251.281 454.82 244.652 455.719 240.337 453.971C211.655 442.331 282.669 440.771 282.669 440.771Z" fill="#F79C4A"/>
<path d="M218.041 515.279C218.041 517.048 216.011 518.479 213.508 518.479H156.06C153.557 518.479 151.527 517.048 151.527 515.279V506.212C151.527 504.447 153.557 503.013 156.06 503.013H213.508C216.011 503.013 218.041 504.444 218.041 506.212V515.279Z" fill="#FDC25B"/>
<path d="M213.504 503.013H156.06C153.557 503.013 151.527 504.444 151.527 506.212V515.279C151.527 517.048 153.557 518.479 156.06 518.479H184.164C182.12 517.062 175.49 517.96 171.176 516.213C142.491 504.573 213.504 503.013 213.504 503.013Z" fill="#F79C4A"/>
<path d="M218.041 499.813C218.041 501.578 216.011 503.013 213.508 503.013H156.06C153.557 503.013 151.527 501.578 151.527 499.813V490.746C151.527 488.981 153.557 487.546 156.06 487.546H213.508C216.011 487.546 218.041 488.981 218.041 490.746V499.813Z" fill="#FDC25B"/>
<path d="M213.504 487.546H156.06C153.557 487.546 151.527 488.981 151.527 490.746V499.813C151.527 501.578 153.557 503.013 156.06 503.013H184.164C182.12 501.595 175.49 502.494 171.176 500.746C142.491 489.106 213.504 487.546 213.504 487.546Z" fill="#F79C4A"/>
<path d="M322.04 384.663L322.458 390.589C322.458 390.589 323.966 392.142 325.143 390.686C325.843 388.723 326.651 384.228 326.651 384.228C326.651 384.228 321.974 381.644 322.04 384.663Z" fill="#F8AD98"/>
<path d="M326.922 391.512C326.807 391.184 326.421 390.491 326.421 390.491C326.421 390.491 326.498 388.695 326.034 388.166C324.683 389.05 323.785 388.517 322.138 388.023C321.877 387.943 320.783 389.001 320.77 389.106C320.679 389.792 320.404 390.021 320.247 390.241C320.087 390.46 318.033 393.507 315.916 393.051C315.585 392.988 315.47 393.354 315.397 393.535C315.324 393.716 315.236 394.335 315.209 394.436C315.174 394.548 315.226 394.642 315.317 394.694C315.411 394.743 318.457 395.631 319.725 395.589C320.373 395.592 320.689 395.481 320.999 395.335C321.309 395.192 321.852 394.51 322.034 394.304C322.232 394.078 322.653 393.98 322.862 393.97C323.245 393.949 323.228 394.147 323.228 394.147C323.228 394.147 323.263 394.558 323.357 394.931C324.729 395.464 326.759 394.736 327.298 394.513C327.211 393.193 327.051 391.884 326.922 391.512Z" fill="#2D2663"/>
<path d="M341.502 384.691L342.383 390.565C342.383 390.565 344.006 391.992 345.068 390.453C345.614 388.441 346.064 383.897 346.064 383.897C346.064 383.897 341.203 381.686 341.502 384.691Z" fill="#F8AD98"/>
<path d="M346.575 391.334C346.461 391.007 346.074 390.314 346.074 390.314C346.074 390.314 346.151 388.517 345.684 387.988C344.333 388.872 343.435 388.34 341.788 387.845C341.526 387.765 340.433 388.824 340.419 388.928C340.329 389.614 340.054 389.844 339.897 390.063C339.737 390.283 337.682 393.329 335.565 392.873C335.234 392.81 335.119 393.176 335.046 393.357C334.973 393.538 334.886 394.158 334.858 394.259C334.823 394.37 334.876 394.464 334.97 394.517C335.06 394.565 338.111 395.453 339.378 395.411C340.026 395.415 340.343 395.303 340.652 395.157C340.962 395.014 341.506 394.332 341.687 394.127C341.885 393.9 342.306 393.803 342.515 393.792C342.898 393.771 342.881 393.97 342.881 393.97C342.881 393.97 342.916 394.381 343.01 394.753C344.382 395.286 346.412 394.558 346.955 394.336C346.864 393.019 346.704 391.707 346.575 391.334Z" fill="#2D2663"/>
<path d="M326.111 290.833L313.764 336.435L321.922 384.304H326.567C326.567 384.304 331.153 347.772 327.121 337.57C332.664 326.609 352.822 306.707 351.057 295.369C349.291 284.032 326.111 290.833 326.111 290.833Z" fill="#F2809E"/>
<path d="M330.387 293.134L341.495 384.304H346.022C346.022 384.304 351.558 350.331 346.77 337.184C348.532 325.056 354.295 302.462 351.161 294.478C348.031 286.498 330.387 293.134 330.387 293.134Z" fill="#F493A8"/>
<path d="M306.451 240.829C303.93 227.598 302.457 221.581 302.457 221.581C302.457 221.581 307.082 215.018 304.435 212.305C301.789 209.593 299.146 212.452 299.146 212.452C299.146 212.452 297.878 216.101 298.258 220.007C298.641 223.91 299.017 247.013 306.326 256.449C306.326 256.449 311.876 267.281 326.379 270.54C329.026 262.622 332.031 259.161 332.031 259.161C332.031 259.161 311.622 257.326 306.451 240.829Z" fill="#F8AD98"/>
<path d="M345.726 258.51C341.788 255.084 332.56 254.499 328.065 258.023C325.711 257.354 322.97 256.536 320.495 255.693C318.726 259.945 316.358 266.553 316.358 266.553C316.358 266.553 319.6 268.705 324.746 270.248C323.9 278.207 323.632 288.34 324.847 294.043C336.94 297.821 351.113 295.366 351.113 295.366C351.113 295.366 354.466 267.25 345.726 258.51Z" fill="#129FBF"/>
<path d="M333.295 239.21C333.295 239.21 329.005 249.67 333.295 253.009C333.699 253.322 334.11 253.569 334.517 253.757V258.329C334.517 259.725 335.649 260.857 337.045 260.857C338.441 260.857 339.573 259.725 339.573 258.329V253.2C341.561 251.915 343.254 249.523 344.26 246.881C346.245 241.644 340.099 232.629 333.295 239.21Z" fill="#F8AD98"/>
<path d="M343.657 236.069C340.806 234.823 341.276 235.397 336.808 233.507C333.598 232.372 331.143 235.275 331.811 237.984C333.065 241.86 338.159 239.906 339.907 240.519C341.655 241.132 341.237 243.75 341.237 243.75C339.865 248.917 336.791 247.006 332.727 246.571C329.673 245.94 331.024 253.799 334.569 253.799C338.5 253.9 340.638 248.712 341.512 247.225C341.592 247.09 342.254 245.533 342.884 245.533C343.515 245.533 344.026 246.045 344.026 246.675C344.026 247.305 343.515 247.817 342.884 247.817C342.536 247.817 342.226 247.657 342.017 247.413C339.785 251.421 337.835 256.01 340.562 254.005C349.855 247.201 346.565 237.34 343.657 236.069Z" fill="#2D2663"/>
<path d="M324.75 270.251C324.743 270.303 324.739 270.359 324.732 270.411C325.331 266.759 326.143 263.155 327.535 259.684C327.716 259.231 326.985 259.036 326.808 259.482C325.436 262.894 324.628 266.435 324.032 270.025C324.269 270.101 324.503 270.178 324.75 270.251Z" fill="#56C6DF"/>
<path d="M317.054 270.634C304.808 265.025 297.294 263.319 297.294 263.319C297.294 263.319 292.77 252.138 290.876 257.518C286.91 254.593 281.694 255.512 285.207 261.679C287.091 264.983 290.169 265.063 293.575 267.013C296.98 268.963 316.034 282.03 327.957 281.536C327.957 281.536 341.248 283.503 348.996 270.275C340.872 270.275 336.422 269.708 336.422 269.708C336.422 269.708 331.171 274.419 317.054 270.634Z" fill="#F8AD98"/>
<path d="M319.029 235.383C319.029 247.702 309.039 257.692 296.719 257.692C284.399 257.692 274.409 247.702 274.409 235.383C274.409 223.061 284.399 213.075 296.719 213.075C309.039 213.075 319.029 223.061 319.029 235.383Z" fill="#F79C4A"/>
<path d="M296.719 258.778C283.818 258.778 273.323 248.284 273.323 235.383C273.323 222.483 283.818 211.988 296.719 211.988C309.62 211.988 320.115 222.483 320.115 235.383C320.115 248.28 309.62 258.778 296.719 258.778ZM296.719 214.161C285.016 214.161 275.496 223.681 275.496 235.383C275.496 247.086 285.016 256.606 296.719 256.606C308.422 256.606 317.942 247.086 317.942 235.383C317.942 223.681 308.419 214.161 296.719 214.161Z" fill="#FDC25B"/>
<path d="M294.644 251.341V247.626C292.025 247.507 289.48 246.804 287.993 245.944L289.166 241.369C290.81 242.271 293.119 243.089 295.66 243.089C297.889 243.089 299.414 242.229 299.414 240.665C299.414 239.179 298.164 238.242 295.27 237.264C291.085 235.857 288.23 233.9 288.23 230.105C288.23 226.665 290.657 223.963 294.842 223.144V219.429H298.676V222.873C301.294 222.991 303.056 223.538 304.348 224.165L303.213 228.583C302.196 228.155 300.396 227.253 297.579 227.253C295.037 227.253 294.215 228.346 294.215 229.443C294.215 230.735 295.584 231.557 298.909 232.807C303.565 234.45 305.442 236.602 305.442 240.119C305.442 243.601 302.976 246.571 298.481 247.354V251.344H294.644V251.341Z" fill="white"/>
<path d="M142.741 507.508L142.323 513.434C142.323 513.434 140.816 514.987 139.639 513.531C138.939 511.568 138.131 507.072 138.131 507.072C138.131 507.072 142.804 504.489 142.741 507.508Z" fill="#F8AD98"/>
<path d="M137.856 514.357C137.971 514.029 138.357 513.336 138.357 513.336C138.357 513.336 138.281 511.54 138.747 511.01C140.098 511.895 141 511.362 142.644 510.868C142.905 510.788 143.998 511.846 144.012 511.951C144.103 512.636 144.378 512.866 144.534 513.086C144.695 513.305 146.749 516.352 148.866 515.896C149.197 515.833 149.312 516.199 149.385 516.38C149.458 516.561 149.545 517.18 149.577 517.281C149.611 517.393 149.563 517.487 149.469 517.539C149.375 517.588 146.328 518.476 145.06 518.434C144.413 518.437 144.099 518.326 143.786 518.18C143.476 518.037 142.933 517.354 142.752 517.149C142.553 516.923 142.132 516.825 141.923 516.815C141.54 516.794 141.557 516.992 141.557 516.992C141.557 516.992 141.522 517.403 141.432 517.776C140.06 518.309 138.03 517.581 137.49 517.358C137.57 516.038 137.727 514.726 137.856 514.357Z" fill="#2D2663"/>
<path d="M123.276 507.536L122.395 513.41C122.395 513.41 120.773 514.837 119.711 513.298C119.164 511.286 118.715 506.742 118.715 506.742C118.715 506.742 123.576 504.531 123.276 507.536Z" fill="#F8AD98"/>
<path d="M155.513 366.491C158.035 353.26 159.507 347.243 159.507 347.243C159.507 347.243 154.883 340.68 157.53 337.967C160.176 335.255 162.822 338.113 162.822 338.113C162.822 338.113 164.09 341.762 163.71 345.669C163.327 349.572 162.951 372.675 155.642 382.111C155.642 382.111 150.095 392.943 135.589 396.202C132.943 388.284 129.934 384.823 129.934 384.823C129.934 384.823 150.343 382.988 155.513 366.491Z" fill="#F8AD98"/>
<path d="M118.203 514.179C118.318 513.852 118.704 513.159 118.704 513.159C118.704 513.159 118.628 511.362 119.094 510.833C120.445 511.717 121.347 511.185 122.991 510.69C123.252 510.61 124.345 511.669 124.359 511.773C124.45 512.459 124.725 512.689 124.882 512.908C125.042 513.127 127.096 516.174 129.213 515.718C129.544 515.655 129.659 516.021 129.732 516.202C129.805 516.383 129.892 517.003 129.92 517.104C129.955 517.215 129.906 517.309 129.812 517.361C129.718 517.41 126.671 518.298 125.404 518.26C124.756 518.263 124.443 518.152 124.129 518.006C123.819 517.863 123.276 517.18 123.095 516.975C122.897 516.749 122.475 516.651 122.266 516.641C121.883 516.62 121.901 516.818 121.901 516.818C121.901 516.818 121.866 517.229 121.775 517.602C120.404 518.134 118.373 517.407 117.834 517.184C117.917 515.864 118.074 514.552 118.203 514.179Z" fill="#2D2663"/>
<path d="M96.1996 365.495C93.6786 352.264 92.2057 346.247 92.2057 346.247C92.2057 346.247 96.8299 339.684 94.1835 336.971C91.5371 334.259 88.8907 337.118 88.8907 337.118C88.8907 337.118 87.6233 340.767 88.0028 344.673C88.3858 348.576 88.7619 371.679 96.0708 381.115C96.0708 381.115 101.621 391.947 116.124 395.206C118.771 387.288 121.779 383.827 121.779 383.827C121.779 383.827 101.371 381.989 96.1996 365.495Z" fill="#F8AD98"/>
<path d="M138.671 413.677L151.015 459.28L142.86 507.149H138.215C138.215 507.149 133.629 470.617 137.661 460.415C132.117 449.454 111.96 429.551 113.725 418.214C115.491 406.877 138.671 413.677 138.671 413.677Z" fill="#129FBF"/>
<path d="M134.391 415.979L123.283 507.149H118.757C118.757 507.149 113.22 473.176 118.008 460.028C116.246 447.901 110.483 425.307 113.617 417.323C116.747 409.343 134.391 415.979 134.391 415.979Z" fill="#56C6DF"/>
<path d="M147.971 390.349L145.899 378.991L136.999 381.331C136.905 381.17 136.811 381.014 136.714 380.868C132.218 377.344 122.991 377.929 119.052 381.355C118.802 381.606 118.561 381.877 118.328 382.159L107.722 379.37L105.65 390.728C105.65 390.728 109.609 393.287 113.794 394.614C112.154 405.579 113.37 418.503 113.37 418.503C113.37 418.503 128.043 423.246 139.531 417.285C140.258 413.872 140.896 403.535 140.053 394.729C144.137 393.493 147.971 390.349 147.971 390.349Z" fill="#40327A"/>
<path d="M131.484 362.055C131.484 362.055 135.774 372.515 131.484 375.854C131.08 376.167 130.669 376.414 130.261 376.602V381.174C130.261 382.57 129.13 383.702 127.733 383.702C126.337 383.702 125.205 382.57 125.205 381.174V376.045C123.221 374.76 121.525 372.368 120.519 369.726C118.537 364.489 124.68 355.474 131.484 362.055Z" fill="#F8AD98"/>
<path d="M129.213 357.062C126.926 357.48 123.551 357.636 120.922 359.896C120.707 360.084 120.473 360.31 120.233 360.572C119.638 359.635 118.593 359.012 117.402 359.012C115.55 359.012 114.049 360.512 114.049 362.365C114.049 364.217 115.55 365.718 117.402 365.718C117.507 365.718 117.608 365.711 117.709 365.7C117.193 368.97 118.544 372.946 124.948 376.292C125.219 374.934 125.195 373.106 125.209 371.268C125.003 371.369 124.774 371.428 124.526 371.428C123.663 371.428 122.959 370.728 122.959 369.861C122.959 368.998 123.659 368.294 124.526 368.294C124.812 368.294 125.077 368.378 125.306 368.51C125.529 365.801 126.264 363.601 128.785 363.601C128.785 363.601 136.244 365.035 136.244 360.053C136.244 355.676 132.427 353.848 129.213 357.062Z" fill="#2D2663"/>
<path d="M411.436 519.712C411.436 520.422 410.521 520.997 409.389 520.997H65.8985C64.7669 520.997 63.8511 520.422 63.8511 519.712C63.8511 519.001 64.7669 518.427 65.8985 518.427H409.389C410.521 518.427 411.436 519.005 411.436 519.712Z" fill="#A295C7"/>
<path d="M294.289 166.219C294.289 173.604 288.303 179.589 280.917 179.589C273.532 179.589 267.546 173.604 267.546 166.219C267.546 158.834 273.532 152.848 280.917 152.848C288.303 152.848 294.289 158.834 294.289 166.219Z" fill="#F79C4A"/>
<path d="M280.917 180.241C273.184 180.241 266.895 173.949 266.895 166.219C266.895 158.486 273.187 152.197 280.917 152.197C288.651 152.197 294.94 158.489 294.94 166.219C294.94 173.952 288.651 180.241 280.917 180.241ZM280.917 153.5C273.904 153.5 268.197 159.206 268.197 166.219C268.197 173.231 273.904 178.938 280.917 178.938C287.93 178.938 293.637 173.231 293.637 166.219C293.637 159.206 287.93 153.5 280.917 153.5Z" fill="#FDC25B"/>
<path d="M279.674 175.784V173.555C278.104 173.486 276.579 173.064 275.687 172.549L276.391 169.805C277.376 170.345 278.758 170.836 280.284 170.836C281.621 170.836 282.533 170.321 282.533 169.384C282.533 168.493 281.784 167.932 280.047 167.344C277.54 166.501 275.827 165.328 275.827 163.054C275.827 160.993 277.279 159.374 279.789 158.883V156.654H282.087V158.719C283.658 158.789 284.713 159.116 285.486 159.492L284.807 162.142C284.197 161.884 283.118 161.344 281.433 161.344C279.908 161.344 279.417 162.002 279.417 162.657C279.417 163.43 280.238 163.924 282.23 164.673C285.019 165.658 286.144 166.947 286.144 169.057C286.144 171.142 284.668 172.925 281.972 173.392V175.784H279.674Z" fill="white"/>
<path d="M417.882 487.546C417.882 503.361 405.061 516.181 389.245 516.181C373.433 516.181 360.612 503.361 360.612 487.546C360.612 471.731 373.433 458.911 389.245 458.911C405.064 458.914 417.882 471.731 417.882 487.546Z" fill="#F79C4A"/>
<path d="M389.245 517.574C372.688 517.574 359.216 504.102 359.216 487.546C359.216 470.986 372.684 457.518 389.245 457.518C405.806 457.518 419.275 470.986 419.275 487.546C419.278 504.102 405.806 517.574 389.245 517.574ZM389.245 460.307C374.227 460.307 362.005 472.525 362.005 487.546C362.005 502.567 374.223 514.785 389.245 514.785C404.267 514.785 416.485 502.567 416.485 487.546C416.489 472.529 404.267 460.307 389.245 460.307Z" fill="#FDC25B"/>
<path d="M386.585 508.03V503.26C383.221 503.11 379.958 502.205 378.05 501.101L379.555 495.227C381.665 496.383 384.624 497.435 387.887 497.435C390.749 497.435 392.706 496.331 392.706 494.322C392.706 492.414 391.101 491.209 387.386 489.955C382.013 488.148 378.346 485.638 378.346 480.77C378.346 476.352 381.459 472.887 386.832 471.836V467.065H391.752V471.484C395.116 471.634 397.376 472.337 399.03 473.141L397.574 478.813C396.269 478.263 393.96 477.107 390.346 477.107C387.083 477.107 386.028 478.514 386.028 479.917C386.028 481.574 387.786 482.629 392.052 484.235C398.027 486.341 400.433 489.102 400.433 493.622C400.433 498.089 397.271 501.905 391.498 502.908V508.03H386.585Z" fill="white"/>
<path d="M366.27 128.726C366.27 136.111 360.285 142.096 352.899 142.096C345.514 142.096 339.528 136.111 339.528 128.726C339.528 121.341 345.514 115.355 352.899 115.355C360.281 115.355 366.27 121.341 366.27 128.726Z" fill="#F79C4A"/>
<path d="M352.896 142.747C345.162 142.747 338.873 136.456 338.873 128.726C338.873 120.993 345.165 114.704 352.896 114.704C360.629 114.704 366.918 120.993 366.918 128.726C366.921 136.456 360.629 142.747 352.896 142.747ZM352.896 116.006C345.883 116.006 340.176 121.713 340.176 128.726C340.176 135.738 345.883 141.445 352.896 141.445C359.909 141.445 365.616 135.738 365.616 128.726C365.619 121.713 359.912 116.006 352.896 116.006Z" fill="#FDC25B"/>
<path d="M351.656 138.291V136.062C350.086 135.993 348.56 135.568 347.669 135.056L348.372 132.312C349.358 132.852 350.74 133.343 352.265 133.343C353.602 133.343 354.515 132.828 354.515 131.887C354.515 130.996 353.763 130.435 352.028 129.847C349.521 129.004 347.808 127.831 347.808 125.557C347.808 123.496 349.26 121.877 351.771 121.386V119.158H354.069V121.222C355.639 121.292 356.694 121.619 357.467 121.995L356.789 124.645C356.179 124.387 355.1 123.848 353.411 123.848C351.889 123.848 351.395 124.502 351.395 125.16C351.395 125.933 352.217 126.428 354.208 127.176C356.997 128.162 358.122 129.45 358.122 131.56C358.122 133.646 356.646 135.428 353.951 135.895V138.287H351.656V138.291Z" fill="white"/>
<path d="M465.113 396.219C465.113 396.212 465.092 395.408 464.959 394.029L466.84 393.848C466.979 395.303 467 396.146 467 396.181L465.113 396.219Z" fill="#A295C7"/>
<path d="M464.479 390.356C464.242 388.904 463.95 387.431 463.609 385.975L465.447 385.544C465.799 387.041 466.102 388.555 466.342 390.053L464.479 390.356ZM462.654 382.382C462.23 380.948 461.749 379.523 461.234 378.155L463.003 377.49C463.535 378.9 464.026 380.366 464.465 381.846L462.654 382.382ZM459.817 374.725C459.2 373.364 458.532 372.023 457.828 370.746L459.482 369.833C460.214 371.156 460.903 372.539 461.54 373.949L459.817 374.725ZM455.927 367.57C455.119 366.324 454.249 365.108 453.347 363.959L454.834 362.793C455.77 363.987 456.672 365.248 457.511 366.539L455.927 367.57ZM450.951 361.149C449.948 360.063 448.886 359.019 447.793 358.047L449.05 356.637C450.189 357.65 451.296 358.74 452.341 359.868L450.951 361.149ZM444.941 355.707C443.771 354.826 442.538 353.991 441.281 353.221L442.263 351.609C443.573 352.406 444.858 353.277 446.08 354.196L444.941 355.707ZM438.057 351.431C436.758 350.773 435.397 350.164 434.014 349.617L434.711 347.863C436.145 348.43 437.559 349.064 438.91 349.746L438.057 351.431ZM430.529 348.381C429.143 347.946 427.701 347.553 426.242 347.215L426.667 345.373C428.175 345.721 429.665 346.125 431.096 346.578L430.529 348.381ZM422.607 346.491C421.169 346.25 419.686 346.052 418.192 345.902L418.38 344.022C419.912 344.175 421.441 344.381 422.917 344.628L422.607 346.491ZM414.487 345.624C413.16 345.558 411.788 345.523 410.409 345.523H410.019L410.012 343.632H410.409C411.819 343.632 413.223 343.667 414.581 343.733L414.487 345.624ZM406.199 345.446C404.587 345.352 403.048 345.171 401.624 344.917L401.958 343.058C403.309 343.301 404.775 343.468 406.314 343.559L406.199 345.446ZM397.867 343.991C396.321 343.493 394.879 342.859 393.584 342.114L394.527 340.477C395.708 341.16 397.024 341.738 398.445 342.194L397.867 343.991ZM390.408 339.809C389.262 338.782 388.225 337.584 387.319 336.254L388.883 335.192C389.701 336.397 390.638 337.48 391.669 338.402L390.408 339.809ZM385.411 332.849C384.798 331.525 384.266 330.101 383.785 328.5L385.596 327.953C386.052 329.471 386.553 330.812 387.128 332.055L385.411 332.849ZM382.828 324.781C382.528 323.406 382.253 321.933 381.988 320.279L383.855 319.983C384.113 321.602 384.381 323.04 384.673 324.377L382.828 324.781ZM381.452 316.518C381.243 314.896 381.052 313.256 380.909 312.009L382.786 311.797C382.929 313.037 383.117 314.67 383.326 316.278L381.452 316.518ZM380.488 308.256C380.324 306.783 380.153 305.286 379.965 303.768L381.842 303.538C382.027 305.063 382.201 306.567 382.364 308.044L380.488 308.256ZM379.485 300.042C379.265 298.465 379.046 297.009 378.809 295.592L380.672 295.282C380.912 296.717 381.135 298.19 381.355 299.784L379.485 300.042ZM378.144 291.912C377.848 290.404 377.524 288.931 377.187 287.532L379.022 287.086C379.366 288.51 379.697 290.011 379.997 291.543L378.144 291.912ZM376.236 283.924C375.822 282.472 375.369 281.038 374.895 279.663L376.682 279.046C377.169 280.453 377.632 281.922 378.054 283.406L376.236 283.924ZM373.59 276.181C373.033 274.791 372.427 273.42 371.796 272.1L373.499 271.285C374.15 272.64 374.77 274.05 375.341 275.474L373.59 276.181ZM370.104 268.799C369.39 267.5 368.624 266.212 367.834 264.972L369.425 263.952C370.243 265.227 371.03 266.55 371.762 267.89L370.104 268.799ZM365.741 261.905C364.877 260.714 363.958 259.53 363.008 258.388L364.46 257.18C365.435 258.353 366.382 259.569 367.273 260.798L365.741 261.905Z" fill="#A295C7"/>
<path d="M360.368 255.404C359.863 254.865 359.341 254.325 358.812 253.796L360.149 252.459C360.692 253.002 361.228 253.555 361.747 254.109L360.368 255.404Z" fill="#A295C7"/>
<path d="M1.88729 413.437L0 413.343C0.00348209 413.274 0.0905342 411.595 0.581508 408.709L2.44442 409.026C1.97434 411.79 1.88729 413.423 1.88729 413.437ZM3.17566 405.366L1.33364 404.948C1.66444 403.482 2.05095 401.985 2.47576 400.498L4.29341 401.021C3.87556 402.473 3.4995 403.935 3.17566 405.366ZM5.4042 397.445L3.61441 396.842C4.09842 395.404 4.62769 393.952 5.18831 392.535L6.94676 393.228C6.39311 394.621 5.87776 396.038 5.4042 397.445ZM8.38835 389.778L6.66123 389.012C7.27756 387.622 7.93916 386.23 8.62513 384.872L10.3105 385.725C9.6419 387.051 8.99423 388.416 8.38835 389.778ZM12.0689 382.417L10.4184 381.494C11.1601 380.168 11.9436 378.841 12.7514 377.549L14.3532 378.552C13.5662 379.819 12.7967 381.118 12.0689 382.417ZM16.4006 375.425L14.8407 374.36C15.6972 373.106 16.5956 371.856 17.5149 370.645L19.0226 371.783C18.1243 372.971 17.2398 374.196 16.4006 375.425ZM21.3417 368.848L19.8827 367.647C20.8438 366.48 21.8501 365.314 22.8738 364.182L24.2736 365.45C23.2708 366.557 22.2819 367.702 21.3417 368.848ZM26.8364 362.727L25.4854 361.404C26.5405 360.324 27.6443 359.248 28.7586 358.207L30.0469 359.59C28.9535 360.61 27.8741 361.665 26.8364 362.727ZM32.8326 357.09L31.5965 355.662C32.7386 354.673 33.926 353.691 35.1203 352.748L36.2938 354.231C35.1203 355.157 33.9573 356.118 32.8326 357.09ZM39.271 351.957L38.1532 350.436C39.365 349.544 40.622 348.66 41.8895 347.807L42.9446 349.374C41.698 350.213 40.4618 351.083 39.271 351.957ZM46.0854 347.333L45.0826 345.732C46.357 344.934 47.6767 344.144 48.9999 343.385L49.9401 345.025C48.6378 345.773 47.3424 346.55 46.0854 347.333ZM53.2237 343.211L52.3358 341.543C53.6624 340.836 55.0309 340.136 56.4028 339.468L57.2316 341.167C55.8805 341.828 54.5295 342.514 53.2237 343.211ZM60.6231 339.572L59.8431 337.852C60.8146 337.413 61.8105 336.975 62.7994 336.557C63.2034 336.386 63.6073 336.212 64.0042 336.035L64.7703 337.762C64.3629 337.943 63.952 338.12 63.5376 338.294C62.5661 338.709 61.5842 339.14 60.6231 339.572ZM68.2315 336.125L67.3784 334.44C68.7259 333.757 70.0457 333.037 71.3027 332.295L72.2637 333.921C70.9719 334.684 69.6174 335.425 68.2315 336.125ZM75.5056 331.87L74.447 330.303C75.6936 329.461 76.9019 328.573 78.037 327.664L79.2175 329.14C78.044 330.081 76.7939 331 75.5056 331.87ZM82.132 326.633L80.8471 325.248C81.9439 324.231 82.9886 323.162 83.9566 322.076L85.3668 323.333C84.3605 324.464 83.2706 325.575 82.132 326.633ZM87.8078 320.345L86.2931 319.214C87.181 318.023 88.0062 316.783 88.7445 315.526L90.3741 316.484C89.5976 317.8 88.734 319.099 87.8078 320.345ZM92.1743 313.065L90.4611 312.264C91.0844 310.927 91.6346 309.544 92.0942 308.155L93.8875 308.747C93.407 310.209 92.8324 311.661 92.1743 313.065ZM94.9251 305.021L93.0831 304.607C93.4035 303.176 93.6472 301.707 93.797 300.244L95.6773 300.439C95.5171 301.978 95.2629 303.517 94.9251 305.021ZM71.4037 299.92C70.8848 299.92 70.359 299.91 69.8402 299.892L69.9064 298.005C71.3723 298.058 72.8627 298.033 74.346 297.932L74.4714 299.819C73.4476 299.886 72.4169 299.92 71.4037 299.92ZM65.9925 299.586C64.4256 299.391 62.8865 299.106 61.424 298.737L61.8836 296.905C63.273 297.253 64.7355 297.525 66.2293 297.713L65.9925 299.586ZM78.3017 299.415L78.0301 297.546C79.4821 297.333 80.9515 297.051 82.4001 296.707L82.8388 298.545C81.3381 298.904 79.8094 299.196 78.3017 299.415ZM57.7121 297.584C56.2009 297.013 54.7732 296.337 53.4744 295.578L54.4285 293.945C55.6368 294.652 56.9669 295.279 58.3807 295.815L57.7121 297.584ZM86.5438 297.511L85.9692 295.711C87.3725 295.265 88.7793 294.75 90.1512 294.179L90.8755 295.923C89.4548 296.515 87.9993 297.048 86.5438 297.511ZM95.8897 296.578L93.9989 296.567V296.313C93.9989 295.331 93.9606 294.339 93.884 293.35L93.5254 292.636C93.6194 292.587 93.7134 292.542 93.8074 292.493C93.797 292.379 93.783 292.264 93.7726 292.149L94.6501 292.055C95.5868 291.557 96.513 291.028 97.4183 290.477L98.4038 292.09C97.5507 292.612 96.6766 293.113 95.7957 293.587C95.8584 294.499 95.8897 295.411 95.8897 296.317V296.578ZM50.2535 293.312C48.9895 292.239 47.9065 291.055 47.036 289.792L48.5925 288.719C49.369 289.844 50.337 290.906 51.4757 291.87L50.2535 293.312ZM101.618 289.973L100.524 288.43C101.729 287.577 102.917 286.661 104.055 285.711L105.267 287.163C104.09 288.145 102.861 289.092 101.618 289.973ZM93.2085 288.5C92.916 287.058 92.5364 285.617 92.0838 284.217L93.8805 283.636C94.3541 285.101 94.751 286.613 95.0575 288.12L93.2085 288.5ZM45.2079 286.219C44.6752 284.701 44.4036 283.103 44.3931 281.466L46.2839 281.456C46.2909 282.883 46.5276 284.273 46.9908 285.592L45.2079 286.219ZM108.133 284.607L106.83 283.239C107.896 282.225 108.944 281.149 109.943 280.042L111.347 281.31C110.312 282.452 109.233 283.562 108.133 284.607ZM90.785 280.763C90.2034 279.405 89.5384 278.071 88.8106 276.801L90.4507 275.864C91.2133 277.197 91.9097 278.594 92.519 280.018L90.785 280.763ZM113.829 278.388L112.353 277.208C113.272 276.059 114.167 274.854 115.02 273.625L116.573 274.701C115.699 275.965 114.777 277.208 113.829 278.388ZM46.7087 277.939L44.8702 277.497C45.2219 276.038 45.772 274.544 46.5102 273.054L48.2025 273.893C47.5305 275.258 47.0256 276.619 46.7087 277.939ZM86.8293 273.695C85.9658 272.483 85.0325 271.33 84.0506 270.265L85.4399 268.984C86.4741 270.105 87.4596 271.32 88.3684 272.598L86.8293 273.695ZM118.666 271.491L117.054 270.502C117.82 269.252 118.569 267.943 119.272 266.616L120.94 267.5C120.219 268.865 119.456 270.206 118.666 271.491ZM50.048 270.752L48.4846 269.691C49.3098 268.475 50.2709 267.243 51.3434 266.024L52.7641 267.271C51.7438 268.427 50.8315 269.6 50.048 270.752ZM81.4147 267.72C80.283 266.748 79.0956 265.874 77.8838 265.122L78.8797 263.517C80.175 264.318 81.4425 265.251 82.6473 266.285L81.4147 267.72ZM55.2572 264.858L54.2822 263.239C55.6577 262.41 57.0818 261.717 58.513 261.181L59.1746 262.95C57.8514 263.447 56.5317 264.088 55.2572 264.858ZM122.65 264.095L120.947 263.273C121.612 261.902 122.287 260.53 122.956 259.196L124.645 260.046C123.983 261.365 123.308 262.73 122.65 264.095ZM74.6629 263.434C73.3084 262.849 71.919 262.399 70.5331 262.1L70.9301 260.251C72.4378 260.575 73.9456 261.062 75.415 261.7L74.6629 263.434ZM62.6497 261.978L62.3015 260.122C63.6247 259.875 64.9862 259.75 66.3163 259.753C66.5496 259.753 66.7864 259.757 67.0232 259.767L66.957 261.654C66.7342 261.647 66.5079 261.644 66.2885 261.644C65.0732 261.64 63.8475 261.755 62.6497 261.978ZM126.361 256.689L124.687 255.819C125.397 254.454 126.114 253.103 126.821 251.801L128.482 252.702C127.779 253.994 127.065 255.335 126.361 256.689ZM130.303 249.412L128.66 248.482C129.415 247.145 130.185 245.819 130.944 244.544L132.567 245.509C131.814 246.773 131.052 248.085 130.303 249.412ZM134.52 242.302L132.915 241.303C133.733 239.986 134.562 238.698 135.38 237.469L136.954 238.514C136.15 239.725 135.331 241 134.52 242.302ZM139.068 235.411L137.522 234.325C138.416 233.05 139.318 231.811 140.21 230.634L141.717 231.776C140.84 232.936 139.949 234.158 139.068 235.411ZM144.03 228.834L142.564 227.64C143.556 226.424 144.559 225.255 145.544 224.165L146.948 225.432C145.983 226.498 145.001 227.643 144.03 228.834ZM149.514 222.734L148.18 221.397C149.305 220.272 150.444 219.22 151.554 218.27L152.783 219.704C151.704 220.624 150.604 221.644 149.514 222.734ZM155.684 217.413L154.58 215.881C155.907 214.924 157.234 214.092 158.518 213.402L159.41 215.07C158.195 215.718 156.941 216.508 155.684 217.413ZM162.718 213.608L162.105 211.821C164.229 211.09 165.852 210.93 166.837 210.923L166.851 212.814C166.002 212.817 164.598 212.96 162.718 213.608Z" fill="#A295C7"/>
<path d="M58.109 519.437C58.109 520.147 58.0429 520.721 57.9628 520.721H33.6926C33.6125 520.721 33.5464 520.147 33.5464 519.437C33.5464 518.726 33.6125 518.152 33.6926 518.152H57.9663C58.0463 518.152 58.109 518.726 58.109 519.437Z" fill="#A295C7"/>
<path d="M442.493 519.712C442.493 520.422 442.427 520.997 442.347 520.997H418.073C417.993 520.997 417.927 520.422 417.927 519.712C417.927 519.001 417.993 518.427 418.073 518.427H442.347C442.43 518.427 442.493 519.005 442.493 519.712Z" fill="#A295C7"/>
</g>
<defs>
<clipPath id="clip0_3_2235">
<rect width="467" height="521" fill="white"/>
</clipPath>
</defs>
</svg>
