<svg width="519" height="359" viewBox="0 0 519 359" fill="none" xmlns="http://www.w3.org/2000/svg">
<g clip-path="url(#clip0_3_552)">
<path d="M405.184 313.78C397.543 307.377 393.624 301.451 392.917 300.328L419.795 283.319C419.795 283.319 419.757 283.256 419.68 283.141C419.702 283.174 421.94 286.473 426.416 290.032C432.13 294.573 438.771 297.473 446.157 298.651C455.557 300.152 465.258 297.01 471.738 294.113C478.963 290.884 483.808 287.262 483.853 287.227L507.686 291.841L503.205 312.493C493.893 319.651 479.089 326.725 465.371 329.454C442.612 333.98 420.876 326.928 405.184 313.78Z" fill="#B75742"/>
<path d="M444.077 89.706L450.386 86.4315L456.656 89.7788C457.371 90.1608 458.211 89.5552 458.078 88.756L456.917 81.7346L462.034 76.7964C462.616 76.2335 462.303 75.2458 461.502 75.1252L454.478 74.0597L451.37 67.6589C451.016 66.9302 449.98 66.9251 449.619 67.6489L446.438 74.0144L439.401 74.9971C438.598 75.1101 438.274 76.0927 438.849 76.6632L443.909 81.6617L442.667 88.6706C442.527 89.4647 443.359 90.0779 444.077 89.706Z" fill="#86B1F2"/>
<path d="M430.848 218.286H120.454V250.833H430.848V218.286Z" fill="#F47257"/>
<path d="M348.289 333.485C278.293 296.412 202.268 273.591 124.214 266.228C127.107 232.302 129.997 198.376 132.89 164.449C223.136 172.964 311.039 199.348 391.968 242.213C377.407 272.636 362.847 303.059 348.289 333.485Z" fill="#3C8F7C"/>
<path d="M131.093 247.619C133.065 226.459 135.034 205.301 137.006 184.144C145.21 184.986 152.558 179.683 153.451 172.084C228.688 181.551 302.015 203.56 370.674 237.285C367.621 244.236 371.203 252.821 378.594 256.658C369.655 275.725 360.717 294.794 351.778 313.86C344.977 310.33 336.929 313.25 333.879 320.196C273.586 290.579 209.195 271.254 143.123 262.941C144.013 255.341 138.642 248.395 131.093 247.619Z" fill="#96D9C9"/>
<path d="M292.613 251.109C286.303 269.309 266.848 278.582 248.8 273.026C230.765 267.427 219.177 248.554 223.231 229.658C227.275 210.795 247.295 199.489 267.588 205.776C287.889 212.041 298.915 232.943 292.613 251.109Z" fill="#50BFA5"/>
<path d="M248.65 266.618C249.154 264.587 249.658 262.554 250.163 260.523C247.446 259.639 244.869 258.392 242.807 257.073C241.088 255.972 240.461 253.743 241.392 251.966C241.43 251.896 241.467 251.823 241.505 251.753C242.529 249.795 245.047 249.169 246.946 250.423C248.881 251.7 251.156 252.841 253.69 253.55C257.375 254.582 260.258 253.917 260.925 251.358C261.555 248.931 259.876 246.774 255.416 243.812C248.968 239.544 244.852 235.094 246.274 228.834C247.558 223.164 252.782 219.772 260.393 220.438C260.892 218.405 261.389 216.372 261.886 214.338C264.124 214.959 266.359 215.592 268.592 216.236C268.112 218.116 267.636 219.993 267.157 221.873C269.595 222.689 271.537 223.599 273.112 224.531C275.042 225.672 275.719 228.05 274.665 229.841C273.574 231.694 271.07 232.226 269.129 231.015C267.671 230.108 265.814 229.183 263.444 228.507C259.076 227.263 257.222 228.685 256.786 230.482C256.266 232.606 258.288 234.581 263.394 238.255C270.581 243.239 272.731 247.747 271.153 253.467C269.58 259.139 264.214 262.697 256.547 261.855C255.985 264.032 255.423 266.205 254.861 268.382C252.794 267.779 250.722 267.193 248.65 266.618Z" fill="#3C8F7C"/>
<path d="M212.544 228.952C194.705 224.828 176.692 221.468 158.554 218.887C158.973 215.625 159.392 212.363 159.813 209.101C178.207 211.72 196.471 215.125 214.561 219.307C213.889 222.521 213.217 225.738 212.544 228.952Z" fill="#50BFA5"/>
<path d="M351.653 278.431C335.05 270.299 318.159 262.893 301.019 256.231C302.103 253.142 303.189 250.056 304.273 246.968C321.651 253.723 338.781 261.232 355.614 269.477C354.295 272.463 352.972 275.448 351.653 278.431Z" fill="#50BFA5"/>
<path d="M380.992 217.037C308.774 232.151 240.007 262.438 178.31 306.306C161.64 277.492 144.969 248.677 128.299 219.862C199.634 169.141 279.146 134.122 362.646 116.648C368.762 150.11 374.879 183.574 380.992 217.037Z" fill="#3C8F7C"/>
<path d="M173.074 287.127C162.801 269.05 152.528 250.971 142.255 232.895C148.777 228.339 151.261 219.442 147.709 212.831C208.493 172.428 274.821 143.216 344.195 126.291C345.795 133.762 353.196 138.306 360.777 136.65C364.749 157.503 368.717 178.357 372.689 199.21C365.712 200.735 361.389 208.184 362.987 215.65C302.066 230.512 243.82 256.166 190.442 291.645C186.892 285.038 179.078 282.935 173.074 287.127Z" fill="#96D9C9"/>
<path d="M294.236 187.014C299.667 205.503 290.443 225.268 274.043 232.347C257.626 239.384 238.612 231.764 231.131 214.155C223.66 196.581 232.173 174.841 250.637 166.912C269.096 158.961 288.82 168.556 294.236 187.014Z" fill="#50BFA5"/>
<path d="M270.383 227.348C269.63 225.411 268.875 223.476 268.12 221.541C265.621 222.569 263.03 223.217 260.777 223.483C258.898 223.705 257.199 222.33 256.901 220.325C256.888 220.244 256.876 220.164 256.866 220.083C256.537 217.877 258.047 215.773 260.145 215.56C262.279 215.341 264.593 214.801 266.855 213.75C270.149 212.222 271.908 209.858 270.982 207.397C270.102 205.068 267.668 204.422 262.734 204.907C255.609 205.623 250.105 204.706 247.681 198.823C245.486 193.498 247.463 187.471 253.449 183.154C252.689 181.221 251.929 179.286 251.168 177.354C253.165 176.421 255.165 175.502 257.172 174.592C257.859 176.391 258.549 178.188 259.236 179.987C261.489 179.083 263.426 178.57 265.107 178.306C267.161 177.985 268.98 179.442 269.196 181.538C269.417 183.707 267.864 185.722 265.762 185.999C264.184 186.205 262.3 186.652 260.175 187.625C256.261 189.419 255.682 191.731 256.354 193.435C257.147 195.455 259.736 195.737 265.538 195.405C273.606 194.787 277.693 197.003 279.698 202.557C281.679 208.068 279.693 214.316 273.566 218.53C274.359 220.619 275.149 222.704 275.94 224.793C274.083 225.632 272.229 226.484 270.383 227.348Z" fill="#3C8F7C"/>
<path d="M222.852 220.402C207.396 228.487 192.239 237.29 177.419 246.795C175.922 243.935 174.422 241.072 172.924 238.212C187.951 228.577 203.322 219.651 218.994 211.451C220.279 214.434 221.566 217.417 222.852 220.402Z" fill="#50BFA5"/>
<path d="M352.962 171.126C336.199 175.235 319.627 180.111 303.282 185.732C302.372 182.586 301.461 179.442 300.55 176.296C317.123 170.596 333.929 165.653 350.925 161.486C351.605 164.698 352.285 167.912 352.962 171.126Z" fill="#50BFA5"/>
<path d="M392.518 280.276C317.414 275.717 242.197 286.76 170.837 312.823C161.012 280.507 151.186 248.192 141.362 215.876C223.874 185.742 310.836 172.974 397.676 178.246C395.955 212.255 394.236 246.264 392.518 280.276Z" fill="#3C8F7C"/>
<path d="M170.104 292.871C164.123 272.646 158.142 252.424 152.162 232.199C159.685 229.522 164.219 221.573 162.234 214.23C231.886 191.279 304.431 180.628 377.139 182.679C376.986 190.336 383.268 196.697 391.17 197.109C390.257 218.344 389.344 239.582 388.431 260.817C381.158 260.44 375.142 266.499 374.992 274.149C311.142 272.347 247.438 281.701 186.273 301.856C184.288 294.52 177.028 290.409 170.104 292.871Z" fill="#96D9C9"/>
<path d="M313.495 228.17C314.581 247.506 300.841 264.185 282.936 266.678C265.027 269.126 247.947 256.698 244.628 237.672C241.309 218.678 254.801 199.901 274.949 197.134C295.094 194.342 312.416 208.868 313.495 228.17Z" fill="#50BFA5"/>
<path d="M280.468 260.868C280.172 258.794 279.873 256.718 279.577 254.645C276.863 254.977 274.143 254.917 271.848 254.575C269.934 254.288 268.569 252.507 268.74 250.489C268.747 250.408 268.752 250.325 268.76 250.245C268.948 248.021 270.932 246.387 273.062 246.737C275.23 247.094 277.648 247.184 280.134 246.769C283.754 246.166 286.047 244.344 285.701 241.718C285.37 239.228 283.107 237.959 278.102 237.117C270.872 235.915 265.629 233.566 264.595 227.23C263.657 221.493 267.019 216.188 273.958 213.599C273.654 211.526 273.351 209.453 273.047 207.38C275.242 207.008 277.44 206.648 279.64 206.302C279.903 208.224 280.167 210.149 280.433 212.072C282.876 211.795 284.916 211.813 286.642 212.004C288.754 212.237 290.219 214.132 289.943 216.218C289.66 218.374 287.65 219.915 285.5 219.621C283.887 219.4 281.918 219.334 279.585 219.711C275.287 220.407 274.176 222.491 274.447 224.32C274.763 226.486 277.262 227.446 283.095 228.665C291.235 230.211 294.773 233.44 295.468 239.348C296.15 245.209 292.728 250.727 285.674 253.178C285.972 255.409 286.273 257.638 286.572 259.87C284.537 260.189 282.5 260.523 280.468 260.868Z" fill="#3C8F7C"/>
<path d="M234.965 241.517C217.762 245.236 200.69 249.73 183.789 254.987C182.969 251.821 182.148 248.654 181.328 245.488C198.465 240.155 215.778 235.599 233.221 231.829C233.803 235.059 234.385 238.288 234.965 241.517Z" fill="#50BFA5"/>
<path d="M375.405 228.396C357.832 227.921 340.268 228.236 322.76 229.331C322.589 226.044 322.416 222.76 322.246 219.473C340 218.359 357.807 218.04 375.629 218.523C375.553 221.815 375.481 225.104 375.405 228.396Z" fill="#50BFA5"/>
<path d="M430.848 218.286H120.454V355.13H430.848V218.286Z" fill="#F47257"/>
<path d="M430.848 320.193H354.041C350.637 320.193 347.875 323.088 347.875 326.662C347.875 330.233 350.634 333.131 354.041 333.131H344.082C340.677 333.131 337.915 336.026 337.915 339.599C337.915 343.17 340.675 346.068 344.082 346.068H345.808C342.401 346.068 339.641 348.963 339.641 352.536C339.641 353.461 339.827 354.338 340.16 355.132H430.848V320.193Z" fill="#B75742"/>
<path d="M414.451 225.024H131.891V235.652H414.451V225.024Z" fill="#B75742"/>
<path d="M254.977 353.431H127.466C121.706 353.431 117.037 348.754 117.037 342.984V278.891C117.037 273.121 121.706 268.444 127.466 268.444H254.977C260.737 268.444 265.405 273.121 265.405 278.891V342.984C265.405 348.754 260.737 353.431 254.977 353.431Z" fill="#3C8F7C"/>
<path d="M163.112 285.345H126.575V306.623H163.112V285.345Z" fill="#F7CC7F"/>
<path d="M256.013 279.954H191.22V283.927H256.013V279.954Z" fill="#F7CC7F"/>
<path d="M251.196 325.35H131.956V330.258H251.196V325.35Z" fill="#F7CC7F"/>
<path d="M251.196 336.905H131.956V341.813H251.196V336.905Z" fill="#F7CC7F"/>
<path d="M267.229 253.225H135.481V256.754H267.229V253.225Z" fill="#B75742"/>
<path d="M342.639 230.44C358.844 230.44 371.981 217.28 371.981 201.047C371.981 184.814 358.844 171.654 342.639 171.654C326.434 171.654 313.297 184.814 313.297 201.047C313.297 217.28 326.434 230.44 342.639 230.44Z" fill="#FAE0B2"/>
<path d="M362.792 186.878C370.604 198.029 367.912 213.409 356.783 221.234C345.652 229.06 330.299 226.363 322.487 215.215C314.674 204.065 317.366 188.685 328.495 180.859C339.626 173.034 354.98 175.73 362.792 186.878Z" fill="#F7CC7F"/>
<path d="M345.481 218.397L344.408 214.421C342.594 214.826 340.742 214.964 339.167 214.884C337.85 214.816 336.814 213.735 336.796 212.413L336.794 212.255C336.774 210.8 337.993 209.626 339.443 209.722C340.921 209.82 342.551 209.719 344.184 209.277C346.565 208.631 347.945 207.269 347.493 205.598C347.064 204.007 345.456 203.366 342.082 203.158C337.208 202.864 333.593 201.597 332.496 197.539C331.503 193.857 333.312 190.268 337.544 188.18L336.47 184.204L340.564 183.096L341.558 186.778C343.096 186.433 344.398 186.3 345.517 186.295C346.884 186.29 347.998 187.398 348.015 188.768C348.033 190.185 346.876 191.339 345.464 191.306C344.403 191.281 343.128 191.379 341.653 191.779C338.939 192.515 338.377 193.922 338.695 195.096C339.069 196.476 340.768 196.958 344.679 197.335C350.123 197.745 352.749 199.504 353.765 203.268C354.771 206.993 352.998 210.885 348.422 213.022L349.573 217.289L345.481 218.397Z" fill="white"/>
<path d="M391.064 315.899C402.523 304.421 402.523 285.811 391.064 274.332C379.606 262.854 361.027 262.854 349.569 274.332C338.11 285.811 338.11 304.421 349.569 315.899C361.027 327.378 379.606 327.378 391.064 315.899Z" fill="#FAE0B2"/>
<path d="M390.473 280.947C398.285 292.097 395.593 307.477 384.464 315.303C373.333 323.129 357.98 320.432 350.168 309.284C342.356 298.134 345.047 282.754 356.176 274.928C367.305 267.103 382.661 269.797 390.473 280.947Z" fill="#F7CC7F"/>
<path d="M373.163 312.463L372.089 308.488C370.275 308.892 368.424 309.03 366.848 308.95C365.531 308.882 364.495 307.802 364.478 306.48L364.475 306.321C364.457 304.866 365.677 303.693 367.124 303.788C368.602 303.886 370.23 303.786 371.866 303.343C374.246 302.697 375.626 301.335 375.175 299.664C374.746 298.073 373.138 297.433 369.766 297.224C364.889 296.928 361.276 295.663 360.18 291.605C359.187 287.923 360.995 284.335 365.228 282.246L364.154 278.271L368.248 277.162L369.242 280.844C370.779 280.5 372.081 280.366 373.2 280.361C374.568 280.356 375.681 281.465 375.699 282.834C375.717 284.252 374.56 285.403 373.148 285.372C372.086 285.347 370.812 285.445 369.337 285.845C366.622 286.581 366.061 287.989 366.377 289.16C366.75 290.539 368.449 291.024 372.36 291.401C377.804 291.811 380.43 293.57 381.446 297.335C382.452 301.059 380.679 304.952 376.103 307.088L377.254 311.355L373.163 312.463Z" fill="white"/>
<path d="M313.807 287.704C330.01 287.433 342.927 274.055 342.656 257.823C342.385 241.592 329.03 228.653 312.827 228.925C296.623 229.196 283.707 242.574 283.978 258.805C284.248 275.037 297.603 287.975 313.807 287.704Z" fill="#FAE0B2"/>
<path d="M323.3 280.859C335.721 275.318 341.307 260.739 335.775 248.296C330.244 235.853 315.69 230.258 303.268 235.799C290.847 241.34 285.262 255.919 290.793 268.362C296.325 280.805 310.878 286.4 323.3 280.859Z" fill="#F7CC7F"/>
<path d="M305.673 274.154L307.073 270.284C305.354 269.573 303.761 268.62 302.517 267.645C301.478 266.831 301.25 265.351 301.993 264.258L302.083 264.127C302.901 262.926 304.574 262.664 305.705 263.577C306.859 264.507 308.249 265.363 309.842 265.941C312.16 266.783 314.072 266.464 314.662 264.833C315.221 263.285 314.275 261.835 311.634 259.722C307.813 256.673 305.58 253.557 307.01 249.607C308.307 246.02 311.847 244.126 316.508 244.852L317.908 240.982L321.894 242.429L320.597 246.015C322.052 246.619 323.196 247.259 324.114 247.9C325.236 248.684 325.512 250.232 324.742 251.363C323.944 252.534 322.336 252.811 321.197 251.971C320.344 251.341 319.243 250.687 317.808 250.167C315.163 249.207 313.896 250.036 313.482 251.177C312.996 252.522 314.11 253.894 317.095 256.455C321.315 259.925 322.456 262.873 321.129 266.542C319.817 270.168 316.132 272.335 311.159 271.45L309.654 275.607L305.673 274.154Z" fill="white"/>
<path d="M414.451 275.267H281.562V346.611H414.451V275.267Z" fill="#F48C7F"/>
<path d="M347.875 326.659C347.875 330.23 350.634 333.128 354.041 333.128H344.082C340.677 333.128 337.915 336.023 337.915 339.597C337.915 343.168 340.675 346.065 344.082 346.065H345.808C344.927 346.065 344.089 346.261 343.329 346.611H414.449V320.193H354.041C350.637 320.193 347.875 323.088 347.875 326.659Z" fill="#B75742"/>
<path d="M11.8162 353.044C11.8162 354.197 12.6817 355.13 13.7479 355.13H495.543C496.61 355.13 497.475 354.197 497.475 353.044C497.475 351.893 496.61 350.958 495.543 350.958H13.7479C12.6817 350.958 11.8162 351.89 11.8162 353.044Z" fill="#13375B"/>
<path d="M431.629 359H352.31C349.127 359 346.548 356.414 346.548 353.227C346.548 350.038 349.127 347.455 352.31 347.455H431.629C434.812 347.455 437.391 350.038 437.391 353.227C437.389 356.417 434.81 359 431.629 359Z" fill="#F7CC7F"/>
<path d="M430.016 347.455H350.7C347.516 347.455 344.937 344.871 344.937 341.682C344.937 338.493 347.516 335.91 350.7 335.91H430.016C433.199 335.91 435.778 338.493 435.778 341.682C435.778 344.871 433.197 347.455 430.016 347.455Z" fill="#FAE0B2"/>
<path d="M439.323 335.91H360.005C356.821 335.91 354.242 333.327 354.242 330.137C354.242 326.948 356.821 324.365 360.005 324.365H439.323C442.507 324.365 445.086 326.948 445.086 330.137C445.086 333.327 442.504 335.91 439.323 335.91Z" fill="#F7CC7F"/>
<path d="M338.437 85.9465L339.448 92.787L328.643 95.6293L328.886 105.81L321.147 109.26L322.891 113.185L333.242 108.569L333.011 98.9214L344.252 95.9635L342.732 85.6725L338.437 85.9465Z" fill="#466EB6"/>
<path d="M236.252 64.2964L238.334 59.1195C236.041 58.0716 233.929 56.707 232.288 55.3274C230.918 54.1764 230.68 52.1559 231.738 50.7134L231.866 50.54C233.033 48.9492 235.308 48.6803 236.799 49.9695C238.316 51.2838 240.16 52.5102 242.29 53.3697C245.391 54.6212 247.995 54.2794 248.871 52.1006C249.703 50.0298 248.489 48.0194 245.012 45.0339C239.982 40.724 237.107 36.3965 239.232 31.1115C241.161 26.3166 246.046 23.9192 252.325 25.1229L254.407 19.946L259.738 22.0972L257.809 26.8921C259.751 27.7792 261.271 28.7015 262.483 29.6138C263.966 30.7296 264.264 32.838 263.165 34.3333C262.029 35.8813 259.839 36.1804 258.336 34.9867C257.21 34.092 255.749 33.1547 253.83 32.3781C250.296 30.9507 248.539 32.0162 247.925 33.5417C247.202 35.3385 248.645 37.2535 252.566 40.8622C258.118 45.7627 259.523 49.8137 257.551 54.7192C255.599 59.5694 250.506 62.3262 243.813 60.8913L241.578 66.4501L236.252 64.2964Z" fill="#96D9C9"/>
<path d="M246.103 119.533C246.648 120.415 246.492 121.561 245.732 122.265C244.239 123.647 241.863 125.263 238.971 126.349C234.739 127.94 230.04 128.093 225.805 126.168C223.158 124.964 220.737 122.795 219.029 119.993L216.528 120.933C215.677 121.252 214.729 120.823 214.41 119.971L214.385 119.905C214.067 119.053 214.496 118.103 215.346 117.784L217.398 117.013C217.07 116.329 216.836 115.905 216.691 115.52C216.45 114.877 216.224 114.083 216.041 113.198L213.924 113.995C213.073 114.314 212.125 113.884 211.806 113.032C211.488 112.18 211.917 111.23 212.767 110.911L215.334 109.946C214.932 106.727 215.356 103.56 216.558 100.912C218.6 96.4057 222.448 93.1991 226.874 91.5354C229.453 90.5654 231.575 90.2789 233.291 90.2613C234.485 90.2488 235.474 91.1836 235.529 92.3773L235.531 92.415C235.589 93.6539 234.626 94.6893 233.389 94.7396C231.984 94.7949 230.323 95.0763 228.399 95.8001C225.577 96.8606 223.093 98.8208 221.666 101.849C220.863 103.616 220.489 105.737 220.913 107.848L235.343 102.422C236.194 102.103 237.142 102.533 237.461 103.385C237.779 104.236 237.35 105.186 236.5 105.506L221.43 111.172C221.631 111.904 221.831 112.635 221.999 113.085C222.215 113.663 222.433 114.241 222.785 114.987L237.887 109.308C238.755 108.981 239.724 109.421 240.047 110.29C240.373 111.16 239.934 112.13 239.066 112.454L224.603 117.892C225.75 119.586 227.25 120.855 228.838 121.577C231.989 122.956 234.892 122.891 238.098 121.687C240.052 120.953 241.678 119.943 242.915 118.968C243.933 118.169 245.421 118.43 246.103 119.533Z" fill="#86B1F2"/>
<path d="M206.706 68.0083L200.156 68.6743L197.921 58.2325L188.222 58.0239L185.274 50.4848L181.464 51.9775L185.405 62.0624L194.597 62.2609L196.922 73.1249L206.782 72.1222L206.706 68.0083Z" fill="#50BFA5"/>
<path d="M282.422 60.2002L289.432 62.5172C289.432 62.5172 300.545 58.9085 301.639 56.6417C302.733 54.3724 303.041 48.8663 304.624 48.718C306.205 48.5673 309.263 49.0824 309.991 52.852C310.52 55.5862 306.521 63.4923 307.146 64.3342C307.537 64.8619 311.526 66.3069 314.459 67.3172C316.388 67.9806 317.778 69.6819 318.074 71.7326V71.7376C318.274 73.1248 317.489 74.4743 316.195 74.9744L314.178 75.7535L314.82 77.8393C315.299 79.3924 314.449 81.061 312.918 81.5762L311.358 82.0989L311.857 83.3705C312.499 85.0065 311.594 86.8637 309.915 87.3512L308.553 87.7483L308.608 88.1127C308.842 89.6306 307.893 91.0932 306.421 91.4777L305.066 91.8345L286.399 85.6625C284.65 85.0844 283.039 84.1471 281.667 82.9107L275.468 79.6336C274.801 79.2818 274.495 78.4827 274.746 77.7589L280.493 61.1803C280.777 60.3736 281.632 59.9388 282.422 60.2002Z" fill="#FAE0B2"/>
<path d="M171.539 134.474L173.024 127.105L179.926 124.152C180.711 123.816 180.771 122.723 180.026 122.303L173.488 118.611L172.818 111.125C172.743 110.273 171.722 109.878 171.092 110.456L165.568 115.543L158.253 113.869C157.42 113.678 156.73 114.527 157.086 115.306L160.209 122.142L156.359 128.593C155.92 129.327 156.514 130.247 157.362 130.149L164.816 129.287L169.753 134.949C170.315 135.594 171.371 135.313 171.539 134.474Z" fill="#F7CC7F"/>
<path d="M81.486 315.464C81.486 315.464 72.289 322.106 70.8389 324.089C68.7517 326.944 86.4206 332.281 84.4939 328.939C84.0499 328.17 82.778 325.584 82.7228 325.33C82.4267 323.968 86.1748 320.304 86.1748 320.304L81.486 315.464Z" fill="#F7A491"/>
<path d="M89.2729 334.525L83.0262 325.684C83.0262 325.684 79.1276 324.777 75.1237 320.266C75.1237 320.266 71.5262 321.641 69.3135 324.624C69.3135 324.624 73.4955 329.137 79.9379 334.219C79.9379 334.219 83.7562 337.606 89.0345 339.393C94.3129 341.177 89.2729 334.525 89.2729 334.525Z" fill="#F7CC7F"/>
<path d="M4.61848 194.397C4.61848 194.397 5.74991 195.398 6.1488 195.704C6.61793 196.061 8.10059 197.029 8.10059 197.029C8.10059 197.029 13.4693 200.087 13.6499 199.685C13.833 199.283 13.823 198.122 13.5596 197.815C13.2937 197.511 12.521 197.194 12.255 196.89C11.9891 196.586 11.8988 195.968 12.24 195.629C12.5812 195.287 14.4151 196.292 14.4151 196.292C14.4151 196.292 15.9002 197.119 16.5224 198.119C18.6749 201.58 18.0226 201.781 18.3111 202.218C18.6523 202.733 26.181 206.158 26.181 206.158C26.181 206.158 48.6918 215.532 49.906 216.045H49.921C50.0841 217.09 49.5272 218.05 49.2412 218.975C48.7018 222.197 47.746 222.41 47.0159 225.517C43.5639 223.767 19.6608 210.576 17.2323 209.202C17.2323 209.202 13.5922 208.579 11.3168 208.114C9.04136 207.649 7.05947 206.206 6.4348 205.978C6.34197 205.945 4.3074 205.065 2.06961 203.326C0.140406 201.829 2.63157 202.394 2.63157 202.394C2.63157 202.394 6.68567 204.548 6.79104 204.206C6.87131 203.942 4.59339 202.894 2.44341 201.261C1.8915 200.841 1.3471 200.424 0.850375 200.037C-0.454162 199.021 -0.225868 197.956 1.30195 198.808C1.84132 199.109 2.7269 199.63 3.30892 200.087C3.93611 200.582 4.66865 200.841 5.2557 201.18C6.42476 201.851 7.2702 202.356 7.2702 202.293C7.2702 202.213 7.59132 202.185 7.01682 201.723C6.32692 201.165 4.60844 200.293 3.65513 199.398C3.11575 198.891 1.92411 197.893 1.92411 197.893C1.92411 197.893 0.393787 196.061 0.469048 195.94C0.872953 195.282 2.26279 196.252 2.91004 197.036C3.57234 197.333 4.7966 198.416 4.7966 198.416C4.7966 198.416 7.74937 200.067 7.97766 199.662C8.0755 199.491 6.3771 198.265 4.89695 196.812C3.52217 195.463 2.34557 193.882 2.56383 193.578C2.93513 193.055 4.61848 194.397 4.61848 194.397Z" fill="#F8A492"/>
<path d="M67.417 247.192L68.872 254.399L105.447 287.725L79.2657 314.265L86.3353 321.503C86.3353 321.503 125.002 293.06 126.395 289.333C128.54 283.593 98.6782 245.583 98.6782 245.583L67.417 247.192Z" fill="#B75742"/>
<path d="M42.0563 334.354C42.0563 334.354 34.6781 342.409 33.2281 344.392C31.1408 347.246 46.7225 351.461 44.7958 348.118C44.3517 347.349 43.0798 344.764 43.0246 344.51C42.7286 343.148 46.4766 339.484 46.4766 339.484L42.0563 334.354Z" fill="#F7A491"/>
<path d="M53.0092 347.862L42.8539 344.145C42.8539 344.145 39.0155 345.892 33.1627 344.462C33.1627 344.462 31.098 347.367 30.9675 351.079C30.9675 351.079 50.217 353.537 55.5731 352.001C60.9317 350.466 53.0092 347.862 53.0092 347.862Z" fill="#F7CC7F"/>
<path d="M68.6688 250.531L70.312 296.005L37.8591 335.865L46.6397 340.682C46.6397 340.682 82.5395 309.817 86.4807 301.22C88.9267 295.887 97.1529 247.684 97.1529 247.684L68.6688 250.531Z" fill="#F47458"/>
<path d="M98.1714 246.8C95.1961 240.075 95.5398 191.862 83.9645 180.568C79.8903 181.257 76.9852 181.644 76.3054 181.822C75.7008 186.788 75.036 205.013 74.6295 221.717C74.3586 232.845 74.6371 244.515 73.2698 250.665C72.4219 254.48 100.888 252.944 98.1714 246.8Z" fill="#FAE0B2"/>
<path d="M66.8349 184.313C63.5861 185.054 61.1928 185.577 56.9329 191.879C52.8538 197.913 43.7998 212.233 43.7998 212.233L19.9493 201.622L18.8354 213.723C18.8354 213.723 45.8168 227.773 49.6225 226.507C53.4283 225.24 64.133 209.569 64.9232 208.511C65.1089 208.262 64.0251 225.248 64.0251 227.962C64.0251 230.676 58.8521 254.306 58.8521 254.306C58.8521 254.306 71.9778 257.543 74.5392 251.665C82.394 233.644 76.3655 181.81 76.3655 181.81C76.3655 181.81 69.173 183.777 66.8349 184.313Z" fill="#466EB6"/>
<path d="M115.823 132.714C114.819 131.873 114.383 129.86 114.217 128.56L113.771 126.844C114.177 126.678 122.132 125.542 124.531 125.482C124.764 126.241 124.879 126.884 124.807 127.294C124.45 129.259 121.947 142.008 121.947 142.008L115.098 142.143C115.095 142.143 116.586 134.584 115.823 132.714Z" fill="#F7A491"/>
<path d="M86.6462 183.39C86.6462 183.39 91.3451 196.787 95.2135 194.857C99.082 192.927 120.81 170.737 121.023 169.666C121.239 168.593 122.742 141.359 122.742 141.359L114.147 139.643L109.205 161.946C109.205 161.946 93.3044 177.173 90.0832 178.673C86.862 180.173 86.6462 183.39 86.6462 183.39Z" fill="#466EB6"/>
<path d="M99.3328 250.024C101.934 250.024 102.895 249.664 104.629 249.142C104.629 249.142 99.674 221.169 96.794 193.43C95.655 182.473 94.5988 177.98 90.0881 178.774C88.7836 179.002 85.2488 180.352 83.9644 180.568C95.3038 212.71 95.3439 237.449 96.9495 244.623C97.7548 248.224 98.4573 250.046 99.3328 250.024Z" fill="#466EB6"/>
<path d="M82.7678 175.713L83.9569 180.568C83.9569 180.568 84.2279 184.795 82.2686 185.174C79.9054 185.632 76.3957 182.091 76.3957 182.091L74.3611 168.395L82.7678 175.713Z" fill="#F7A491"/>
<path d="M82.7678 175.713L83.9569 180.568C83.9569 180.568 84.2279 184.795 82.2686 185.174C79.9054 185.632 76.3957 182.091 76.3957 182.091L74.3611 168.395L82.7678 175.713Z" fill="#F7A491"/>
<path d="M74.3811 168.463L82.7678 175.715L83.6559 179.342C80.4497 178.568 75.8788 175.034 74.3811 168.463Z" fill="#F47458"/>
<path d="M82.7955 155.862C84.8226 155.855 86.6489 157.267 87.3614 159.292C87.9535 160.974 88.7086 163.464 89.1903 166.324C90.0784 171.591 87.0829 176.411 84.4789 176.796C81.8748 177.18 75.6682 175.451 74.2959 167.993C73.7089 164.794 72.9337 160.599 75.5603 158.395C77.6024 156.681 80.4649 155.87 82.7955 155.862Z" fill="#F7A491"/>
<path d="M75.1437 173.677C75.1437 173.677 65.9618 165.48 65.5604 159.074C65.159 152.671 71.0646 149.238 76.1146 149.059C78.3951 148.979 79.9379 149.082 82.2936 149.378C87.3512 150.017 90.6301 152.263 89.4761 156.415C87.9257 161.989 77.4292 157.287 75.2817 159.016C73.5106 160.443 76.3831 163.879 74.6621 165.188C73.0439 166.42 73.8693 166.002 74.4037 168.345C74.938 170.687 75.1437 173.677 75.1437 173.677Z" fill="#184655"/>
<path d="M71.604 166.249C71.8323 167.784 72.768 168.915 73.6963 168.779C74.6245 168.644 75.1915 167.287 74.9632 165.754C74.7349 164.218 73.7991 163.087 72.8709 163.223C71.9427 163.359 71.3757 164.716 71.604 166.249Z" fill="#F7A491"/>
<path d="M116.287 126.824C116.287 126.824 117.775 127.671 119.252 129.633C119.252 129.633 123.126 127.146 122.99 126.359C122.81 125.314 118.851 127.254 118.851 127.254L116.287 126.824Z" fill="#F47458"/>
<path d="M16.4295 75.3188L120.998 129.254C126.625 132.157 133.74 129.543 136.888 123.419L163.591 71.4662C166.74 65.3419 164.73 58.0239 159.103 55.1213L54.5345 1.18614C48.9074 -1.71644 41.7927 0.897138 38.6442 7.02145L11.9414 58.9713C8.7929 65.0982 10.8024 72.4162 16.4295 75.3188Z" fill="#96D9C9"/>
<path d="M20.6459 42.0414L12.5444 57.8026L137.493 122.25L145.595 106.489L20.6459 42.0414Z" fill="#355389"/>
<path d="M80.0139 22.8331L52.4773 8.60181L44.5969 23.9025L72.1335 38.1338L80.0139 22.8331Z" fill="#F7CC7F"/>
<path d="M116.259 126.741C116.076 126.248 115.72 125.56 115.895 125.291C117.009 123.584 115.808 121.73 114.997 123.18C114.526 124.022 113.703 125.879 113.773 126.841C113.823 127.54 114.531 130.204 114.531 130.204C114.531 130.204 117.29 129.533 116.259 126.741Z" fill="#F7A491"/>
<path d="M431.262 306.213C431.262 306.213 430.617 314.242 431.142 316.853C431.423 318.251 432.978 321.128 432.266 322.442C431.553 323.757 430.735 324.086 430.735 324.086L412.221 324.38C411.212 324.395 411.88 323.757 412.693 323.169C414.025 322.204 415.098 321.568 419.351 319.542C419.627 319.409 420.638 318.778 421.001 318.557C421.925 318.002 422.853 317.127 423.651 316.253C424.98 314.795 425.096 307.724 425.096 307.724L431.262 306.213Z" fill="#F7A491"/>
<path d="M416.792 199.479C416.792 199.479 408.834 195.548 410.364 204.095C411.895 212.642 423.555 308.764 423.555 308.764L434.476 309.372C434.476 309.372 435.871 277.326 435.565 272.724C435.259 268.123 433.45 261.003 433.45 261.003L432.524 232.573L422.221 197.471L416.792 199.479Z" fill="#355389"/>
<path d="M420.999 318.552C425.896 319.789 429.516 318.949 431.54 318.145C432.062 319.603 432.755 321.432 432.388 322.488C431.939 323.779 431.352 324.352 430.788 324.367C426.315 324.483 414.351 324.357 410.939 324.403C410.462 324.408 410.199 323.86 410.507 323.501C411.353 322.503 420.635 318.773 420.999 318.552Z" fill="#3C8F7C"/>
<path d="M410.364 141.711C410.364 141.711 403.636 128.741 402.592 123.981C401.549 119.219 397.934 95.2447 398.237 93.6992C398.541 92.1562 404.258 88.4394 403.553 87.1275C402.848 85.8157 397.402 85.8132 396.155 85.9238C394.908 86.0369 392.402 86.7631 391.331 87.6502C390.257 88.5374 392.537 117.269 393.217 123.454C393.897 129.641 402.256 148.69 402.256 148.69L410.364 141.711Z" fill="#F7A491"/>
<path d="M462.789 242.784C462.789 242.784 468.339 236.953 469.575 234.599C470.238 233.337 470.837 230.12 472.22 229.55C473.602 228.979 474.442 229.241 474.442 229.241L489.006 240.698C489.798 241.321 488.88 241.399 487.877 241.341C486.236 241.251 485.002 241.067 480.426 239.957C480.127 239.884 478.945 239.738 478.524 239.678C477.458 239.527 476.188 239.62 475.017 239.796C473.068 240.09 468.529 245.508 468.529 245.508L462.789 242.784Z" fill="#F7A491"/>
<path d="M478.521 239.677C475.498 235.626 472.157 233.995 470.08 233.342C470.591 231.879 471.151 229.97 472.099 229.382C473.261 228.663 474.061 228.811 474.51 229.158C478.055 231.892 487.337 239.368 490.014 241.487C490.388 241.783 490.247 242.374 489.783 242.462C488.499 242.698 478.943 239.738 478.521 239.677Z" fill="#3C8F7C"/>
<path d="M462.92 137.761C459.465 130.503 451.811 126.507 444.398 128.44C441.738 124.833 437.624 122.31 433.344 121.705C424.9 120.506 414.004 124.61 415.116 133.438C412.449 139.615 413.101 148.124 418.43 152.296C417.451 160.413 425.577 167.616 435.193 166.643C439.062 171.993 445.787 175.132 452.079 173.908C453.59 173.614 455.883 173.064 456.276 173.132C455.785 173.077 467.245 180.596 475.15 167.206C483.22 153.548 475.275 138.273 462.92 137.761Z" fill="#184655"/>
<path d="M413.588 202.575C413.588 202.575 431.435 194.626 431.716 195.533C433.954 202.753 440.916 200.424 445.047 213.14C446.779 218.465 448.555 253.886 448.555 253.886C448.555 253.886 455.592 248.036 465.649 237.813C466.422 237.029 473.981 244.231 473.981 244.231C454.019 271.249 445.406 272.659 442.075 271.146C435.12 267.99 420.45 223.818 420.472 223.823C418.716 220.382 413.588 202.575 413.588 202.575Z" fill="#466EB6"/>
<path d="M443.176 152.676C443.176 152.676 468.973 152.643 474.497 152.324C479.497 152.035 499.324 152.54 500.099 152.449C500.874 152.359 506 143.666 506.85 144.599C507.703 145.531 503.998 148.911 505.144 149.786C506.291 150.663 518.593 148.7 518.43 149.61C518.124 151.316 510.947 151.097 510.954 151.922C510.962 152.743 518.468 151.459 518.977 152.826C519.486 154.193 511.757 153.384 511.449 153.992C511.14 154.603 518.618 155.719 517.853 156.99C517.437 157.682 511.228 155.837 511.258 156.779C511.288 157.719 515.819 159.86 515.262 160.609C514.707 161.358 511.707 158.31 509.078 158.272C506.449 158.234 504.567 156.86 500.37 158.013C498.298 158.584 482.48 160.519 469.114 161.665C455.411 162.838 444.18 163.21 444.18 163.21L443.176 152.676Z" fill="#F7A491"/>
<path d="M404.923 170.945C404.582 166.796 405.397 163.6 405.583 162.225C404.331 157.915 401.664 148.72 400.706 146.913C400.706 146.913 405.196 138.266 409.795 138.326C409.795 138.326 414.491 148.929 418.121 150.826C418.174 150.813 419.406 151.376 419.948 151.371C423.452 151.346 435.703 150.974 437.988 150.934L436.701 168.342C427.825 185.77 430.228 194.917 433.605 198.3C435.193 199.891 411.456 206.349 410.362 204.095C409.075 201.436 405.615 179.334 404.923 170.945Z" fill="#F7CC7F"/>
<path d="M431.764 151.59C434.024 150.509 450.374 151.05 450.374 151.05C450.374 151.05 452.659 162.454 450.813 165.196C450.813 165.196 436.194 167.374 436.608 168.576L431.764 151.59Z" fill="#F7CC7F"/>
<path d="M427.479 144.262C427.479 144.262 427.193 150.482 427.481 153.073C427.772 155.664 424.827 161.738 419.346 161.843C413.864 161.949 418.54 156.015 419.022 153.465C419.504 150.914 420.078 140.935 420.078 140.935L427.479 144.262Z" fill="#F7A491"/>
<path d="M420.081 140.935C420.081 140.935 419.948 143.252 419.755 145.938C421.483 148.004 424.14 149.059 427.371 147.803C427.406 145.878 427.479 144.262 427.479 144.262L420.081 140.935Z" fill="#F47458"/>
<path d="M427.933 125.726C427.933 125.726 431.036 126.655 432.78 129.766C434.521 132.878 435.256 141.731 428.563 145.378C421.87 149.024 417.281 142.895 417.587 137.248C417.891 131.599 419.614 124.152 427.933 125.726Z" fill="#F7A491"/>
<path d="M416.237 135.381C416.691 136.78 417.717 137.7 418.533 137.436C419.346 137.172 419.639 135.823 419.185 134.423C418.731 133.023 417.705 132.104 416.892 132.368C416.077 132.631 415.786 133.981 416.237 135.381Z" fill="#F7A491"/>
<path d="M427 125.477C427 125.477 430.399 134.785 433.874 135.836C437.351 136.886 436.987 141.427 436.987 141.427C436.987 141.427 437.629 130.928 434.486 128.291C431.34 125.655 427 125.477 427 125.477Z" fill="#184655"/>
<path d="M432.341 137.615C431.776 139.05 432.1 140.522 433.068 140.907C434.037 141.289 435.279 140.437 435.846 139.002C436.41 137.567 436.087 136.094 435.118 135.71C434.15 135.328 432.908 136.18 432.341 137.615Z" fill="#F7A491"/>
<path d="M390.36 89.8643C390.36 89.8643 397.919 90.196 398.807 90.196C399.695 90.196 402.276 87.5221 402.276 87.5221L390.36 89.8643Z" fill="#F47458"/>
<path d="M397.524 89.4781C413.332 85.9084 423.258 70.1775 419.695 54.342C416.131 38.5066 400.427 28.5633 384.619 32.1329C368.811 35.7026 358.885 51.4335 362.448 67.2689C366.012 83.1044 381.716 93.0477 397.524 89.4781Z" fill="#FAE0B2"/>
<path d="M411.235 46.6322C419.047 57.7826 416.355 73.1625 405.226 80.9882C394.095 88.8138 378.742 86.1173 370.93 74.9694C363.118 63.819 365.809 48.4391 376.938 40.6134C388.067 32.7878 403.423 35.4843 411.235 46.6322Z" fill="#F7CC7F"/>
<path d="M393.922 78.1509L392.848 74.1753C391.035 74.5799 389.183 74.7181 387.605 74.6377C386.288 74.5698 385.252 73.4892 385.234 72.1674L385.232 72.009C385.212 70.554 386.431 69.3804 387.881 69.4759C389.359 69.5739 390.987 69.4734 392.623 69.0311C395.003 68.3852 396.383 67.0231 395.932 65.3519C395.503 63.7612 393.895 63.1203 390.52 62.9118C385.646 62.6152 382.031 61.3512 380.935 57.2926C379.941 53.6109 381.75 50.0223 385.982 47.934L384.908 43.9583L389.003 42.85L389.996 46.5317C391.534 46.1874 392.836 46.0542 393.955 46.0492C395.322 46.0441 396.436 47.1524 396.454 48.522C396.471 49.9394 395.315 51.0903 393.902 51.0602C392.841 51.0351 391.566 51.1331 390.091 51.5326C387.377 52.269 386.815 53.6763 387.131 54.8474C387.505 56.227 389.203 56.7095 393.114 57.0865C398.558 57.4961 401.185 59.2553 402.201 63.0198C403.207 66.7442 401.433 70.6369 396.857 72.773L398.009 77.0402L393.922 78.1509Z" fill="white"/>
<path d="M398.807 90.196L401.928 87.3864C401.928 87.3864 400.455 85.6222 401.067 85.2855C402.063 84.7351 403.767 86.8662 403.614 87.3813C403.461 87.899 401.632 89.5677 401.632 89.5677L398.807 90.196Z" fill="#F7A491"/>
</g>
<defs>
<clipPath id="clip0_3_552">
<rect width="519" height="359" fill="white"/>
</clipPath>
</defs>
</svg>
