<svg width="592" height="310" viewBox="0 0 592 310" fill="none" xmlns="http://www.w3.org/2000/svg">
<g clip-path="url(#clip0_3_3041)">
<path d="M39.5708 309.259C39.5708 309.259 -28.9531 235.735 27.9826 156.135C78.4999 85.5086 137.397 90.3359 180.611 118.998C199.015 131.205 252.079 120.501 297.242 48.6368C358.833 -49.3693 572.328 10.0707 533.401 160.855C514.564 233.824 590.733 236.476 551.922 309.416L39.5708 309.259Z" fill="#EBF3FA"/>
<path d="M94.9389 209.659L46.4434 254.263L91.0767 302.726L139.572 258.122L94.9389 209.659Z" fill="#DFEBFD"/>
<path d="M94.9386 209.659L46.443 254.263L55.4318 264.023L103.927 219.419L94.9386 209.659Z" fill="#BED7FB"/>
<path d="M236.566 18.7515L269.82 23.4916L247.752 8.45959L246.631 13.2788L238.544 14.7419L236.566 18.7515Z" fill="#9EC3F6"/>
<path d="M269.82 23.4915L242.148 9.23266L215.026 7.87109L269.82 23.4915Z" fill="#CDE0FB"/>
<path d="M247.752 8.45954L269.82 23.4915L252.737 0L247.752 8.45954Z" fill="#CDE0FB"/>
<path d="M422.515 84.3074L414.151 90.3056L405.742 84.3723C407.606 81.7527 410.683 80.0198 414.151 80.0198C417.597 80.0198 420.653 81.7101 422.515 84.3074Z" fill="white"/>
<path d="M414.151 65.4037C405.743 65.4037 398.311 69.5837 393.803 75.9715L399.113 79.695C402.449 74.9752 407.954 71.899 414.151 71.899C420.305 71.899 425.765 74.9306 429.102 79.5854L434.389 75.795C429.861 69.4965 422.472 65.4037 414.151 65.4037Z" fill="white"/>
<path d="M414.151 37.6205C396.361 37.6205 380.629 46.4555 371.096 59.9676L376.406 63.6911C384.769 51.8672 398.573 44.1159 414.153 44.1159C429.603 44.1159 443.319 51.7374 451.705 63.4091L456.97 59.6186C447.413 46.3053 431.79 37.6205 414.151 37.6205Z" fill="white"/>
<path d="M414.151 52.823C401.497 52.823 390.272 59.0809 383.445 68.6747L388.753 72.3982C394.408 64.4947 403.684 59.3183 414.149 59.3183C424.529 59.3183 433.737 64.4074 439.415 72.2034L444.68 68.4353C437.835 58.9734 426.697 52.823 414.151 52.823Z" fill="white"/>
<path d="M240.655 120.704L232.988 120.528C235.451 123.72 236.005 126.658 234.47 129.146C232.937 131.684 229.266 133.768 223.786 135.351C227.934 124.32 230.021 112.687 230.021 100.754C230.021 74.9428 219.972 49.6798 201.007 30.7803C182.649 12.4367 157.834 1.78772 130.987 1.78772C115.91 1.78772 101.343 5.12771 88.0942 11.5114C88.0901 11.5135 88.086 11.5155 88.082 11.5175C83.8219 10.2189 79.6736 9.15355 75.6714 8.34392C55.4657 4.24705 41.1262 7.07772 35.3007 16.3185C29.7573 25.1068 32.7747 38.3348 43.774 53.7645C43.772 53.7665 43.772 53.7686 43.77 53.7726C41.313 58.3098 38.9475 63.6932 37.2073 68.8472C16.5407 70.0769 5.47842 73.7111 1.45596 80.2937C-3.22033 87.9578 3.16566 98.2415 23.6069 108.241C26.4232 109.623 29.4406 110.981 32.6082 112.336C35.057 133.837 44.8583 154.678 60.9421 170.751C70.0428 179.822 80.6279 186.956 92.4192 191.956C128.542 207.183 171.603 200.054 201.007 170.751C209.856 161.908 216.872 151.606 221.824 140.2C231.906 138.114 238.543 134.85 241.183 130.527C243.019 127.536 242.793 124.221 240.655 120.704ZM216.998 136.909C210.285 138.114 201.913 138.819 192.132 138.92C176.956 139.105 159.526 137.907 141.158 135.489C142.703 132.126 144.218 128.671 145.696 125.138C151.396 127.043 156.927 128.553 162.202 129.622C168.245 130.848 173.762 131.453 178.684 131.453C190.223 131.453 198.489 128.123 202.573 121.646C203.245 120.578 203.793 119.448 204.215 118.253H198.333C198.236 118.432 198.132 118.608 198.024 118.781C194.991 123.592 188.215 126.077 178.698 126.075C174.148 126.075 168.966 125.507 163.27 124.353C158.307 123.346 153.101 121.934 147.735 120.152C149.152 116.611 150.529 113.002 151.859 109.339C155.444 99.459 158.515 89.6663 160.996 80.2612C181.118 83.2258 202.142 83.3151 222.338 81.7932C223.615 87.9842 224.261 94.3212 224.261 100.756C224.263 113.292 221.824 125.453 216.998 136.909ZM94.4477 185.972C91.5867 184.935 90.1348 180.832 89.4201 177.571C88.2911 172.419 88.086 165.183 88.8292 156.647C89.2048 152.329 89.8079 147.739 90.6222 142.936C102.348 146.059 113.961 150.074 125.269 154.916C122.723 159.305 120.146 163.373 117.571 167.062C112.665 174.091 107.867 179.513 103.695 182.744C101.055 184.791 97.3087 187.009 94.4477 185.972ZM127.858 150.324C116.022 145.227 103.853 141.014 91.5643 137.763C91.9968 135.535 92.472 133.267 92.9877 130.964C96.4051 131.741 99.8712 132.492 103.38 133.216C113.65 135.314 123.894 137.098 133.923 138.539C131.939 142.646 129.911 146.582 127.858 150.324ZM105.644 129.497C101.676 128.681 97.7655 127.829 93.9217 126.944C95.7309 119.42 97.9544 111.577 100.547 103.586C114.034 111.871 127.752 118.612 140.737 123.395C139.109 127.283 137.434 131.073 135.726 134.74C125.864 133.326 115.77 131.572 105.644 129.497ZM72.7028 27.9455C80.1995 43.2941 94.6487 55.9418 110.196 64.3303C106.43 72.5322 102.842 81.2859 99.5422 90.3765C98.927 92.0709 98.33 93.7632 97.7452 95.4515C78.0411 82.6353 61.3603 67.928 50.4158 53.6935C50.4138 53.6915 50.4138 53.6894 50.4118 53.6874C56.1866 43.8419 63.7117 35.149 72.7028 27.9455ZM156.955 13.7435C159.816 14.7804 161.268 18.8833 161.983 22.1442C163.112 27.2962 163.317 34.5322 162.574 43.0688C161.759 52.4131 159.887 63.0276 157.101 74.33C143.399 71.9741 129.706 68.0903 117.098 61.9745C122.471 50.7756 128.152 40.7901 133.834 32.6512C138.739 25.6222 143.537 20.2003 147.71 16.9699C149.887 15.2836 152.815 13.4797 155.379 13.4797C155.924 13.4797 156.452 13.5609 156.955 13.7435ZM155.796 79.4211C153.377 88.5158 150.399 97.9879 146.926 107.551C145.588 111.238 144.204 114.866 142.778 118.424C129.74 113.639 115.9 106.796 102.296 98.345C102.998 96.2915 103.725 94.2299 104.474 92.1642C107.699 83.2786 111.199 74.7277 114.869 66.7186C127.71 72.938 141.621 76.9537 155.796 79.4211ZM196.934 34.8264C209.032 46.9161 217.059 61.4388 221.118 76.6229C199.614 78.1935 179.91 77.7004 162.297 75.1538C165.093 63.7419 166.974 53.0056 167.8 43.5234C168.712 33.0509 168.6 20.6487 164.352 13.6684C176.659 18.3923 187.653 25.5248 196.934 34.8264ZM130.987 7.51602C137.45 7.51602 143.806 8.16535 150.019 9.45589C142.691 12.6437 135.208 21.5172 129.529 29.6521C123.716 37.9797 117.912 48.1701 112.43 59.576C97.6335 51.5426 83.6595 39.2256 76.9791 24.7172C92.5755 13.6299 111.333 7.51602 130.987 7.51602ZM39.849 19.1816C42.8826 14.3705 49.6585 11.8868 59.1755 11.8868C63.7279 11.8868 68.9078 12.455 74.6034 13.6096C76.7659 14.0479 78.9731 14.5612 81.2188 15.1538C81.2208 15.1538 81.2229 15.1538 81.2249 15.1558C67.6387 23.0086 55.6708 34.3719 46.7609 48.6186C46.7589 48.6206 46.7568 48.6226 46.7568 48.6267C38.3485 36.1494 35.8205 25.5694 39.849 19.1816ZM47.6158 58.8455C47.6158 58.8435 47.6178 58.8415 47.6178 58.8415C59.141 73.2342 76.1243 87.9476 95.9705 100.709C93.1562 109.268 90.7562 117.679 88.8191 125.739C72.3658 121.761 53.2423 116.135 38.1393 109.749C36.8865 97.233 38.251 84.565 42.0115 72.6133C43.4694 67.9808 45.4066 63.2041 47.6158 58.8455ZM28.1817 105.277C10.3557 96.5837 2.20928 88.1911 5.85609 82.2376C8.79832 77.4143 19.5073 74.1474 35.9017 72.942C32.598 84.0882 31.4467 95.6767 32.131 107.137C30.7706 106.533 29.4629 105.906 28.1817 105.277ZM87.881 129.775C87.3733 132.041 86.9043 134.275 86.4738 136.473C85.3306 136.195 84.1854 135.925 83.0402 135.663C63.6893 131.262 49.1691 130.367 42.4379 130.215C40.7709 125.197 39.5444 120.063 38.7688 114.824C51.9489 119.893 66.7899 124.752 87.881 129.775ZM44.3852 135.535C51.5631 135.824 64.8731 136.911 81.8747 140.777C83.091 141.053 84.3072 141.343 85.5215 141.639C84.6463 146.738 84.0006 151.612 83.6027 156.192C82.8473 164.871 82.7945 174.877 85.2169 182.023C77.8441 177.876 71.0825 172.744 65.0153 166.681C55.9693 157.643 49.0107 147.061 44.3852 135.535ZM102.698 189.631C109.599 186.017 116.534 177.713 121.874 170.063C124.627 166.119 127.381 161.752 130.097 157.038C145.765 164.128 160.829 172.839 174.98 182.987C151.653 195.444 125.387 196.854 102.698 189.631ZM196.934 166.683C191.777 171.851 186.099 176.342 179.965 180.124C165.1 169.268 149.219 159.975 132.672 152.452C134.946 148.287 137.188 143.887 139.377 139.295C154.523 141.302 169.083 142.506 182.375 142.816C185.845 142.915 189.214 142.915 192.483 142.891C200.957 142.792 208.498 142.288 214.961 141.383C210.435 150.754 204.376 159.246 196.934 166.683Z" fill="#ADCBF9"/>
<path d="M194.818 136.148L181.122 298.882C181.122 298.882 179.687 308.746 187.029 308.764C199.103 308.793 247.118 308.764 247.118 308.764C247.118 308.764 238.032 306.711 238.142 302.09C238.271 296.644 254.148 134.608 254.148 134.608L194.818 136.148Z" fill="#D86713"/>
<path d="M251.015 305.812C248.641 305.818 202.778 305.962 191.021 305.812C185.898 305.749 184.999 301.258 184.956 298.355C184.936 296.963 185.113 295.932 185.113 295.932L185.468 291.703L186.376 280.922L187.178 271.397L188.207 259.157L189.074 248.827L198.804 133.194L258.138 131.656C258.138 131.656 251.452 199.466 246.721 248.827C246.193 254.326 245.691 259.6 245.226 264.523C245.076 266.095 244.932 267.631 244.79 269.127C244.351 273.798 243.951 278.085 243.602 281.872C243.417 283.869 243.248 285.721 243.094 287.422C242.491 294.077 242.138 298.328 242.132 299.138C242.13 299.609 242.17 300.047 242.247 300.455C243.224 305.643 250.124 305.812 251.015 305.812Z" fill="#F99746"/>
<path d="M50.7266 47.5958L84.086 181.506L88.6526 199.845L104.19 262.215H392.851L335.582 47.5958H50.7266Z" fill="#F99746"/>
<path d="M50.7246 47.5958L46.1011 49.136L98.0438 266.874L104.19 262.215L50.7246 47.5958Z" fill="#EE9849"/>
<path d="M98.0437 266.874H384.928L392.849 262.215H104.19L98.0437 266.874Z" fill="#D86713"/>
<path d="M198.789 308.827H260.903V305.877H198.789V308.827Z" fill="#F1A34F"/>
<path d="M378.867 222.669L332.027 50.4326H50.2637V47.5958H335.582L382.264 222.286L378.867 222.669Z" fill="#F1A34F"/>
<path d="M245.114 266.872L244.794 269.129L186.378 280.922L187.18 271.397L187.561 266.872H245.114Z" fill="#D86713"/>
<path opacity="0.4" d="M251.015 305.812C248.641 305.818 202.778 305.962 191.021 305.812C185.898 305.749 184.999 301.258 184.956 298.355L243.096 287.424C242.493 294.079 242.14 298.33 242.134 299.14C242.132 299.611 242.172 300.049 242.249 300.457C243.224 305.643 250.124 305.812 251.015 305.812Z" fill="#D86713"/>
<path opacity="0.4" d="M230.994 218.769L104.19 262.215L88.6526 199.845L230.994 218.769Z" fill="#D86713"/>
<path d="M50.7246 47.5958H335.582L381.801 220.082H92.2284L50.7246 47.5958Z" fill="#699DEE"/>
<path d="M256.173 241.887C255.35 237.657 251.251 234.227 247.019 234.227C242.785 234.227 240.022 237.657 240.844 241.887C241.667 246.118 245.766 249.547 249.998 249.547C254.231 249.547 256.995 246.118 256.173 241.887Z" fill="#D86713"/>
<path d="M368.367 212.609H101.654L71.448 92.363L69.1352 83.1425L67.1575 75.2775L65.5777 68.9811L62.5259 56.8345H325.393L325.578 57.5021L328.741 68.9811L330.479 75.2775L332.65 83.1425L335.194 92.363L368.367 212.609Z" fill="#E9F3FE"/>
<path d="M368.367 213.019H101.654L71.448 92.7749L69.1352 83.5545L67.1575 75.6895L65.5777 69.391L62.5259 57.2465H325.393L325.578 57.9141L328.741 69.391L330.479 75.6895L332.65 83.5545L335.194 92.7749L368.367 213.019Z" fill="#E9F3FE"/>
<path d="M328.741 68.9811H65.5778L62.5259 56.8345H325.293L325.578 57.5021L328.741 68.9811Z" fill="#AFCDFB"/>
<path d="M69.8378 62.9078C69.521 61.6356 70.2946 60.6027 71.5698 60.6027C72.845 60.6027 74.1344 61.6356 74.4511 62.9078C74.7679 64.1801 73.9942 65.213 72.7191 65.213C71.4439 65.213 70.1545 64.1801 69.8378 62.9078Z" fill="#E9F3FE"/>
<path d="M81.7692 64.6426C82.5138 63.8002 82.2405 62.3432 81.1588 61.3884C80.077 60.4336 78.5965 60.3425 77.8519 61.185C77.1073 62.0274 77.3806 63.4844 78.4623 64.4392C79.544 65.394 81.0246 65.4851 81.7692 64.6426Z" fill="#E9F3FE"/>
<path d="M85.7571 62.9078C85.4403 61.6356 86.214 60.6027 87.4891 60.6027C88.7643 60.6027 90.0537 61.6356 90.3704 62.9078C90.6872 64.1801 89.9136 65.213 88.6384 65.213C87.3632 65.213 86.0759 64.1801 85.7571 62.9078Z" fill="#E9F3FE"/>
<path d="M184.737 213.019H158.364C158.111 210.959 157.889 208.782 157.688 206.511C157.335 202.436 157.063 198.056 156.864 193.496C156.815 192.445 156.774 191.384 156.736 190.316C156.685 188.957 156.642 187.581 156.602 186.199C156.537 183.851 156.486 181.477 156.45 179.089C156.448 179.087 156.448 179.083 156.448 179.081C156.401 176.035 156.378 172.969 156.372 169.915C156.372 169.913 156.372 169.913 156.372 169.913C156.37 169.15 156.37 168.389 156.37 167.628V167.626C156.37 166.91 156.372 166.198 156.374 165.486C156.397 158.911 156.496 152.462 156.636 146.466C156.939 133.2 157.432 122.145 157.694 116.831V116.828C157.8 114.647 157.869 113.434 157.869 113.434C157.871 113.434 157.873 113.436 157.875 113.436C157.934 113.444 158.334 113.519 158.963 113.669C159.424 113.781 160.011 113.935 160.677 114.14H160.679C161.28 114.32 161.946 114.546 162.645 114.809C162.647 114.809 162.649 114.809 162.651 114.812C163.839 115.268 165.12 115.852 166.324 116.585C166.342 116.595 166.361 116.603 166.379 116.613C168.348 117.835 170.127 119.454 170.937 121.593C171.634 123.409 173.262 133.171 175.232 146.138C175.287 146.507 175.342 146.88 175.4 147.256C176.442 154.141 177.567 161.866 178.698 169.755C179.896 178.115 181.092 186.652 182.192 194.563C183.135 201.349 184.006 207.67 184.737 213.019Z" fill="#2B478B"/>
<path d="M177.352 213.019H146.654C146.065 210.488 145.515 208.047 145.026 205.756C143.678 199.446 142.79 194.273 142.839 191.495C142.861 190.193 143.355 189.174 144.199 188.391C144.778 187.853 145.523 187.427 146.398 187.094C148.987 186.112 152.709 185.95 156.604 186.199C157.928 186.282 159.27 186.41 160.594 186.571C167.889 187.455 174.663 189.259 174.663 189.259C174.663 189.259 175.116 191.089 175.652 194.289C176.054 196.69 176.503 199.864 176.836 203.611C177.029 205.789 177.185 208.161 177.273 210.689C177.295 211.448 177.321 212.227 177.352 213.019Z" fill="#233862"/>
<path d="M163.175 191.534L162.868 193.75L161.382 204.51L161.128 206.347L160.206 213.019H128.217C127.97 208.609 127.74 204.313 127.696 200.568C127.691 200.152 127.689 199.746 127.689 199.346C127.689 193.705 128.185 189.523 129.803 188.468C131.637 187.271 137.72 187.599 144.198 188.393C144.843 188.47 145.493 188.555 146.145 188.642C149.92 189.15 153.698 189.777 156.736 190.316C158.312 190.596 159.688 190.854 160.761 191.059C162.271 191.347 163.175 191.534 163.175 191.534Z" fill="#C65447"/>
<path d="M127.689 118.981C127.689 118.981 145.264 107.624 157.871 113.434C159.879 114.359 162.172 116.942 163.812 118.748C168.369 123.766 177.273 203.469 177.273 203.469C177.273 203.469 151.999 212.024 127.691 200.566V118.981H127.689Z" fill="white"/>
<path d="M158.87 113.144C158.87 113.144 176.661 120.43 179.072 126.029C181.482 131.627 189.313 166.009 189.313 170.041C189.313 174.073 175.677 170.942 173.482 164.441C171.658 159.041 165.51 142.453 162.267 131.962L158.87 113.144Z" fill="#2B478B"/>
<path d="M155.175 118.697C151.29 119.458 145.584 118.647 141.408 115.895C143.294 111.394 144.068 107.839 144.342 105.538C144.358 105.417 144.37 105.297 144.382 105.183C144.506 103.99 144.488 103.182 144.431 102.811H154.472C154.472 102.811 157.217 104.065 157.217 104.932C157.217 105.394 157.221 105.839 157.23 106.263C157.25 107.417 157.297 108.424 157.355 109.29C157.546 112.107 157.869 113.432 157.869 113.432C157.869 113.432 159.098 117.928 155.175 118.697Z" fill="#FFB27D"/>
<path d="M157.355 109.29C149.747 110.759 145.331 106.606 144.342 105.538C144.202 105.386 144.129 105.295 144.129 105.295C144.21 105.254 144.293 105.218 144.382 105.183C147.215 104.037 153.642 104.948 157.229 106.263C157.25 107.417 157.294 108.426 157.355 109.29Z" fill="#E2915A"/>
<path d="M141.856 101.161C143.215 108.472 152.657 108.233 156.736 107.772C157.883 107.645 158.606 107.498 158.606 107.498C159.902 107.154 160.622 105.114 160.959 102.446C161.625 97.164 160.785 89.4086 159.891 87.4261C158.547 84.4412 156.015 81.2148 146.508 83.5423C136.999 85.8758 140.112 91.7948 141.856 101.161Z" fill="#FFB27D"/>
<path d="M160.245 83.3495C158.945 81.5517 156.19 79.3541 153.688 78.0027C148.311 75.0969 141.432 78.094 141.404 78.1062C133.639 81.5172 131.61 87.4545 135.726 96.7034C140.08 106.484 144.226 105.382 144.226 105.382C144.226 105.382 143.347 104.834 143.426 101.786C143.43 101.614 143.438 101.468 143.446 101.344C143.487 100.719 143.266 100.092 142.799 99.6761C141.834 98.8157 141.363 96.2144 142.171 95.4899C143.146 94.6154 144.514 95.6766 144.953 96.4944C145.335 97.0707 146.019 97.2736 146.656 96.8698C149.073 95.3439 147.503 92.2879 149.812 90.4211C152.121 88.5523 156.807 90.1208 160.273 88.6334C164.807 86.9452 161.225 84.703 160.245 83.3495Z" fill="#233862"/>
<path d="M161.493 213.019H123.226C123.5 205.089 123.852 195.621 124.221 186.035C124.315 183.549 124.414 181.053 124.512 178.578C124.556 177.529 124.595 176.486 124.635 175.443C125.48 154.155 126.321 134.931 126.497 133.894C126.9 131.552 127.279 129.555 127.689 127.825C128.891 122.782 130.386 120.016 133.643 117.638C133.96 117.397 136.567 116.086 138.861 114.941C140.738 114.012 142.405 113.198 142.455 113.176V113.174H142.457C142.837 113.359 143.255 113.886 143.696 114.669C144.137 115.453 144.602 116.496 145.077 117.713C146.825 122.204 148.715 129.074 150.027 134.206C150.029 134.212 150.031 134.218 150.031 134.222C150.033 134.226 150.033 134.229 150.033 134.233C150.033 134.235 150.033 134.235 150.033 134.235C150.878 137.548 151.485 140.127 151.658 140.87C151.952 142.12 152.338 144.537 152.795 147.812V147.82C153.412 152.286 154.151 158.347 154.933 165.226V165.228C155.014 165.936 155.093 166.65 155.174 167.371C155.266 168.195 155.361 169.029 155.455 169.871V169.873C155.485 170.143 155.514 170.414 155.542 170.686V170.688C155.843 173.412 156.147 176.22 156.448 179.079C156.448 179.081 156.448 179.085 156.45 179.087C156.708 181.443 160.283 183.149 160.531 185.55C160.549 185.724 160.568 186.077 160.59 186.569C160.637 187.583 160.691 189.194 160.758 191.057C160.787 191.885 160.815 192.766 160.848 193.662C160.988 197.654 161.16 202.027 161.355 204.131C161.366 204.23 161.374 204.356 161.38 204.51C161.402 204.93 161.42 205.549 161.437 206.324C161.471 207.974 161.487 210.332 161.493 213.019Z" fill="#2B478B"/>
<path d="M135.389 142.477C135.377 142.526 134.78 164.004 150.947 166.612C167.114 169.221 156.372 169.911 156.372 169.911C156.372 169.911 125.953 168.619 125.452 167.817C124.948 167.014 135.389 142.477 135.389 142.477Z" fill="#233862"/>
<path d="M149.048 175.832C149.048 175.832 148.746 176.047 148.163 176.423C148.153 176.427 148.143 176.435 148.133 176.441C145.666 178.014 138.346 182.303 127.687 185.179C126.569 185.481 125.411 185.769 124.221 186.033C124.315 183.549 124.414 181.053 124.51 178.578C123.102 178.468 121.754 178.29 120.503 178.024C120.546 177.697 120.591 177.37 120.631 177.042C121.988 176.486 123.334 175.95 124.633 175.443C125.691 175.029 126.717 174.635 127.685 174.27C132.063 172.608 135.308 171.482 135.308 171.482L148.267 175.585L149.048 175.832Z" fill="#233862"/>
<path d="M152.478 175.473C152.478 175.473 150.813 175.889 148.163 176.423C148.153 176.423 148.145 176.425 148.135 176.429C143.247 177.411 135.028 178.787 127.687 178.712C126.605 178.699 125.541 178.657 124.51 178.578C123.102 178.468 121.754 178.29 120.503 178.024C117.821 177.458 115.573 176.5 114.103 175.002C103.183 163.889 120.063 123.997 123.61 120.116C127.752 115.585 135.314 113.994 139.491 113.448C139.665 113.426 139.832 113.403 139.994 113.383C141.462 113.208 142.404 113.172 142.457 113.17C142.459 113.17 142.459 113.17 142.459 113.17C142.459 113.17 142.132 114.221 141.584 116.007C141.371 116.697 141.123 117.498 140.853 118.391C138.289 126.784 133.34 143.279 131.159 152.582C130.359 155.987 129.933 158.426 130.128 159.155C130.979 162.332 139.801 163.966 145.391 164.688C147.722 164.988 149.493 165.133 149.889 165.161C149.917 165.161 149.944 165.163 149.972 165.167L150.295 166.492L151.069 169.67L151.83 172.791L152.478 175.473Z" fill="#2B478B"/>
<path d="M182.934 194.596L145.432 193.015L153.04 146.312L190.542 147.891L182.934 194.596Z" fill="#F99746"/>
<path d="M149.968 165.171C149.968 165.171 157.268 164.662 157.633 166.362C158.486 170.325 151.357 173.58 149.048 173.359C146.74 173.136 148.289 164.905 149.968 165.171Z" fill="#FFB27D"/>
<path d="M188.491 157.375C188.491 157.375 181.506 155.194 180.757 156.762C179.009 160.421 185.192 165.236 187.49 165.553C189.789 165.871 190.187 157.507 188.491 157.375Z" fill="#FFB27D"/>
<path d="M143.217 110.828C143.217 110.828 140.147 112.291 138.605 114.499C138.605 114.499 150.086 134.417 150.033 134.231C149.982 134.044 146.153 113.379 143.217 110.828Z" fill="#233862"/>
<path d="M157.514 111.108C158.525 111.49 160.464 113.474 160.9 114.572L162.265 131.96C162.265 131.96 159.351 119.199 157.869 113.43C157.493 111.967 157.562 111.52 157.514 111.108Z" fill="#233862"/>
<path d="M165.471 146.836C165.471 146.836 165.768 145.539 167.475 145.691C169.183 145.841 178.773 146.312 178.773 146.312C178.773 146.312 180.623 146.282 180.45 147.467L165.471 146.836Z" fill="#C65447"/>
<path d="M154.472 102.811C154.472 102.811 155.717 103.945 157.725 103.594C158.917 103.385 159.583 101.839 159.583 101.839C159.583 101.839 157.294 101.427 154.472 102.811Z" fill="white"/>
<path d="M332.169 117.346L304.468 117.447L295.485 83.0816L323.186 82.9781L332.169 117.346Z" fill="white"/>
<path d="M316.317 87.495L304.702 87.5377L304.568 87.0283L316.183 86.9857L316.317 87.495Z" fill="#ADCBF9"/>
<path d="M318.17 88.9073L303.587 88.9601L303.455 88.4528L318.038 88.398L318.17 88.9073Z" fill="#ADCBF9"/>
<path d="M322.181 95.9018L303.238 95.9707L303.106 95.4635L322.047 95.3925L322.181 95.9018Z" fill="#ADCBF9"/>
<path d="M322.619 97.5779L303.677 97.6469L303.545 97.1375L322.485 97.0685L322.619 97.5779Z" fill="#ADCBF9"/>
<path d="M323.056 99.2519L304.115 99.323L303.981 98.8136L322.924 98.7446L323.056 99.2519Z" fill="#ADCBF9"/>
<path d="M323.495 100.928L304.554 100.999L304.42 100.49L323.361 100.421L323.495 100.928Z" fill="#ADCBF9"/>
<path d="M323.933 102.604L304.99 102.673L304.858 102.166L323.799 102.095L323.933 102.604Z" fill="#ADCBF9"/>
<path d="M324.997 106.681L306.056 106.752L305.924 106.242L324.865 106.173L324.997 106.681Z" fill="#ADCBF9"/>
<path d="M325.436 108.357L306.495 108.428L306.361 107.918L325.304 107.849L325.436 108.357Z" fill="#ADCBF9"/>
<path d="M325.874 110.033L306.933 110.102L306.799 109.595L325.74 109.524L325.874 110.033Z" fill="#ADCBF9"/>
<path d="M326.313 111.709L307.37 111.778L307.238 111.271L326.179 111.2L326.313 111.709Z" fill="#ADCBF9"/>
<path d="M326.749 113.385L307.809 113.454L307.677 112.945L326.617 112.876L326.749 113.385Z" fill="#ADCBF9"/>
<path d="M343.331 160.049L315.63 160.153L306.647 125.785L334.348 125.684L343.331 160.049Z" fill="white"/>
<path d="M327.478 130.199L315.864 130.241L315.73 129.734L327.346 129.691L327.478 130.199Z" fill="#ADCBF9"/>
<path d="M329.332 131.611L314.751 131.666L314.617 131.156L329.2 131.104L329.332 131.611Z" fill="#ADCBF9"/>
<path d="M333.342 138.605L314.402 138.676L314.268 138.167L333.21 138.098L333.342 138.605Z" fill="#ADCBF9"/>
<path d="M333.781 140.281L314.838 140.35L314.706 139.843L333.647 139.772L333.781 140.281Z" fill="#ADCBF9"/>
<path d="M334.218 141.958L315.277 142.027L315.145 141.519L334.086 141.448L334.218 141.958Z" fill="#ADCBF9"/>
<path d="M334.656 143.634L315.716 143.703L315.582 143.193L334.524 143.124L334.656 143.634Z" fill="#ADCBF9"/>
<path d="M335.095 145.308L316.152 145.379L316.02 144.869L334.961 144.8L335.095 145.308Z" fill="#ADCBF9"/>
<path d="M336.161 149.386L317.218 149.455L317.086 148.948L336.027 148.877L336.161 149.386Z" fill="#ADCBF9"/>
<path d="M336.597 151.062L317.657 151.131L317.525 150.624L336.466 150.553L336.597 151.062Z" fill="#ADCBF9"/>
<path d="M337.036 152.738L318.095 152.807L317.961 152.298L336.904 152.229L337.036 152.738Z" fill="#ADCBF9"/>
<path d="M337.475 154.412L318.532 154.483L318.4 153.974L337.341 153.905L337.475 154.412Z" fill="#ADCBF9"/>
<path d="M337.911 156.089L318.97 156.16L318.838 155.65L337.779 155.581L337.911 156.089Z" fill="#ADCBF9"/>
<path d="M354.57 203.041L326.867 203.145L317.884 168.777L345.587 168.675L354.57 203.041Z" fill="white"/>
<path d="M338.715 173.19L327.101 173.233L326.967 172.726L338.583 172.683L338.715 173.19Z" fill="#ADCBF9"/>
<path d="M340.569 174.603L325.988 174.657L325.854 174.148L340.437 174.095L340.569 174.603Z" fill="#ADCBF9"/>
<path d="M344.579 181.597L325.639 181.668L325.505 181.159L344.448 181.09L344.579 181.597Z" fill="#ADCBF9"/>
<path d="M345.018 183.273L326.075 183.342L325.943 182.835L344.884 182.764L345.018 183.273Z" fill="#ADCBF9"/>
<path d="M345.457 184.949L326.514 185.018L326.382 184.511L345.323 184.44L345.457 184.949Z" fill="#ADCBF9"/>
<path d="M345.893 186.625L326.953 186.694L326.819 186.185L345.761 186.116L345.893 186.625Z" fill="#ADCBF9"/>
<path d="M346.332 188.299L327.391 188.37L327.257 187.861L346.198 187.792L346.332 188.299Z" fill="#ADCBF9"/>
<path d="M347.398 192.378L328.457 192.447L328.323 191.94L347.264 191.869L347.398 192.378Z" fill="#ADCBF9"/>
<path d="M347.836 194.054L328.894 194.123L328.762 193.616L347.702 193.545L347.836 194.054Z" fill="#ADCBF9"/>
<path d="M348.273 195.73L329.332 195.799L329.198 195.29L348.141 195.221L348.273 195.73Z" fill="#ADCBF9"/>
<path d="M348.712 197.404L329.771 197.475L329.637 196.966L348.578 196.897L348.712 197.404Z" fill="#ADCBF9"/>
<path d="M349.15 199.08L330.207 199.151L330.075 198.642L349.016 198.573L349.15 199.08Z" fill="#ADCBF9"/>
<path d="M318.146 203.331L221.262 203.689L193.379 97.0118L205.998 83.4307L286.728 83.1324L318.146 203.331Z" fill="white"/>
<path d="M260.041 101.159L225.896 101.285L225.504 99.7918L259.649 99.666L260.041 101.159Z" fill="#ADCBF9"/>
<path d="M265.493 105.313L222.622 105.471L222.232 103.976L265.101 103.818L265.493 105.313Z" fill="#ADCBF9"/>
<path d="M277.278 125.875L221.597 126.079L221.205 124.584L276.888 124.379L277.278 125.875Z" fill="#ADCBF9"/>
<path d="M278.567 130.799L222.884 131.004L222.492 129.511L278.175 129.304L278.567 130.799Z" fill="#ADCBF9"/>
<path d="M279.854 135.726L224.171 135.931L223.78 134.436L279.463 134.231L279.854 135.726Z" fill="#ADCBF9"/>
<path d="M281.142 140.651L225.459 140.858L225.069 139.362L280.75 139.157L281.142 140.651Z" fill="#ADCBF9"/>
<path d="M282.429 145.578L226.746 145.783L226.356 144.289L282.037 144.082L282.429 145.578Z" fill="#ADCBF9"/>
<path d="M285.562 157.566L229.879 157.771L229.49 156.275L285.173 156.07L285.562 157.566Z" fill="#ADCBF9"/>
<path d="M286.85 162.491L231.167 162.696L230.777 161.202L286.46 160.995L286.85 162.491Z" fill="#ADCBF9"/>
<path d="M288.137 167.417L232.454 167.622L232.064 166.127L287.747 165.922L288.137 167.417Z" fill="#ADCBF9"/>
<path d="M289.424 172.342L233.742 172.549L233.352 171.054L289.035 170.849L289.424 172.342Z" fill="#ADCBF9"/>
<path d="M290.712 177.269L235.031 177.474L234.639 175.978L290.322 175.773L290.712 177.269Z" fill="#ADCBF9"/>
<path d="M193.379 97.0127L209.534 96.9519L205.998 83.4316L193.379 97.0127Z" fill="#ADCBF9"/>
<path d="M426.732 286.995H347.859V259.158H426.984C433.136 259.158 438.123 264.141 438.123 270.289V275.614C438.123 281.9 433.023 286.995 426.732 286.995Z" fill="#FCECDB"/>
<path d="M505.443 270.612V274.8C505.443 277.038 504.84 279.135 503.788 280.934C501.675 284.558 497.742 286.995 493.238 286.995H345.44C344.462 286.995 343.67 286.204 343.67 285.228V284.601C343.67 283.625 344.462 282.834 345.44 282.834H435.536C436.018 282.247 436.442 281.612 436.801 280.934C437.646 279.346 438.121 277.536 438.121 275.612V270.287C438.121 269.307 437.995 268.358 437.756 267.455C437.352 265.923 436.631 264.519 435.666 263.321H345.44C344.462 263.321 343.67 262.53 343.67 261.552V260.927C343.67 259.949 344.462 259.158 345.44 259.158H493.981C499.216 259.158 503.63 262.664 505.001 267.455C505.291 268.459 505.443 269.518 505.443 270.612Z" fill="#699DEE"/>
<path d="M505.003 267.455H437.758C437.354 265.923 436.634 264.518 435.669 263.321H345.443C344.464 263.321 343.672 262.53 343.672 261.552V260.927C343.672 259.949 344.464 259.158 345.443 259.158H493.984C499.218 259.158 503.633 262.664 505.003 267.455Z" fill="#548EE2"/>
<path d="M347.859 273.078L358.803 273.544L347.859 273.826V273.078Z" fill="#F4D2B8"/>
<path d="M347.859 277.444L373.894 277.913L347.859 278.195V277.444Z" fill="#F4D2B8"/>
<path d="M366.669 308.593H450.631V286.94H365.987C360.192 286.94 355.493 291.636 355.493 297.427C355.495 303.594 360.496 308.593 366.669 308.593Z" fill="#2B478B"/>
<path d="M445.811 308.592H541.367V286.939H445.567C439.675 286.939 434.899 291.711 434.899 297.6V297.687C434.901 303.71 439.786 308.592 445.811 308.592Z" fill="#FCECDB"/>
<path d="M428.521 308.592H544.687C545.582 308.592 546.307 307.867 546.307 306.973C546.307 306.078 545.582 305.353 544.687 305.353H428.521C427.625 305.353 426.901 306.078 426.901 306.973C426.901 307.865 427.625 308.592 428.521 308.592Z" fill="#2B478B"/>
<path d="M428.521 290.175H544.687C545.582 290.175 546.307 289.451 546.307 288.556C546.307 287.661 545.582 286.937 544.687 286.937H428.521C427.625 286.937 426.901 287.661 426.901 288.556C426.901 289.451 427.625 290.175 428.521 290.175Z" fill="#2B478B"/>
<path d="M541.369 297.764L528.461 298.127L541.369 298.349V297.764Z" fill="#F4D2B8"/>
<path d="M541.369 292.781L510.659 293.146L541.369 293.365V292.781Z" fill="#F4D2B8"/>
<path d="M510.976 293.073C510.976 293.073 512.292 294.002 512.729 295.532C512.806 295.8 512.854 296.086 512.865 296.388C512.938 298.42 512.865 303.018 512.865 303.018L516.751 300.719L520.625 303.018V296.786C520.625 295.607 520.292 294.461 519.675 293.71C519.376 293.347 519.013 293.073 518.601 293.073H510.976Z" fill="#699DEE"/>
<path d="M510.976 293.073C510.976 293.073 512.292 294.002 512.729 295.532L520.516 295.623C520.516 295.623 520.211 293.434 518.603 293.073H510.976Z" fill="#568CDB"/>
<path d="M436.04 259.216H521.825V227.403H435.758C428.888 227.403 423.319 232.969 423.319 239.834V246.504C423.319 253.525 429.014 259.216 436.04 259.216Z" fill="#FCECDB"/>
<path d="M425.337 239.748V246.595C425.357 249.519 426.978 252.055 429.357 253.413C430.529 254.078 431.883 254.46 433.323 254.46H526.483C527.576 254.46 528.461 255.344 528.461 256.436V257.244C528.461 258.335 527.576 259.22 526.483 259.22H365.546C360.929 259.22 356.848 256.927 354.383 253.415C352.829 251.203 351.916 248.508 351.916 245.598V240.197C351.916 238.204 352.372 236.317 353.187 234.635C355.256 230.357 359.64 227.407 364.714 227.407H526.483C527.576 227.407 528.461 228.29 528.461 229.381V230.189C528.461 231.281 527.576 232.165 526.483 232.165H433.037C430.803 232.165 428.783 233.115 427.37 234.635C426.121 235.98 425.349 237.772 425.337 239.748Z" fill="#B5453C"/>
<path d="M521.825 243.31L509.882 243.845L521.825 244.166V243.31Z" fill="#F4D2B8"/>
<path d="M521.825 235.989L493.412 236.524L521.825 236.845V235.989Z" fill="#F4D2B8"/>
<path d="M493.705 236.417C493.705 236.417 495.579 237.425 496.2 239.083C496.31 239.373 496.381 239.684 496.395 240.01C496.499 242.214 496.395 247.2 496.395 247.2L501.93 244.706L507.451 247.2V240.443C507.451 239.164 506.978 237.922 506.097 237.109C505.671 236.715 505.153 236.417 504.568 236.417H493.705Z" fill="#F99746"/>
<path d="M493.705 236.417C493.705 236.417 495.579 237.425 496.2 239.083L507.295 239.182C507.295 239.182 506.86 236.808 504.57 236.417H493.705Z" fill="#ED7D2B"/>
<path d="M437.533 215.608C442.442 224.149 448.619 227.444 448.619 227.444H474.313C474.311 227.444 433.786 209.092 437.533 215.608Z" fill="#233862"/>
<path d="M457.265 281.685C457.935 282.452 458.02 283.309 457.689 284.224C457.689 284.228 457.687 284.234 457.683 284.236C457.07 285.928 455.046 287.817 452.694 289.704C452.394 289.946 452.126 290.167 451.894 290.372C451.833 290.425 451.772 290.48 451.716 290.532C451.669 290.573 451.622 290.618 451.577 290.656C449.385 292.677 450.209 293.14 446.27 297.239C441.778 301.91 438.684 301.993 437.804 301.569C437.059 301.206 438.572 298.728 440.247 295.944C440.328 295.81 440.408 295.674 440.491 295.538C440.714 295.169 440.936 294.792 441.157 294.42C443.12 291.068 442.617 289.497 442.15 284.51C441.772 280.458 435.841 261.868 435.841 261.868L444.45 260.387C444.45 260.387 447.043 275.19 449.9 277.469C451.427 278.684 453.137 278.698 454.605 279.599C454.709 279.662 454.81 279.725 454.91 279.792C455.744 280.346 456.593 280.916 457.265 281.685Z" fill="#FFB27D"/>
<path d="M457.265 281.685C457.935 282.452 458.02 283.309 457.689 284.224C457.689 284.228 457.687 284.234 457.683 284.236C456.932 285.926 454.958 287.807 452.686 289.688C452.39 289.934 452.128 290.161 451.894 290.372C451.833 290.425 451.772 290.48 451.716 290.532C451.669 290.573 451.622 290.618 451.577 290.656C449.384 292.677 450.209 293.14 446.27 297.239C441.778 301.91 438.684 301.993 437.804 301.569C437.059 301.206 438.572 298.728 440.247 295.944C441.122 295.623 445.183 293.976 448.256 290.047C450.96 286.598 452.765 282.166 454.607 279.599C454.711 279.662 454.812 279.725 454.912 279.792C455.744 280.346 456.593 280.916 457.265 281.685Z" fill="#233862"/>
<path d="M387.848 276.312C387.316 278.968 383.529 278.524 379.297 277.491C375.066 276.458 376.071 277.686 370.048 277.02C364.026 276.355 362.2 274.11 362.017 273.216C361.853 272.422 364.83 272.142 368.022 271.775C368.424 271.73 368.826 271.68 369.23 271.631C372.834 271.178 375.474 268.855 378.747 266.946C381.848 265.138 386.475 257.772 386.475 257.772L394.735 258.425C394.735 258.425 390.4 265.004 388.725 267.865C387.738 269.547 387.791 271.771 387.915 273.49C387.976 274.423 388.037 275.377 387.848 276.312Z" fill="#FFB27D"/>
<path d="M379.297 277.491C375.066 276.458 376.071 277.686 370.048 277.02C364.026 276.355 362.2 274.11 362.017 273.216C361.853 272.422 364.83 272.142 368.022 271.775L368.052 271.836C368.052 271.836 371.664 274.394 376.678 274.514C380.763 274.614 385.092 273.443 387.915 273.489C387.98 274.423 388.041 275.379 387.852 276.314C387.316 278.968 383.529 278.526 379.297 277.491Z" fill="#233862"/>
<path d="M419.501 223.532L427.223 244.296L437.305 271.408C437.305 271.408 440.04 271.671 442.662 270.919C445.074 270.223 447.841 268.398 447.841 268.398C447.841 268.398 445.041 239.288 439.821 222.578C438.483 218.288 436.982 214.818 435.327 212.866C427.232 203.307 419.501 223.532 419.501 223.532Z" fill="#233862"/>
<path d="M427.353 190.556C432.411 188.924 446.84 191.019 461.334 193.853L464.37 188.851L495.674 186.408C495.674 186.408 506.005 209.301 500.348 223.889C499.518 226.034 497.865 227.407 495.051 227.454C495.051 227.456 494.596 227.452 494.594 227.454C494.594 227.454 475.962 227.444 469.911 227.444C454.343 227.444 436.962 216.75 434.714 216.3C431.035 215.565 429.563 222.919 425.881 230.642C422.202 238.365 391.289 264.843 391.289 264.843C391.289 264.843 386.538 264.89 384.576 264.155C382.467 263.364 381.693 262.337 381.693 262.337C381.693 262.337 415.944 194.235 427.353 190.556Z" fill="#2B478B"/>
<path d="M464.551 145.77C475.698 151.905 498.314 164.621 498.432 164.538C498.432 164.538 506.745 167.669 511.46 164.538C519.32 159.321 523.535 145.283 509.161 133.202C501.993 127.177 496.899 125.71 496.125 116.088C495.705 110.869 488.565 93.6415 476.703 95.2364C475.712 95.3703 469.611 95.6544 465.6 97.7586C455.381 103.122 447.839 143.396 464.551 145.77Z" fill="#233862"/>
<path d="M473.895 140.549C473.846 140.582 479.379 142.469 483.081 140.831C486.561 139.293 489.199 133.571 489.148 133.567C487.564 133.494 485.826 132.11 484.486 123.032L483.812 123.273L472.474 127.35C472.474 127.35 473.296 130.986 473.826 134.446C474.275 137.354 474.514 140.138 473.895 140.549Z" fill="#FFB27D"/>
<path d="M472.474 127.35C472.474 127.35 473.296 130.986 473.826 134.446C480.338 133.275 482.894 126.79 483.81 123.271L472.474 127.35Z" fill="#ED975D"/>
<path d="M470.786 130.96C470.786 130.96 486.297 128.88 484.854 119.245C483.408 109.611 484.437 102.856 474.471 103.775C464.506 104.696 463.137 108.659 462.839 111.993C462.536 115.325 466.713 131.252 470.786 130.96Z" fill="#FFB27D"/>
<path d="M463.401 106.711C463.401 106.711 473.33 115.262 480.086 115.952C486.839 116.642 489.398 114.475 489.398 114.475C489.398 114.475 485.416 111.171 483.02 105.841C482.313 104.27 480.823 103.191 479.105 103.043C474.283 102.627 465.139 102.438 463.401 106.711Z" fill="#233862"/>
<path d="M469.608 105.946C469.608 105.946 466.287 109.156 465.241 111.537C464.232 113.834 463.929 119.329 464.733 121.512C464.733 121.512 459.558 111.453 462.488 106.567C465.594 101.387 469.608 105.946 469.608 105.946Z" fill="#233862"/>
<path d="M460.833 163.384C461.302 194.762 460.961 188.206 464.396 191.183C465.225 191.899 467.552 192.327 470.614 192.528C480.242 193.167 497.167 191.583 497.81 189.803C500.032 183.651 498.464 181.739 500.316 172.32C500.509 171.318 500.749 170.234 501.029 169.053C502.574 162.584 504.077 160.382 498.596 149.989C493.626 140.574 488.462 132.932 487.997 133.208C474.884 140.988 473.826 134.448 473.826 134.448C473.826 134.448 460.603 148.078 460.833 163.384Z" fill="white"/>
<path d="M427.224 244.296L437.305 271.408C437.305 271.408 440.04 271.671 442.662 270.919C445.074 270.223 447.841 268.398 447.841 268.398C447.841 268.398 445.041 239.288 439.821 222.578L427.224 244.296Z" fill="#2B478B"/>
<path d="M473.826 134.448C473.826 134.448 460.333 136.735 458.747 142.54C457.161 148.345 447.837 182.478 447.837 182.478C447.837 182.478 454.696 183.71 457.866 180.542C461.036 177.375 468.892 151.162 468.892 151.162L473.826 134.448Z" fill="white"/>
<path d="M470.614 192.53C480.242 193.169 497.167 191.585 497.81 189.805C500.032 183.653 498.464 181.741 500.316 172.322L495.672 159.254C495.672 159.254 496.44 173.807 492.145 177.634C487.855 181.461 474.563 185.022 472.474 188.22C471.469 189.754 470.807 191.295 470.614 192.53Z" fill="#EBF3FF"/>
<path d="M481.645 186.41C481.645 186.41 472.147 184.296 470.614 185.14C469.08 185.982 465.334 189.05 464.865 190.118C464.396 191.185 468.276 189.308 469.539 188.969C470.358 188.75 472.51 189.497 473.574 189.852C478.057 191.345 480.805 190.576 480.805 190.576L481.645 186.41Z" fill="#FFB27D"/>
<path d="M488.007 133.202C488.007 133.202 500.763 133.987 505.177 140.142C511.393 148.804 523.722 185.725 516.656 190.649C508.698 196.195 480.437 192.1 480.437 192.1C480.437 192.1 479.497 187.707 480.805 185.582C482.112 183.458 503.376 180.025 504.359 179.045C505.34 178.064 492.092 159.92 492.092 156.978C492.092 154.035 488.007 133.202 488.007 133.202Z" fill="white"/>
<path d="M470.153 187.78C470.153 187.78 468.163 190.345 467.511 190.651C466.859 190.958 466.437 190.881 466.437 190.881L467.779 188.468L470.153 187.78Z" fill="#FFB27D"/>
<path d="M470.614 185.138L464.827 187.946C464.827 187.946 465.072 188.348 465.785 188.316C466.498 188.283 468.295 187.626 468.295 187.626L470.614 185.138Z" fill="#FFB27D"/>
<path d="M467.511 194.582H421.735L407.966 160.364H453.671L467.511 194.582Z" fill="#F99746"/>
<path d="M421.199 193.249H481.645V194.582H421.735L421.199 193.249Z" fill="#ED7D2B"/>
<path d="M433.291 177.474C432.945 176.271 433.642 175.297 434.846 175.297C436.05 175.297 437.305 176.273 437.65 177.474C437.996 178.677 437.299 179.651 436.095 179.651C434.891 179.651 433.636 178.675 433.291 177.474Z" fill="white"/>
<path d="M51.5408 208.021L50.5662 208.696C49.5265 209.417 48.093 209.157 47.3701 208.118L41.7009 199.945C40.9801 198.906 41.24 197.471 42.2796 196.751L43.6766 195.783C43.8797 195.641 44.1599 195.692 44.302 195.897C44.4441 196.099 44.3934 196.38 44.1883 196.522L42.7913 197.489C42.1578 197.928 41.9994 198.8 42.438 199.433L48.1072 207.607C48.5458 208.24 49.4189 208.398 50.0524 207.96L51.0271 207.284C51.6606 206.846 51.819 205.973 51.3804 205.34L47.6158 199.914C47.4737 199.711 47.5244 199.431 47.7295 199.289C47.9326 199.147 48.2128 199.198 48.3549 199.403L52.1195 204.829C52.8424 205.868 52.5825 207.3 51.5408 208.021Z" fill="#AFCDFB"/>
<path d="M57.7562 216.083L56.0079 217.294C54.3855 218.418 52.0849 217.919 50.8808 216.182L42.3567 203.893C42.2146 203.691 42.2653 203.411 42.4704 203.268C42.6735 203.126 42.9537 203.177 43.0958 203.382L51.6199 215.671C52.5418 217.002 54.2819 217.4 55.4962 216.557L57.2445 215.346C58.4608 214.504 58.6983 212.737 57.7744 211.407L48.0665 197.408C47.1447 196.077 45.4045 195.681 44.1882 196.522C43.9852 196.664 43.705 196.613 43.5628 196.408C43.4207 196.205 43.4715 195.925 43.6766 195.783C45.2989 194.659 47.5995 195.158 48.8036 196.895L58.5115 210.894C59.7176 212.631 59.3786 214.958 57.7562 216.083Z" fill="#AFCDFB"/>
<path d="M69.4825 280.269L69.6937 282C69.917 283.848 68.5952 285.535 66.7474 285.758L52.2129 287.521C50.3631 287.746 48.6758 286.423 48.4524 284.577L48.1519 282.097C48.1072 281.734 48.3651 281.405 48.7285 281.363C49.09 281.318 49.421 281.576 49.4636 281.939L49.7641 284.419C49.9002 285.543 50.9276 286.348 52.0525 286.21L66.587 284.447C67.7119 284.311 68.518 283.284 68.3799 282.16L68.1687 280.429C68.0327 279.305 67.0053 278.499 65.8804 278.637L56.2313 279.808C55.8679 279.853 55.5389 279.593 55.4963 279.232C55.4516 278.869 55.7115 278.54 56.0729 278.497L65.722 277.327C67.5697 277.101 69.2571 278.422 69.4825 280.269Z" fill="#AFCDFB"/>
<path d="M84.2443 277.72L84.622 280.823C84.9712 283.704 82.7437 286.352 79.6533 286.728L57.8008 289.378C57.4374 289.422 57.1084 289.163 57.0658 288.801C57.0211 288.438 57.281 288.109 57.6425 288.067L79.4949 285.417C81.8605 285.131 83.5722 283.14 83.3102 280.983L82.9326 277.881C82.6706 275.721 80.5325 274.2 78.1669 274.488L53.2748 277.507C50.9093 277.793 49.1975 279.784 49.4595 281.941C49.5041 282.304 49.2442 282.633 48.8828 282.675C48.5193 282.72 48.1904 282.462 48.1477 282.099C47.7985 279.218 50.026 276.57 53.1164 276.194L78.0086 273.175C81.097 272.8 83.895 274.839 84.2443 277.72Z" fill="#AFCDFB"/>
<path d="M321.15 75.2019C321.406 74.12 320.735 73.0358 319.653 72.7804C318.57 72.5249 317.485 73.1948 317.23 74.2767C316.974 75.3586 317.644 76.4428 318.727 76.6983C319.81 76.9538 320.895 76.2838 321.15 75.2019Z" fill="#F99746"/>
<path d="M591.332 310H3.77278C3.40525 310 3.10474 309.7 3.10474 309.332V309.105C3.10474 308.738 3.40525 308.438 3.77278 308.438H591.332C591.7 308.438 592 308.738 592 309.105V309.332C592 309.7 591.7 310 591.332 310Z" fill="#2E3552"/>
</g>
<defs>
<clipPath id="clip0_3_3041">
<rect width="592" height="310" fill="white"/>
</clipPath>
</defs>
</svg>
