<svg width="480" height="267" viewBox="0 0 480 267" fill="none" xmlns="http://www.w3.org/2000/svg">
<g clip-path="url(#clip0_3_3021)">
<path d="M298.553 23.9846L305.038 17.7203C303.01 6.3939 292.364 0.943139 285.354 0.201908C266.476 -1.79881 256.854 11.1547 252.802 31.9302C245.412 69.8505 254.716 229.077 254.716 229.077C255.414 224.849 306.684 64.9482 305.37 21.0167L298.553 23.9846Z" fill="#96D9C9"/>
<path d="M57.4802 161.947L56.7828 167.099L55.1132 161.139C50.4156 159.663 46.3368 159.157 43.1033 159.889C14.2108 166.443 64.1373 206.098 64.1373 206.098C64.1373 206.098 48.2267 196.128 32.8143 189.816L32.6181 195.04L30.6466 189.138C18.673 184.458 7.56278 182.298 5.34375 189.053C3.25455 195.411 7.46013 201.431 14.6969 206.792L23.0144 207.084L18.1114 209.136C34.825 219.82 62.4707 227.462 72.014 229.2C62.8843 227.769 40.5673 224.87 27.3407 227.721L29.4149 231.168L24.1918 228.561C19.5636 230.053 16.6864 232.518 16.9974 236.405C17.5891 243.832 49.8842 246.508 49.8842 246.508L167.861 245.414L168.519 245.742C168.522 245.742 95.5115 175.853 57.4802 161.947Z" fill="#3C8F7C"/>
<path d="M467.169 228.248C464.545 216.09 437.908 212.516 403.955 219.182C416.044 215.06 432.655 205.674 441.256 201.386L435.372 197.65L447.189 198.198C456.853 192.551 461.686 187.004 458.528 181.987C456.17 178.239 450.996 176.681 443.985 176.699L440.293 183.295L441.06 176.793C423.374 177.811 419.362 174.931 395.502 184.555C410.41 176.829 412.566 174.433 413.544 171.333L405.468 167.808H414.93C422.58 159.597 434.714 143.35 429.681 135.862C425.527 129.682 407.295 138.261 395.656 142.717L390.708 153.833L391.71 144.335C354.705 160.422 367.25 147.514 367.25 147.514C367.25 147.514 405.876 67.7654 383.121 69.5582C374.136 70.2663 364.478 75.6689 354.989 84.3286L354.748 92.2562L351.925 87.2273C345.014 93.9887 338.17 102.175 331.64 110.965C340.497 92.4008 347.215 74.1623 347.882 60.5881L341.122 59.7716L347.795 55.1404C347.167 48.2795 344.443 43.0939 338.928 40.3489C330.468 36.1426 321.589 42.5063 312.846 55.1554L315.004 66.5722L309.582 60.1753C278.28 111.079 249.66 236.429 249.66 236.429L247.389 243.226L339.35 247.758C339.35 247.761 472.47 252.802 467.169 228.248Z" fill="#50BFA5"/>
<path d="M478.563 248.364H1.43708C0.643063 248.364 0 247.683 0 246.842C0 246.001 0.643063 245.32 1.43708 245.32H478.566C479.36 245.32 480.003 246.001 480.003 246.842C480 247.683 479.357 248.364 478.563 248.364Z" fill="#184655"/>
<path d="M331.932 194.356H116.25C108.01 194.356 101.332 188.309 101.332 180.848V172.818C101.332 165.358 108.01 159.311 116.25 159.311H331.932C322.066 169.076 321.897 183.997 331.537 193.947L331.932 194.356Z" fill="#86B1F2"/>
<path d="M328.91 163.327H220.374C212.899 163.327 206.84 169.374 206.84 176.835C206.84 184.295 212.899 190.343 220.374 190.343H328.919C323.847 182.054 323.859 171.592 328.91 163.327Z" fill="#FAE0B2"/>
<path d="M350.331 121.005C350.805 120.194 350.086 119.257 348.993 119.257H149.115C135.653 119.257 124.739 128.245 124.739 139.333C124.739 150.422 135.653 159.41 149.115 159.41H349.039C350.134 159.41 350.856 158.467 350.379 157.653C343.577 146.047 343.595 132.557 350.331 121.005Z" fill="#100062"/>
<path d="M348.96 123.575H205.605C197.091 123.575 190.19 130.463 190.19 138.96V140.114C190.19 148.611 197.091 155.499 205.605 155.499H349.208C344.042 145.266 343.985 133.801 348.96 123.575Z" fill="#FAE0B2"/>
<path d="M248.223 139.662H236.361C233.81 139.662 231.741 140.451 231.741 141.425V141.581H248.223V139.662Z" fill="#FF4C16"/>
<path d="M258.342 144.085C258.342 141.641 255.245 139.662 251.423 139.662H236.201C239.099 139.662 241.448 141.162 241.448 143.015L241.375 190.424L249.786 184.329L258.361 190.424L258.342 144.085Z" fill="#F47458"/>
<path d="M420.612 194.284H100.131C90.1797 194.284 82.1097 202.335 82.1097 212.269V227.395C82.1097 237.327 90.1767 245.381 100.131 245.381H420.612L420.443 245.206C406.733 230.963 406.808 208.437 420.612 194.284Z" fill="#FF3B3B"/>
<path d="M414.939 201.847H243.615C233.664 201.847 225.594 209.898 225.594 219.832C225.594 229.764 233.661 237.818 243.615 237.818H414.936C408.638 226.681 408.647 212.974 414.939 201.847Z" fill="#FAE0B2"/>
<path d="M330.818 219.926H316.925C313.936 219.926 311.514 222.342 311.514 225.325V225.807H330.818V219.926Z" fill="#13375B"/>
<path d="M317.495 219.947C320.816 219.944 325.776 222.749 328.572 226.211L361.525 267L380.881 266.988L349.54 228.194C345.85 223.629 339.314 219.932 334.933 219.935L317.495 219.947Z" fill="#355389"/>
</g>
<defs>
<clipPath id="clip0_3_3021">
<rect width="480" height="267" fill="white"/>
</clipPath>
</defs>
</svg>
