<svg width="127" height="38" viewBox="0 0 127 38" fill="none" xmlns="http://www.w3.org/2000/svg">
<path fill-rule="evenodd" clip-rule="evenodd" d="M122.32 37.2472H5.3636C2.78419 37.2472 0.683487 35.148 0.683487 32.5913V4.6559C0.683487 2.08993 2.78419 0 5.3636 0H122.32C124.897 0 127 2.08993 127 4.6559V32.5913C127 35.148 124.897 37.2472 122.32 37.2472Z" fill="black"/>
<path fill-rule="evenodd" clip-rule="evenodd" d="M122.32 0.745408C124.483 0.745408 126.254 2.50327 126.254 4.6559V32.5913C126.254 34.7439 124.495 36.5018 122.32 36.5018H5.3636C3.20015 36.5018 1.42942 34.7439 1.42942 32.5913V4.6559C1.42942 2.50327 3.18853 0.745408 5.3636 0.745408C5.3636 0.745408 122.32 0.745408 122.32 0.745408ZM122.32 0H5.3636C2.78419 0 0.683487 2.09922 0.683487 4.6559V32.5913C0.683487 35.1573 2.78419 37.2472 5.3636 37.2472H122.32C124.897 37.2472 127 35.1573 127 32.5913V4.6559C127 2.09922 124.897 0 122.32 0Z" fill="#A6A6A6"/>
<path d="M67.2275 12.3214C66.384 12.3214 65.6729 12.0265 65.1105 11.4459C64.5528 10.8816 64.2414 10.1037 64.2554 9.30955C64.2554 8.46196 64.5435 7.74442 65.1105 7.1755C65.6706 6.59496 66.3816 6.30005 67.2252 6.30005C68.0594 6.30005 68.7705 6.59496 69.3421 7.1755C69.9091 7.763 70.1973 8.48054 70.1973 9.30955C70.188 10.1595 69.8999 10.877 69.3421 11.4436C68.7821 12.0288 68.071 12.3214 67.2275 12.3214ZM42.1283 12.3214C41.3033 12.3214 40.5876 12.0311 40.002 11.4575C39.4211 10.8863 39.1259 10.1641 39.1259 9.31187C39.1259 8.45964 39.4211 7.73746 40.002 7.16621C40.576 6.59264 41.2917 6.30237 42.1283 6.30237C42.5373 6.30237 42.9346 6.38365 43.3157 6.54852C43.6899 6.70875 43.9943 6.92703 44.2197 7.19407L44.2755 7.26142L43.6457 7.87911L43.5806 7.80248C43.2251 7.37985 42.7487 7.17317 42.119 7.17317C41.5566 7.17317 41.0663 7.37288 40.662 7.76764C40.2553 8.16473 40.0485 8.68489 40.0485 9.31419C40.0485 9.94349 40.2553 10.4637 40.662 10.8607C41.0663 11.2555 41.5566 11.4552 42.119 11.4552C42.7185 11.4552 43.2228 11.2555 43.6155 10.8607C43.8479 10.6285 43.992 10.3034 44.0431 9.8924H42.0237V9.02392H44.9098L44.9215 9.10288C44.9424 9.24917 44.9633 9.40011 44.9633 9.53944C44.9633 10.3406 44.7216 10.9885 44.2429 11.4668C43.6992 12.0334 42.9881 12.3214 42.1283 12.3214ZM75.5002 12.1983H74.6102L71.8844 7.83963L71.9076 8.62451V12.196H71.0176V6.42545H72.0331L72.061 6.46957L74.6241 10.5751L74.6009 9.79255V6.42545H75.5002V12.1983V12.1983ZM60.5396 12.1983H59.638V7.29393H58.0741V6.42545H62.1012V7.29393H60.5373V12.1983H60.5396ZM57.3398 12.1983H56.4405V6.42545H57.3398V12.1983ZM52.2856 12.1983H51.3862V7.29393H49.8223V6.42545H53.8495V7.29393H52.2856V12.1983ZM49.253 12.189H45.8045V6.42545H49.253V7.29393H46.7061V8.87763H49.0044V9.73682H46.7061V11.3205H49.253V12.189ZM65.7705 10.8491C66.1725 11.2509 66.6605 11.4529 67.2275 11.4529C67.8108 11.4529 68.2871 11.2555 68.6845 10.8491C69.0796 10.4544 69.2794 9.93653 69.2794 9.31187C69.2794 8.68721 69.0796 8.16705 68.6868 7.77461C68.2848 7.37288 67.7945 7.17085 67.2298 7.17085C66.6465 7.17085 66.1702 7.36823 65.7751 7.77461C65.3801 8.16937 65.1802 8.68721 65.1802 9.31187C65.1802 9.93653 65.3778 10.4567 65.7705 10.8491Z" fill="white"/>
<path fill-rule="evenodd" clip-rule="evenodd" d="M64.1717 20.2582C61.9757 20.2582 60.1957 21.9232 60.1957 24.2198C60.1957 26.4955 61.9874 28.1814 64.1717 28.1814C66.3677 28.1814 68.1477 26.5048 68.1477 24.2198C68.1477 21.9232 66.3677 20.2582 64.1717 20.2582ZM64.1717 26.6116C62.9703 26.6116 61.9362 25.6178 61.9362 24.2105C61.9362 22.7824 62.9727 21.8094 64.1717 21.8094C65.3731 21.8094 66.4072 22.7824 66.4072 24.2105C66.4095 25.627 65.3731 26.6116 64.1717 26.6116ZM55.497 20.2582C53.301 20.2582 51.521 21.9232 51.521 24.2198C51.521 26.4955 53.3127 28.1814 55.497 28.1814C57.693 28.1814 59.473 26.5048 59.473 24.2198C59.473 21.9232 57.6907 20.2582 55.497 20.2582ZM55.497 26.6116C54.2956 26.6116 53.2615 25.6178 53.2615 24.2105C53.2615 22.7824 54.2979 21.8094 55.497 21.8094C56.6984 21.8094 57.7325 22.7824 57.7325 24.2105C57.7325 25.627 56.6984 26.6116 55.497 26.6116ZM45.1747 21.4681V23.1447H49.2019C49.0787 24.0851 48.7673 24.7795 48.2909 25.2555C47.7007 25.8453 46.7898 26.4862 45.184 26.4862C42.7092 26.4862 40.7735 24.4892 40.7735 22.0161C40.7735 19.543 42.7092 17.546 45.184 17.546C46.5202 17.546 47.4939 18.0731 48.2166 18.7465L49.4064 17.5576C48.4025 16.5962 47.0663 15.8601 45.1933 15.8601C41.7983 15.8601 38.9493 18.6235 38.9493 22.0068C38.9493 25.3995 41.796 28.1535 45.1933 28.1535C47.0268 28.1535 48.4025 27.5544 49.49 26.4259C50.5985 25.3182 50.9494 23.7554 50.9494 22.4945C50.9494 22.102 50.9192 21.7491 50.8564 21.4495H45.1724C45.1747 21.4472 45.1747 21.4681 45.1747 21.4681ZM87.3957 22.7731C87.0634 21.8837 86.0595 20.249 84.0006 20.249C81.9603 20.249 80.264 21.8536 80.264 24.2105C80.264 26.4351 81.9417 28.1721 84.1981 28.1721C86.0107 28.1721 87.0657 27.0644 87.5002 26.4142L86.1548 25.5133C85.7086 26.1751 85.0882 26.6093 84.2074 26.6093C83.3174 26.6093 82.6947 26.2053 82.281 25.4088L87.5816 23.2143C87.5816 23.2167 87.3957 22.7731 87.3957 22.7731ZM81.9905 24.0967C81.9487 22.5665 83.1803 21.7885 84.061 21.7885C84.7559 21.7885 85.3345 22.1299 85.532 22.6268L81.9905 24.0967ZM77.6846 27.9353H79.4251V16.2967H77.6846V27.9353ZM74.8263 21.1383H74.7636C74.3708 20.6716 73.6249 20.249 72.6721 20.249C70.6946 20.249 68.8727 21.9882 68.8727 24.2221C68.8727 26.4468 70.6853 28.1651 72.6721 28.1651C73.6133 28.1651 74.3708 27.7402 74.7636 27.2642H74.8263V27.8331C74.8263 29.3448 74.0176 30.1599 72.714 30.1599C71.6474 30.1599 70.9851 29.3936 70.7155 28.7526L69.2027 29.3843C69.6373 30.4292 70.7969 31.7227 72.7117 31.7227C74.7519 31.7227 76.4808 30.5221 76.4808 27.5939V20.4858H74.8356V21.1383C74.8379 21.1383 74.8263 21.1383 74.8263 21.1383ZM72.8278 26.6116C71.6264 26.6116 70.6226 25.6085 70.6226 24.2221C70.6226 22.8242 71.6264 21.8118 72.8278 21.8118C74.0176 21.8118 74.9402 22.8358 74.9402 24.2221C74.9518 25.6085 74.0199 26.6116 72.8278 26.6116ZM95.5452 16.2967H91.3833V27.9353H93.1238V23.5278H95.5475C97.474 23.5278 99.3678 22.1322 99.3678 19.9169C99.3678 17.7016 97.4809 16.2967 95.5452 16.2967ZM95.5963 21.9023H93.1215V17.9082H95.5963C96.9 17.9082 97.6366 18.9834 97.6366 19.9053C97.6366 20.8179 96.8907 21.9023 95.5963 21.9023ZM106.344 20.2373C105.08 20.2373 103.776 20.797 103.237 22.0161L104.78 22.657C105.112 22.0161 105.721 21.7978 106.365 21.7978C107.266 21.7978 108.177 22.3366 108.198 23.2979V23.421C107.887 23.2445 107.204 22.9752 106.386 22.9752C104.72 22.9752 103.03 23.8854 103.03 25.5922C103.03 27.155 104.397 28.1582 105.919 28.1582C107.087 28.1582 107.731 27.631 108.133 27.0203H108.196V27.9213H109.874V23.4628C109.874 21.3868 108.331 20.2373 106.344 20.2373ZM106.125 26.6116C105.556 26.6116 104.759 26.333 104.759 25.6178C104.759 24.7168 105.754 24.3754 106.602 24.3754C107.369 24.3754 107.731 24.5403 108.187 24.7678C108.061 25.8128 107.178 26.6023 106.125 26.6116ZM115.995 20.4858L113.996 25.5342H113.933L111.863 20.4858H109.99L113.097 27.5428L111.326 31.4649H113.139L117.919 20.4858H115.995ZM100.328 27.9353H102.068V16.2967H100.328V27.9353Z" fill="white"/>
<path fill-rule="evenodd" clip-rule="evenodd" d="M10.4062 7.01509C10.1367 7.30536 9.98097 7.74889 9.98097 8.32942V28.9199C9.98097 29.5004 10.1367 29.9439 10.4155 30.2226L10.4876 30.2853L22.0321 18.7489V18.4911L10.4783 6.95239L10.4062 7.01509Z" fill="url(#paint0_linear)"/>
<path fill-rule="evenodd" clip-rule="evenodd" d="M25.8734 22.6061L22.0229 18.7583V18.4889L25.8734 14.6411L25.957 14.6922L30.5117 17.2791C31.8153 18.0129 31.8153 19.225 30.5117 19.9681L25.957 22.555L25.8734 22.6061Z" fill="url(#paint1_linear)"/>
<path fill-rule="evenodd" clip-rule="evenodd" d="M25.957 22.5549L22.0228 18.6235L10.4062 30.2319C10.8315 30.6871 11.5449 30.7382 12.3419 30.2946L25.957 22.5549Z" fill="url(#paint2_linear)"/>
<path fill-rule="evenodd" clip-rule="evenodd" d="M25.957 14.6921L12.3419 6.96396C11.5449 6.50882 10.8291 6.57152 10.4062 7.02666L22.0228 18.6234L25.957 14.6921Z" fill="url(#paint3_linear)"/>
<path opacity="0.2" fill-rule="evenodd" clip-rule="evenodd" d="M25.8734 22.4712L12.3513 30.1482C11.596 30.5824 10.9221 30.5522 10.4876 30.1575L10.4155 30.2295L10.4876 30.2922C10.9221 30.6846 11.596 30.7171 12.3513 30.2829L25.9663 22.5548L25.8734 22.4712Z" fill="black"/>
<path opacity="0.12" fill-rule="evenodd" clip-rule="evenodd" d="M30.5117 19.8334L25.8618 22.4713L25.9454 22.5549L30.5 19.9681C31.153 19.5965 31.4737 19.1089 31.4737 18.6235C31.4342 19.0694 31.1019 19.492 30.5117 19.8334Z" fill="black"/>
<path opacity="0.25" fill-rule="evenodd" clip-rule="evenodd" d="M12.3419 7.0988L30.5116 17.4138C31.1019 17.7458 31.4342 18.1801 31.4853 18.6236C31.4853 18.1383 31.1646 17.6506 30.5116 17.2791L12.3419 6.96411C11.0383 6.21871 9.98097 6.84104 9.98097 8.32953V8.46422C9.98097 6.9734 11.0383 6.36268 12.3419 7.0988Z" fill="white"/>
<defs>
<linearGradient id="paint0_linear" x1="20.9966" y1="8.10727" x2="2.50592" y2="13.0376" gradientUnits="userSpaceOnUse">
<stop stop-color="#00A0FF"/>
<stop offset="0.00657" stop-color="#00A1FF"/>
<stop offset="0.2601" stop-color="#00BEFF"/>
<stop offset="0.5122" stop-color="#00D2FF"/>
<stop offset="0.7604" stop-color="#00DFFF"/>
<stop offset="1" stop-color="#00E3FF"/>
</linearGradient>
<linearGradient id="paint1_linear" x1="32.2117" y1="18.6236" x2="9.66415" y2="18.6236" gradientUnits="userSpaceOnUse">
<stop stop-color="#FFE000"/>
<stop offset="0.4087" stop-color="#FFBD00"/>
<stop offset="0.7754" stop-color="#FFA500"/>
<stop offset="1" stop-color="#FF9C00"/>
</linearGradient>
<linearGradient id="paint2_linear" x1="23.8178" y1="20.7628" x2="8.98767" y2="45.7407" gradientUnits="userSpaceOnUse">
<stop stop-color="#FF3A44"/>
<stop offset="1" stop-color="#C31162"/>
</linearGradient>
<linearGradient id="paint3_linear" x1="7.48103" y1="0.166343" x2="14.0973" y2="11.3219" gradientUnits="userSpaceOnUse">
<stop stop-color="#32A071"/>
<stop offset="0.0685" stop-color="#2DA771"/>
<stop offset="0.4762" stop-color="#15CF74"/>
<stop offset="0.8009" stop-color="#06E775"/>
<stop offset="1" stop-color="#00F076"/>
</linearGradient>
</defs>
</svg>
