<svg width="584" height="586" viewBox="0 0 584 586" fill="none" xmlns="http://www.w3.org/2000/svg">
<g clip-path="url(#clip0_3_861)">
<path d="M581.41 586H2.58972C1.15838 586 0 584.842 0 583.411V582.516C0 581.089 1.15838 579.927 2.58972 579.927H581.414C582.842 579.927 584.004 581.085 584.004 582.516V583.411C584 584.842 582.842 586 581.41 586Z" fill="#55769F"/>
<path d="M345.903 258.847C355.251 225.925 370.176 214.899 384.388 198.632C393.564 189.666 400.774 178.416 405.022 165.375C419.077 122.245 395.493 75.8938 352.346 61.845C309.199 47.7961 262.829 71.3706 248.774 114.5C244.018 129.098 243.578 144.067 246.745 158.025C252.61 189.796 286.969 216.298 290.77 255.419C290.77 255.419 307.656 262.503 345.903 258.847Z" fill="#FFC61C"/>
<path d="M267.414 172.707C264.246 158.746 264.687 143.78 269.443 129.182C283.498 86.0528 329.868 62.4783 373.015 76.5272C376.934 77.804 380.693 79.3502 384.277 81.1343C375.535 72.5987 364.752 65.8856 352.35 61.8487C309.203 47.7998 262.833 71.3743 248.778 114.504C244.022 129.102 243.581 144.071 246.748 158.029C252.61 189.796 286.97 216.298 290.77 255.419C290.77 255.419 296.719 257.913 309.549 259.179C301.308 225.848 272.716 201.431 267.414 172.707Z" fill="#F0BD22"/>
<path d="M260.803 99.9371C255.284 100.105 248.904 99.7936 246.104 103.628C243.305 107.458 247 116.648 248.652 120.013C256.778 114.63 258.822 113.951 264.246 116.225C269.671 118.499 277.076 120.094 279.701 126.982C287.225 122.675 283.375 115.123 283.55 111.464C283.725 107.808 282.85 99.9371 275.676 98.8876C268.502 97.8381 265.338 99.7971 260.803 99.9371Z" fill="#026EAF"/>
<path d="M347.614 174.225C353.375 157.794 359.961 143.644 366.911 133.527L368.696 134.8C347.926 165.025 330.428 231.883 328.86 287.008L326.666 286.987C327.722 249.86 335.982 207.406 347.614 174.225Z" fill="#FF5500"/>
<path d="M289.867 133.653L291.921 132.817C316.352 199.027 312.933 266.837 311.302 286.042L309.115 285.895C310.739 266.809 314.137 199.426 289.867 133.653Z" fill="#FF5500"/>
<path d="M284.785 259.732C285.079 256.055 288.299 253.316 291.974 253.61L345.854 257.913C349.532 258.207 352.272 261.425 351.978 265.098C351.684 268.775 348.465 271.514 344.79 271.22L290.91 266.917C287.235 266.623 284.492 263.409 284.785 259.732Z" fill="#55769F"/>
<path d="M283.722 273.043C284.016 269.366 287.235 266.627 290.91 266.921L344.79 271.224C348.468 271.517 351.209 274.736 350.915 278.409C350.621 282.086 347.401 284.825 343.726 284.531L289.846 280.228C286.172 279.934 283.428 276.716 283.722 273.043Z" fill="#55769F"/>
<path d="M282.658 286.353C282.952 282.677 286.171 279.938 289.846 280.231L343.726 284.534C347.404 284.828 350.145 288.046 349.851 291.72C349.557 295.396 346.337 298.135 342.662 297.841L288.782 293.539C285.108 293.245 282.364 290.026 282.658 286.353Z" fill="#55769F"/>
<path d="M281.594 299.661C281.888 295.984 285.107 293.245 288.782 293.539L342.662 297.841C346.34 298.135 349.081 301.354 348.787 305.027C348.493 308.703 345.273 311.443 341.598 311.149L287.718 306.846C284.044 306.556 281.3 303.337 281.594 299.661Z" fill="#55769F"/>
<path d="M366.736 138.746C365.141 140.558 363.272 142.895 360.927 143.63C357.459 144.714 356.29 140.523 355.825 137.886C355.58 136.493 355.373 130.753 352.986 131.596C351.632 132.075 350.435 133.314 349.427 134.318C348.16 135.584 346.992 136.945 345.763 138.253C344.297 139.81 340.605 144.217 338.456 141.436C337.571 140.341 337.172 138.83 336.734 137.501C336.199 135.871 335.712 134.223 335.047 132.645C334.568 131.508 333.78 129.424 332.437 129.126C331.103 128.832 329.882 130.718 329.245 131.659C327.352 134.461 326.249 137.749 324.247 140.474C323.481 141.52 322.435 142.629 321.077 142.643C319.596 142.699 318.624 141.272 318.018 140.093C316.828 137.781 316.09 135.234 315.068 132.838C314.893 132.425 314.008 130.539 313.357 130.879C312.041 131.561 311.197 133.324 310.525 134.587C309.161 137.162 308.139 141.44 305.318 142.773C302.403 144.015 300.17 140.562 298.529 138.708C297.346 137.371 294.322 133.338 292.215 134.968C291.078 135.846 290.371 137.35 289.731 138.617C289.076 139.908 288.488 141.23 287.865 142.535C287.711 142.86 287.753 143.025 287.421 142.902C287.246 142.839 287.494 142.269 287.533 142.122C287.876 140.775 288.247 139.432 288.674 138.11C289.213 136.43 289.853 134.618 291.162 133.39C292.562 132.079 294.434 132.31 295.988 133.09C297.706 133.954 299.173 135.325 300.562 136.647C301.227 137.28 301.867 137.942 302.532 138.575C302.896 138.921 303.88 139.579 304.006 139.733C304.132 139.88 305.951 136.102 306.081 135.797C306.774 134.16 307.551 132.547 308.52 131.054C309.843 129.014 312.058 126.576 314.69 127.545C316.671 128.273 317.672 130.42 318.372 132.303C318.848 133.579 319.236 134.888 319.666 136.182C319.817 136.637 320.664 139.862 321.252 139.862C321.206 139.838 321.175 139.841 321.157 139.876C322.281 139.547 323.306 137.711 323.929 136.801C324.933 135.342 325.85 133.821 326.883 132.38C328.307 130.396 331.201 126.286 333.826 128.71C336.02 130.735 336.766 134.398 337.871 137.106C338.179 137.861 338.988 140.527 340.024 140.565C341.14 140.607 342.536 138.347 343.135 137.574C345.679 134.297 351.776 124.879 356.416 129.955C358.11 132.635 357.928 135.706 358.351 138.771C358.488 139.754 358.736 141.835 359.94 142.045C361.326 142.286 363.041 140.943 364.133 140.198C364.721 139.796 365.305 139.383 365.882 138.963C366.18 138.743 366.519 138.274 366.736 138.746Z" fill="#FF5500"/>
<path d="M312.349 342.367C320.499 256.188 379.045 180.578 463.529 141.094C449.45 251.371 384.976 353.481 312.349 342.367Z" fill="#06B8A6"/>
<path d="M463.529 141.094C405.68 205.069 384.038 297.915 312.349 342.367C384.976 353.481 449.45 251.371 463.529 141.094Z" fill="#02CCC0"/>
<path d="M463.529 141.094C460.32 144.9 457.146 148.723 454.052 152.624C450.262 157.406 446.678 162.373 443.203 167.39C435.997 177.79 429.295 188.498 422.849 199.384C416.305 210.435 410.002 221.626 403.643 232.782C397.221 244.046 390.747 255.293 383.832 266.263C377.088 276.964 370.012 287.529 362.071 297.39C358.106 302.312 354.008 307.084 349.735 311.744C347.639 314.028 345.448 316.235 343.247 318.422C341.045 320.608 338.746 322.759 336.384 324.771C332.233 328.308 328.048 331.809 323.586 334.954C321.371 336.518 319.169 338.078 316.873 339.523C315.365 340.471 313.853 341.419 312.345 342.367C313.85 341.342 315.351 340.314 316.859 339.292C319.257 337.665 321.552 335.899 323.876 334.167C326.294 332.366 328.583 330.382 330.91 328.465C332.058 327.517 333.136 326.471 334.242 325.474C335.394 324.439 336.545 323.407 337.654 322.326C339.884 320.153 342.123 318.005 344.272 315.753C346.442 313.475 348.563 311.166 350.652 308.812C354.82 304.107 358.827 299.209 362.565 294.151C366.327 289.061 370.036 283.943 373.553 278.678C377.116 273.344 380.574 267.935 383.937 262.475C390.726 251.452 397.162 240.212 403.608 228.983C409.999 217.848 416.385 206.706 423.14 195.792C429.778 185.063 436.627 174.379 444.249 164.315C447.613 159.872 451.007 155.454 454.612 151.2C457.516 147.765 460.505 144.424 463.529 141.094Z" fill="white"/>
<path d="M348.993 238.907C348.426 250.336 347.891 261.817 348.636 273.256C348.836 276.331 348.979 279.406 349.21 282.477C349.441 285.563 349.767 288.641 350.078 291.72C350.62 297.097 351.376 302.477 352.318 307.798C350.841 302.911 349.931 297.838 349.119 292.804C348.118 286.609 347.551 280.358 347.198 274.092C346.848 267.823 346.9 261.541 347.222 255.275C347.502 249.825 348.164 244.434 348.969 239.04C348.979 238.998 348.986 238.953 348.993 238.907Z" fill="white"/>
<path d="M393.669 187.018C393.673 189.299 393.627 191.569 393.673 193.85C393.732 196.929 393.925 199.993 394.159 203.061C394.646 209.382 395.447 215.721 396.514 221.972C397.459 227.503 398.436 233.027 399.507 238.533C397.718 233.387 396.413 228.087 395.332 222.749C394.079 216.557 393.172 210.222 392.906 203.908C392.773 200.731 392.7 197.555 392.892 194.378C393.039 191.905 393.305 189.467 393.669 187.018Z" fill="white"/>
<path d="M337.623 322.987C342.995 324.096 348.402 324.407 353.875 324.033C360.174 323.599 366.411 322.542 372.563 321.143C375.573 320.458 378.575 319.737 381.55 318.904C376.91 321.136 371.832 322.584 366.82 323.714C360.734 325.086 354.39 325.796 348.157 325.313C344.521 325.03 341.031 324.281 337.623 322.987Z" fill="white"/>
<path d="M375.79 276.933C378.079 276.894 380.357 276.863 382.642 276.775C385.662 276.66 388.679 276.188 391.661 275.733C397.816 274.655 403.99 273.235 409.859 271.049C412.578 270.034 415.311 269.055 417.946 267.83C420.025 266.865 422.044 265.826 424.06 264.742C419.742 268.012 414.947 270.36 409.953 272.41C408.508 272.924 407.083 273.508 405.61 273.938C404.151 274.383 402.691 274.816 401.222 275.222C398.229 276.048 395.115 276.635 392.035 277.003C388.98 277.367 385.911 277.611 382.828 277.549C380.465 277.5 378.128 277.255 375.79 276.933Z" fill="white"/>
<path d="M426.429 191.909C428.858 191.443 431.29 191.101 433.677 190.429C436.536 189.624 439.346 188.69 442.055 187.466C447.245 185.119 452.204 182.229 456.715 178.738C453.061 183.069 448.032 186.486 442.853 188.725C440.085 189.922 437.254 190.831 434.289 191.398C431.689 191.888 429.096 192.01 426.457 191.905C426.45 191.909 426.44 191.909 426.429 191.909Z" fill="white"/>
<path d="M273.905 337.057C213.551 344.851 152.619 316.477 112.432 264.724C190.233 257.255 270.251 285.577 273.905 337.057Z" fill="#06B8A6"/>
<path d="M112.437 264.728C165.281 294.428 232.303 294.844 273.91 337.061C270.253 285.578 190.234 257.256 112.437 264.728Z" fill="#02CCC0"/>
<path d="M112.436 264.727C115.543 266.333 118.658 267.918 121.811 269.433C125.678 271.287 129.64 272.969 133.619 274.571C141.868 277.895 150.253 280.823 158.715 283.548C167.306 286.315 175.961 288.897 184.598 291.524C193.319 294.175 202.033 296.862 210.632 299.899C219.017 302.858 227.36 306.066 235.353 309.973C239.343 311.925 243.252 313.993 247.108 316.197C249.002 317.278 250.853 318.436 252.694 319.604C254.535 320.772 256.365 322.014 258.111 323.319C261.18 325.614 264.232 327.937 267.081 330.504C268.495 331.781 269.908 333.044 271.256 334.394C272.141 335.283 273.027 336.168 273.908 337.057C272.971 336.186 272.033 335.314 271.098 334.44C269.611 333.051 268.043 331.753 266.496 330.427C264.886 329.049 263.172 327.79 261.495 326.495C260.669 325.855 259.78 325.282 258.927 324.676C258.038 324.05 257.152 323.421 256.239 322.826C254.405 321.636 252.582 320.437 250.702 319.314C248.806 318.18 246.891 317.085 244.956 316.022C241.082 313.895 237.103 311.911 233.054 310.138C228.98 308.35 224.893 306.605 220.739 305.013C216.529 303.4 212.284 301.872 208.018 300.413C199.405 297.471 190.698 294.809 182.001 292.136C173.375 289.488 164.745 286.84 156.209 283.905C147.82 281.022 139.435 277.989 131.348 274.327C127.778 272.71 124.223 271.073 120.747 269.265C117.941 267.809 115.186 266.281 112.436 264.727Z" fill="white"/>
<path d="M197.277 328.01C205.2 326.625 213.159 325.208 220.886 322.924C222.961 322.308 225.05 321.735 227.119 321.098C229.197 320.461 231.259 319.758 233.323 319.069C236.925 317.862 240.498 316.512 243.997 315.039C240.876 316.809 237.541 318.219 234.216 319.555C230.125 321.203 225.925 322.564 221.684 323.774C217.439 324.988 213.124 325.925 208.777 326.677C204.998 327.332 201.197 327.713 197.375 328.003C197.344 328.007 197.309 328.01 197.277 328.01Z" fill="white"/>
<path d="M154.764 305.461C156.325 305.104 157.892 304.782 159.446 304.397C161.546 303.88 163.618 303.271 165.686 302.634C169.945 301.319 174.166 299.787 178.285 298.086C181.931 296.582 185.564 295.054 189.175 293.465C185.924 295.491 182.491 297.208 179.002 298.776C174.953 300.595 170.75 302.2 166.459 303.362C164.304 303.946 162.134 304.492 159.929 304.852C158.214 305.132 156.499 305.328 154.764 305.461Z" fill="white"/>
<path d="M256.694 322.752C256.62 318.901 255.994 315.147 254.888 311.453C253.614 307.203 251.92 303.096 250.006 299.098C249.068 297.142 248.106 295.197 247.077 293.287C249.327 296.121 251.108 299.374 252.662 302.631C254.545 306.587 256.018 310.824 256.655 315.168C257.023 317.708 257.051 320.216 256.694 322.752Z" fill="white"/>
<path d="M219.192 303.75C218.81 302.19 218.436 300.633 218.019 299.08C217.47 297.03 216.679 295.036 215.906 293.063C214.212 289.012 212.28 285.003 209.869 281.323C208.752 279.619 207.657 277.898 206.408 276.282C205.421 275.009 204.399 273.784 203.342 272.57C206.257 275.023 208.609 277.94 210.789 281.047C211.367 281.956 211.986 282.841 212.511 283.786C213.043 284.716 213.564 285.647 214.072 286.595C215.104 288.515 215.99 290.558 216.718 292.612C217.442 294.648 218.086 296.715 218.523 298.835C218.852 300.458 219.048 302.099 219.192 303.75Z" fill="white"/>
<path d="M153.032 282.254C152.335 280.662 151.723 279.049 150.893 277.517C149.899 275.684 148.821 273.903 147.562 272.238C145.147 269.048 142.393 266.095 139.302 263.549C142.841 265.378 145.962 268.296 148.304 271.497C149.553 273.207 150.617 275.005 151.467 276.95C152.206 278.654 152.692 280.414 153.032 282.236C153.032 282.243 153.032 282.25 153.032 282.254Z" fill="white"/>
<path d="M340.108 330.977C370.82 278.461 430.524 247.59 496.061 247.418C454.433 313.542 383.108 359.547 340.108 330.977Z" fill="#06B8A6"/>
<path d="M496.061 247.418C440.249 271.08 398.964 323.854 340.108 330.977C383.108 359.547 454.433 313.542 496.061 247.418Z" fill="#02CCC0"/>
<path d="M496.061 247.418C492.891 248.895 489.734 250.392 486.605 251.962C482.773 253.89 479.018 255.996 475.319 258.165C467.648 262.663 460.204 267.505 452.872 272.535C445.429 277.643 438.1 282.911 430.741 288.141C423.311 293.42 415.857 298.674 408.2 303.621C400.732 308.445 393.095 313.087 385.113 317.022C381.13 318.988 377.102 320.814 373 322.521C370.988 323.358 368.937 324.117 366.89 324.858C364.839 325.6 362.736 326.289 360.636 326.873C356.944 327.898 353.238 328.892 349.465 329.577C347.59 329.917 345.724 330.263 343.835 330.504C342.592 330.662 341.346 330.819 340.104 330.977C341.367 330.767 342.627 330.557 343.891 330.35C345.903 330.022 347.887 329.577 349.882 329.161C351.957 328.727 354.001 328.14 356.052 327.608C357.063 327.345 358.061 326.996 359.061 326.688C360.101 326.366 361.144 326.051 362.169 325.691C364.234 324.967 366.299 324.26 368.332 323.459C370.39 322.651 372.427 321.808 374.453 320.923C378.505 319.156 382.505 317.222 386.387 315.102C390.292 312.968 394.173 310.806 397.97 308.49C401.82 306.143 405.627 303.719 409.386 301.235C416.977 296.218 424.406 290.957 431.84 285.71C439.21 280.504 446.58 275.292 454.118 270.332C461.527 265.459 469.055 260.673 476.894 256.514C480.351 254.677 483.827 252.865 487.382 251.221C490.252 249.892 493.146 248.646 496.061 247.418Z" fill="white"/>
<path d="M394.096 275.876C390.352 282.995 386.61 290.152 383.699 297.663C382.915 299.682 382.096 301.683 381.333 303.711C380.567 305.747 379.863 307.804 379.149 309.861C377.903 313.447 376.791 317.103 375.818 320.772C376.322 317.222 377.245 313.72 378.218 310.271C379.415 306.027 380.903 301.871 382.533 297.778C384.164 293.679 386.061 289.691 388.122 285.79C389.914 282.4 391.933 279.157 394.044 275.957C394.061 275.929 394.079 275.904 394.096 275.876Z" fill="white"/>
<path d="M437.936 256.02C437.264 257.476 436.561 258.91 435.913 260.376C435.042 262.356 434.254 264.364 433.495 266.389C431.934 270.562 430.569 274.841 429.397 279.137C428.361 282.943 427.35 286.749 426.401 290.579C426.786 286.77 427.521 283.006 428.413 279.284C429.446 274.967 430.744 270.66 432.448 266.557C433.302 264.493 434.198 262.447 435.259 260.477C436.085 258.948 436.977 257.472 437.936 256.02Z" fill="white"/>
<path d="M361.952 326.1C365.049 328.395 368.402 330.197 372.003 331.575C376.147 333.163 380.434 334.335 384.77 335.262C386.89 335.717 389.018 336.144 391.16 336.493C387.541 336.542 383.874 335.965 380.35 335.202C376.066 334.275 371.811 332.852 367.978 330.7C365.746 329.444 363.744 327.933 361.952 326.1Z" fill="white"/>
<path d="M399.916 308.039C401.386 308.693 402.849 309.347 404.333 309.966C406.292 310.785 408.354 311.38 410.39 311.971C414.632 313.108 418.989 314.028 423.378 314.367C425.411 314.525 427.444 314.71 429.484 314.706C431.094 314.706 432.69 314.64 434.296 314.546C430.576 315.354 426.825 315.431 423.035 315.259C421.96 315.158 420.882 315.109 419.811 314.948C418.748 314.801 417.691 314.643 416.634 314.469C414.481 314.108 412.322 313.563 410.25 312.884C408.196 312.212 406.166 311.46 404.221 310.509C402.73 309.784 401.312 308.938 399.916 308.039Z" fill="white"/>
<path d="M457.369 268.831C459.053 269.251 460.708 269.754 462.426 270.031C464.488 270.367 466.556 270.601 468.645 270.622C472.649 270.66 476.666 270.286 480.575 269.398C476.964 271.077 472.747 271.766 468.782 271.661C466.661 271.605 464.589 271.346 462.531 270.832C460.729 270.374 459.039 269.688 457.39 268.838C457.38 268.834 457.376 268.831 457.369 268.831Z" fill="white"/>
<path d="M311.967 335.206C342.697 198.66 235.014 145.578 187.293 110.11C139.572 74.6415 136.111 46.4599 136.111 46.4599C125.22 127.965 134.239 227.297 188.43 272.438C242.618 317.575 288.53 322.504 301.223 338.452C316.503 331.075 311.967 335.206 311.967 335.206Z" fill="#06B8A6"/>
<path d="M187.293 110.11C140.545 75.3621 136.272 47.6143 136.118 46.4984C147.873 137.197 192.609 185.199 242.311 226.237C282.448 259.375 302.371 310.425 309.99 334.597C311.173 334.181 311.852 334.041 312.219 334.055C342.085 198.363 234.881 145.477 187.293 110.11Z" fill="#02CCC0"/>
<path d="M312.219 334.055C312.135 334.44 312.055 334.821 311.967 335.206C311.967 335.206 313.185 334.094 312.219 334.055Z" fill="#446284"/>
<path d="M136.118 46.4984C136.87 51.1755 137.644 55.8386 138.508 60.4947C139.537 66.0464 140.772 71.5631 142.127 77.0448C145.091 89.0506 148.927 100.889 153.599 112.338C158.355 124.001 164.069 135.248 170.603 146.016C177.071 156.675 184.437 166.823 192.469 176.356C196.952 181.669 201.61 186.798 206.415 191.821C212.053 197.716 217.978 203.348 224.008 208.84C228.725 213.136 233.541 217.316 238.412 221.43C241.338 223.9 244.309 226.321 247.165 228.874C256.544 237.26 264.936 246.733 272.344 256.892C279.792 267.099 286.318 277.961 292.009 289.243C297.353 299.832 301.958 310.796 305.909 321.976C307.383 326.146 308.716 330.361 309.99 334.594C306.998 325.785 303.673 317.089 299.914 308.578C295.099 297.674 289.647 287.015 283.445 276.831C276.852 266.004 269.471 255.699 261.125 246.149C256.981 241.408 252.561 236.896 247.92 232.645C245.114 230.074 242.181 227.646 239.248 225.222C229.39 217.075 219.811 208.574 210.67 199.626C207.143 196.17 203.685 192.619 200.354 188.97C193.557 181.533 186.946 173.872 181.06 165.686C173.641 155.37 166.88 144.644 161.158 133.289C155.635 122.329 151.012 110.932 147.226 99.2619C143.558 87.9557 140.814 76.3556 138.739 64.6541C137.668 58.6337 136.877 52.5713 136.118 46.4984Z" fill="white"/>
<path d="M132.926 133.303C134.785 134.713 136.615 136.14 138.508 137.504C140.951 139.264 143.523 140.817 146.081 142.395C148.759 144.046 151.572 145.529 154.372 146.964C157.182 148.405 160.02 149.787 162.88 151.123C167.261 153.166 171.706 155.073 176.171 156.93C170.894 155.618 165.774 153.733 160.776 151.606C154.998 149.15 149.41 146.184 144.181 142.703C141.896 141.181 139.684 139.551 137.598 137.763C135.957 136.357 134.424 134.863 132.926 133.303Z" fill="white"/>
<path d="M152.206 221.574C154.519 222.14 156.825 222.721 159.131 223.312C162.05 224.057 165.014 224.607 167.954 225.25C170.988 225.918 174.068 226.387 177.126 226.929C180.234 227.482 183.394 227.919 186.526 228.308C192.899 229.091 199.293 229.731 205.701 230.134C212.004 230.529 218.338 230.872 224.655 230.851C232.036 230.893 239.416 230.823 246.786 230.372C235.248 231.953 223.563 232.173 211.937 231.869C199.206 231.536 186.435 230.085 173.966 227.5C169.945 226.667 165.977 225.694 162.012 224.634C158.704 223.749 155.457 222.634 152.206 221.574Z" fill="white"/>
<path d="M238.349 305.762C243.479 306.794 248.592 307.868 253.768 308.676C258.682 309.442 263.63 310.162 268.593 310.547C279.536 311.39 290.539 311.884 301.503 311.037C296.457 312.09 291.193 312.454 286.049 312.58C280.229 312.723 274.437 312.524 268.635 312.023C263.704 311.6 258.787 310.845 253.936 309.872C250.965 309.277 248.015 308.595 245.086 307.815C242.832 307.217 240.61 306.472 238.384 305.772C238.373 305.769 238.359 305.765 238.349 305.762Z" fill="white"/>
<path d="M294.651 206.461C295.242 211.828 295.725 217.194 295.928 222.591C296.17 228.948 296.005 235.335 295.575 241.678C294.739 253.935 292.761 266.267 288.814 277.93C288.373 279.235 287.907 280.539 287.354 281.806C288.943 276.621 290.147 271.269 291.067 265.927C292.138 259.687 293.041 253.432 293.647 247.128C294.822 234.839 295.078 222.494 294.728 210.159C294.689 208.924 294.669 207.693 294.651 206.461Z" fill="white"/>
<path d="M252.319 120.563C253.779 116.788 256.004 110.89 256.274 109.585C254.941 110.505 253.478 112.629 253.478 112.629C251.388 107.801 250.521 103.064 250.521 103.064C249.8 103.054 250.797 109.54 250.598 109.592C250.395 109.645 248.284 103.309 248.284 103.309C247.63 103.6 249.544 109.739 249.32 109.806C249.096 109.875 247.059 103.761 246.657 104.247C246.37 104.593 248.389 110.316 248.137 110.313C247.885 110.313 246.02 105.391 245.705 106.076C245.39 106.762 247.287 112.741 248.82 116.27C248.946 116.893 248.89 118.023 248.694 119.254C249.299 120.475 252.319 120.563 252.319 120.563Z" fill="#FFC0BB"/>
<path d="M265.621 118.495C265.523 114.255 265.425 107.647 265.621 106.265C266.608 107.647 267.298 110.26 267.298 110.26C271.07 106.241 273.611 101.879 273.611 101.879C274.325 102.123 271.039 108.165 271.217 108.291C271.399 108.413 275.732 102.914 275.732 102.914C276.274 103.432 272.204 108.809 272.4 108.955C272.596 109.102 276.778 103.796 277.002 104.418C277.16 104.863 273.139 109.788 273.387 109.875C273.636 109.963 277.223 105.772 277.293 106.563C277.363 107.353 273.363 112.573 270.601 115.511C270.255 116.081 269.912 117.215 269.664 118.499C268.631 119.482 265.621 118.495 265.621 118.495Z" fill="#FFC0BB"/>
<path d="M222.23 170.006C225.183 154.124 240.953 125.31 247.599 118.086C250.234 119.401 253.527 120.248 253.527 120.248C245.149 137.781 239.798 163.916 239.437 169.184C236.606 176.097 220.662 178.451 222.23 170.006Z" fill="#FF5B7E"/>
<path d="M238.881 164.679C238.468 167.579 238.881 169.8 238.881 169.8C232.868 170.458 228.074 169.387 228.074 169.387C228.851 167.316 229.246 164.367 229.246 164.367C233.323 163.384 238.881 164.679 238.881 164.679Z" fill="#FFC0BB"/>
<path d="M238.996 138.645C245.558 145.375 247.046 156.3 243.609 163.751C240.442 166.074 231.238 164 231.238 164C234.034 153.876 238.996 138.645 238.996 138.645Z" fill="#FFC0BB"/>
<path d="M218.695 143.707C222.772 131.484 243.217 134.818 243.028 144.571C243.71 148.275 242.465 152.473 240.347 156.269C239 153.533 236.547 153.477 235.987 155.779C235.399 158.182 236.389 159.868 237.838 160.082C234.758 164.091 231.857 164.878 229.092 165.34C216.973 158.028 216.305 150.878 218.695 143.707Z" fill="#07085B"/>
<path d="M229.551 141.195C229.551 139.313 229.016 137.553 228.092 136.063C223.966 136.784 220.207 139.177 218.695 143.707C217.918 146.04 217.467 148.37 217.624 150.703C218.321 150.861 219.045 150.948 219.79 150.948C225.183 150.948 229.551 146.582 229.551 141.195Z" fill="#04053B"/>
<path d="M229.141 140.32C229.141 145.708 224.774 150.073 219.384 150.073C213.995 150.073 209.627 145.708 209.627 140.32C209.627 134.933 213.995 130.564 219.384 130.564C224.774 130.564 229.141 134.933 229.141 140.32Z" fill="#07085B"/>
<path d="M238.912 250.343C238.912 268.124 235.742 288.141 215.157 314.15C209.155 316.347 208.522 309.763 208.522 309.763C220.459 280.788 223.185 278.412 221.785 253.306C221.001 239.218 221.292 228.283 221.292 228.283C233.394 232.236 238.912 250.343 238.912 250.343Z" fill="#015587"/>
<path d="M208.518 309.767L204.126 316.116C203.706 316.728 203.86 317.564 204.473 317.984L218.762 327.881C220.018 328.745 221.624 327.433 221.029 326.03L215.153 314.154C215.157 314.154 210.712 315.235 208.518 309.767Z" fill="#07085B"/>
<path d="M247.724 216.183C249.845 226.335 256.372 246.107 259.336 264.829C261.873 280.861 258.349 317.921 258.349 317.921C255.672 321.913 251.308 319.733 250.395 317.921C248.172 288.043 245.751 275.201 245.009 272.238C244.267 269.275 232.231 248.779 227.997 245.323C217.341 236.679 216.844 225.17 221.785 215.245C239.819 214.21 247.724 216.183 247.724 216.183Z" fill="#026EAF"/>
<path d="M250.391 317.925L250.23 325.642C250.216 326.383 250.808 326.999 251.55 327.01L268.929 327.384C270.455 327.412 271.067 325.432 269.797 324.592L258.342 317.925C258.346 317.925 255.238 321.276 250.391 317.925Z" fill="#07085B"/>
<path d="M234.342 166.095C240.858 165.742 242.205 167.453 248.218 162.104C254.23 156.755 260.694 148.769 261.436 147.289C264.893 133.212 264.435 119.457 265.177 117.855C267.893 117.606 270.983 117.362 271.105 117.855C273.821 142.671 275.151 148.142 273.051 154.688C270.951 161.233 258.594 178.161 257.236 181.494C255.878 184.828 250.772 194.872 251.759 203.103C252.746 211.334 251.504 216.581 247.553 218.229C243.602 219.877 236.938 218.743 230.846 218.414C224.753 218.086 220.634 216.767 218.66 214.629C216.683 212.489 217.838 201.13 218.495 191.912C219.153 182.694 219.314 174.799 222.097 170.51C225.082 165.896 231.875 166.228 234.342 166.095Z" fill="#FF5B7E"/>
<path d="M451.487 373.483H168.707C162.054 373.483 156.664 368.093 156.664 361.446V339.264C156.664 332.614 162.057 327.227 168.707 327.227H451.483C458.136 327.227 463.525 332.617 463.525 339.264V361.446C463.529 368.096 458.136 373.483 451.487 373.483Z" fill="#D1DDFB"/>
<path d="M115.491 405.52C114.256 400.336 111.869 399.58 112.94 395.141C113.846 396.547 113.104 398.363 115.988 398.933C118.872 399.503 120.744 398.122 120.744 398.122C118.76 402.666 119.736 404.026 120.044 405.968C118.291 406.671 115.491 405.52 115.491 405.52Z" fill="#FFC0BB"/>
<path d="M107.256 394.406C107.256 394.406 119.064 403.953 120.117 403.873C121.171 403.789 122.903 400.098 122.903 400.098C114.011 395.144 113.682 390.208 113.682 390.208C108.572 393.749 107.256 394.406 107.256 394.406Z" fill="#E03D60"/>
<path d="M99.5572 390.208C96.964 393.689 99.4312 397.978 104.25 396.257C103.631 391.506 99.5572 390.208 99.5572 390.208Z" fill="#E03D60"/>
<path d="M125.357 380.519C125.357 382.565 123.698 384.223 121.65 384.223C119.603 384.223 117.944 382.565 117.944 380.519C117.944 378.472 119.603 376.814 121.65 376.814C123.698 376.814 125.357 378.472 125.357 380.519Z" fill="#FF5B7E"/>
<path d="M96.1521 413.668C103.494 418.562 106.497 426.492 110.319 422.294C112.954 419.398 114.833 404.611 114.833 404.611C118.126 404.611 120.761 404.611 120.761 404.611C123.617 426.317 118.543 433.681 113.143 436.717C106.91 440.219 91.5921 433.684 91.5921 433.684C87.144 426.279 96.1521 413.668 96.1521 413.668Z" fill="#E6B115"/>
<path d="M116.912 395.925C115.985 397.002 114.945 398.338 115.337 398.503C115.498 398.569 118.004 396.432 118.004 396.432C115.789 399.409 115.635 399.905 115.873 400.091C116.212 400.357 118.868 397.261 118.868 397.261C117.405 399.654 117.034 400.416 117.363 400.518C117.535 400.57 119.61 398.184 119.61 398.184C117.692 401.144 118.466 400.909 119.474 399.839C120.646 398.594 121.224 398.016 120.905 397.691C120.993 396.628 119.894 396.54 119.894 396.54C119.831 395.333 118.742 395.428 118.742 395.428C118.021 394.564 116.912 395.925 116.912 395.925Z" fill="#FFC0BB"/>
<path d="M99.5574 390.208L115.862 372.182L126.732 388.235L104.25 396.26L99.5574 390.208Z" fill="#FF5B7E"/>
<path d="M128.734 389.215L127.603 389.981C127.163 390.278 126.564 390.163 126.267 389.726L114.315 372.109C114.018 371.668 114.133 371.07 114.571 370.772L115.705 370.006C116.146 369.709 116.744 369.824 117.042 370.262L128.993 387.879C129.287 388.316 129.171 388.914 128.734 389.215Z" fill="#E03D60"/>
<path d="M59.2661 518.39C56.3089 528.01 44.9247 544.119 33.5614 559.102C33.0539 566.589 39.2308 562.639 39.2308 562.639C66.4054 535.311 73.2611 517.376 73.2611 517.376C67.0003 516.386 59.9696 516.102 59.2661 518.39Z" fill="#FFC0BB"/>
<path d="M79.1894 513.311C77.9646 528.29 78.1185 533.394 70.2864 570.874C74.9899 576.251 76.9252 570.688 76.9252 570.688C90.3882 531.914 90.3882 521.378 90.3882 521.378C84.1274 520.552 79.1894 513.311 79.1894 513.311Z" fill="#FFC0BB"/>
<path d="M72.4563 455.401C59.5881 466.718 56.295 486.476 57.4499 518.576C74.0836 524.666 92.3656 524.008 92.3656 524.008C108.67 480.711 103.071 466.802 95.7428 455.401C87.5886 452.561 72.4563 455.401 72.4563 455.401Z" fill="#026EAF"/>
<path d="M71.6582 459.589C74.3249 462.887 78.437 468.065 79.1229 469.279C77.4991 468.785 75.3573 467.138 75.3573 467.138C74.8184 472.623 75.4693 477.632 75.4693 477.632C74.7519 477.874 73.6705 471.08 73.4535 471.094C73.2365 471.108 73.156 478.105 73.156 478.105C72.4106 478.024 72.3546 471.283 72.1097 471.287C71.8647 471.29 71.7912 478.045 71.2313 477.688C70.8358 477.433 71.0178 471.077 70.7658 471.157C70.5138 471.238 70.2304 476.747 69.6949 476.163C69.1595 475.579 69.1385 469.006 69.5374 464.993C69.4639 464.332 69.044 463.223 68.4561 462.055C68.6695 460.642 71.6582 459.589 71.6582 459.589Z" fill="#FFC0BB"/>
<path d="M33.5613 559.099L29.1693 565.448C28.7494 566.06 28.9033 566.896 29.5158 567.316L43.8048 577.213C45.0611 578.077 46.6674 576.765 46.0725 575.362L39.2307 562.636C39.2307 562.636 35.7521 564.57 33.5613 559.099Z" fill="#07085B"/>
<path d="M70.2864 570.87L70.3074 578.587C70.3109 579.329 70.9163 579.927 71.6617 579.924L89.0444 579.892C90.5702 579.885 91.1371 577.891 89.8493 577.08L76.9287 570.681C76.9252 570.685 73.59 573.214 70.2864 570.87Z" fill="#07085B"/>
<path d="M80.8763 411.908C75.9768 414.287 68.8236 414.864 67.3362 419.8C65.8489 424.739 64.5435 428.36 68.3231 439.719C72.1062 451.077 72.4562 455.401 72.4562 455.401C82.2131 456.884 95.1828 456.265 95.7392 455.401C97.3035 440.873 102.165 435.608 102.266 429.021C102.367 422.437 96.1521 413.671 96.1521 413.671C93.5589 411.943 89.2684 411.079 89.2684 411.079C86.6927 411.229 80.8763 411.908 80.8763 411.908Z" fill="#FFC61C"/>
<path d="M89.2545 410.883L88.2011 404.177L80.9219 406.552L80.8414 411.481C80.8239 412.506 81.5413 413.395 82.5492 413.594C83.7216 413.825 86.5038 413.468 88.0856 412.856C88.887 412.552 89.3665 411.733 89.2545 410.883Z" fill="#FFC0BB"/>
<g opacity="0.6">
<path opacity="0.6" d="M88.9324 408.837L88.2009 404.18L80.9007 407.406L80.8762 409.179C82.6225 409.631 86.0067 410.047 88.9324 408.837Z" fill="#FC8D84"/>
</g>
<path d="M95.2107 396.998C95.1232 396.348 94.9728 395.701 94.7628 395.067C94.2238 393.343 93.3734 391.727 92.53 390.39C92.348 390.103 92.1871 389.81 92.0296 389.509C91.3891 388.302 90.5107 387.175 89.3629 386.21C85.6638 383.104 79.9314 381.319 75.8998 383.992C70.4684 387.592 69.6845 396.4 73.569 401.403C72.7886 401.522 72.1237 401.927 71.7702 402.585C71.0948 403.848 71.8262 405.552 73.4046 406.395C74.9829 407.238 76.8097 406.898 77.4886 405.636C77.5831 405.461 77.6461 405.275 77.6881 405.086C81.4257 409.008 87.4731 409.585 91.6131 406.269C93.6359 404.646 94.8503 402.379 95.2072 399.954C95.2387 399.804 95.2667 399.636 95.2877 399.451C95.3682 398.636 95.3332 397.814 95.2107 396.998Z" fill="#FFC0BB"/>
<path d="M85.0269 392.682C85.2753 393.329 85.6288 393.927 86.0487 394.483C86.2622 394.763 86.4967 395.026 86.7662 395.267C87.0391 395.505 87.3436 395.732 87.7496 395.855L87.9105 395.89L88.0505 395.914C88.1135 395.928 88.1835 395.925 88.2395 395.953C88.362 395.984 88.467 396.044 88.5545 396.12C88.7434 396.267 88.8239 396.53 88.8414 396.813C88.8589 397.397 88.53 398.006 88.1065 398.545C88.7014 398.212 89.2544 397.635 89.3559 396.841C89.4084 396.456 89.3104 395.995 88.9919 395.673C88.9149 395.592 88.8309 395.519 88.7329 395.466C88.642 395.403 88.5405 395.368 88.439 395.33C88.3375 395.288 88.236 395.284 88.131 395.263C88.068 395.253 88.054 395.246 88.0225 395.239L87.9315 395.221C87.6831 395.152 87.4206 394.977 87.1686 394.788C86.9096 394.602 86.6822 394.364 86.4372 394.14C85.9613 393.679 85.5063 393.182 85.0269 392.682Z" fill="#F99893"/>
<path d="M90.2868 387.085C84.2115 387.368 79.5535 383.254 79.5535 383.254C82.5807 391.401 72.4387 392.622 73.5621 401.406C63.7877 398.566 71.0354 382.68 78.1186 382.352C85.1984 382.019 89.7444 384.37 90.2868 387.085Z" fill="#07085B"/>
<path d="M72.7046 414.948C61.2363 418.32 48.3892 433.632 48.3892 444.99C48.3892 456.349 68.8165 465.238 68.8165 465.238C71.6092 463.262 73.751 460.299 73.751 460.299C64.5294 454.002 60.5539 447.257 63.4166 440.954C65.1804 437.074 69.0405 435.276 71.9801 432.474C77.583 425.397 76.5962 414.864 72.7046 414.948Z" fill="#FFC61C"/>
<path d="M395.468 579.927H224.728C188.126 579.927 177.218 373.484 177.218 373.484H442.976C442.976 373.484 433.226 579.927 395.468 579.927Z" fill="#D1DDFB"/>
<path d="M268.867 565.098L272.512 566.811L278.981 553.059L275.336 551.345L268.867 565.098Z" fill="#A3BCFB"/>
<path d="M191.013 384.527L188.451 387.634L200.182 397.299L202.744 394.192L191.013 384.527Z" fill="#A3BCFB"/>
<path d="M333.003 524.098L330.442 527.205L342.173 536.868L344.735 533.761L333.003 524.098Z" fill="#A3BCFB"/>
<path d="M235.111 480.784L233.354 484.408L247.035 491.035L248.791 487.411L235.111 480.784Z" fill="#A3BCFB"/>
<path d="M305.035 449.195L301.514 451.151L308.899 464.434L312.42 462.478L305.035 449.195Z" fill="#A3BCFB"/>
<path d="M207.545 544.822L207.961 548.828L223.083 547.258L222.666 543.253L207.545 544.822Z" fill="#A3BCFB"/>
<path d="M296.86 381.116L297.276 385.121L312.396 383.551L311.98 379.546L296.86 381.116Z" fill="#A3BCFB"/>
<path d="M360.911 458.393L361.327 462.398L376.447 460.828L376.031 456.824L360.911 458.393Z" fill="#A3BCFB"/>
<path d="M245.917 412.351L242.213 410.769L236.239 424.741L239.942 426.324L245.917 412.351Z" fill="#A3BCFB"/>
<path d="M373.535 402.242L369.831 400.66L363.855 414.633L367.559 416.215L373.535 402.242Z" fill="#A3BCFB"/>
<path d="M429.595 379.78L426.262 382.041L434.802 394.615L438.134 392.353L429.595 379.78Z" fill="#A3BCFB"/>
<path d="M415.582 487.46L411.878 485.878L405.902 499.851L409.606 501.433L415.582 487.46Z" fill="#A3BCFB"/>
<path d="M410.098 558.809L407.979 555.385L395.05 563.376L397.168 566.801L410.098 558.809Z" fill="#A3BCFB"/>
<path d="M177.218 373.483C177.218 373.483 177.305 375.142 177.49 378.143H417.537C423.738 378.143 428.648 383.373 428.253 389.558C425.516 432.229 413.712 579.924 381.41 579.924H395.468C433.226 579.924 442.979 373.48 442.979 373.48H177.218V373.483Z" fill="#D2D8E8"/>
<path d="M451.487 327.223H422.919C429.568 327.223 434.961 332.614 434.961 339.26V361.443C434.961 368.093 429.568 373.48 422.919 373.48H451.487C458.139 373.48 463.529 368.089 463.529 361.443V339.26C463.529 332.614 458.136 327.223 451.487 327.223Z" fill="#D2D8E8"/>
<path d="M529.255 578.052L428.001 315.343C427.707 314.577 426.842 314.196 426.076 314.49C425.309 314.787 424.925 315.648 425.222 316.414L432.858 336.224H388.682L380.633 315.343C380.339 314.577 379.475 314.196 378.708 314.49C377.942 314.787 377.557 315.648 377.855 316.414L479.109 579.123C479.337 579.714 479.9 580.078 480.499 580.078C480.677 580.078 480.859 580.046 481.034 579.976C481.8 579.682 482.185 578.818 481.888 578.052L477.989 567.935H522.165L526.477 579.123C526.704 579.714 527.268 580.078 527.866 580.078C528.044 580.078 528.223 580.046 528.401 579.976C529.168 579.682 529.549 578.822 529.255 578.052ZM453.894 505.419H498.07L505.146 523.777H460.971L453.894 505.419ZM445.863 484.58H490.039L497.115 502.938H452.939L445.863 484.58ZM437.831 463.741H482.007L489.083 482.1H444.907L437.831 463.741ZM421.764 422.06H465.94L473.016 440.418H428.841L421.764 422.06ZM413.733 401.221H457.908L464.985 419.58H420.809L413.733 401.221ZM405.701 380.382H449.877L456.953 398.741H412.777L405.701 380.382ZM473.972 442.902L481.048 461.261H436.872L429.796 442.902H473.972ZM448.921 377.902H404.746L397.669 359.543H441.845L448.921 377.902ZM461.926 526.258H506.102L513.178 544.616H469.002L461.926 526.258ZM433.814 338.704L440.89 357.063H396.714L389.638 338.704H433.814ZM477.034 565.455L469.958 547.096H514.133L521.21 565.455H477.034Z" fill="#07085B"/>
<path d="M458.272 265.697C444.687 307.675 441.387 321.874 440.396 348.051C435.626 354.471 432.442 348.051 432.442 348.051C428.095 310.764 435.42 271.252 434.678 271.993C446.29 266.805 458.272 265.697 458.272 265.697Z" fill="#015587"/>
<path d="M440.396 348.052L440.557 355.769C440.571 356.51 439.98 357.122 439.235 357.136L421.856 357.511C420.33 357.539 419.714 355.559 420.988 354.719L432.442 348.052C432.442 348.052 435.549 351.403 440.396 348.052Z" fill="#F9CC4B"/>
<path d="M439.616 253.729C421.026 262.125 404.455 273.938 402.562 278.71C401.575 292.601 406.958 326.978 406.958 326.978C406.958 331.312 413.848 331.092 414.919 326.978C414.919 326.978 418.125 291.797 417.376 285.636C417.803 282.673 431.262 277.702 448.344 273.351C461.545 269.989 464.936 263.891 463.994 254.047C455.102 250.098 439.616 253.729 439.616 253.729Z" fill="#026EAF"/>
<path d="M414.916 326.978L415.07 334.695C415.084 335.437 414.492 336.049 413.75 336.063L396.371 336.437C394.845 336.465 394.233 334.485 395.503 333.646L406.957 326.978C406.957 326.978 410.069 330.333 414.916 326.978Z" fill="#F9CC4B"/>
<path d="M435.546 197.17C436.41 195.193 438.104 194.011 438.104 194.011C451.235 198.625 457.779 211.247 460.743 219.52C464.117 228.937 467.907 253.722 466.056 260.141C448.764 258.658 444.068 257.056 436.659 254.709C435.301 239.274 436.872 244.84 434.188 226.31C431.598 208.448 432.337 200.168 432.337 200.168C433.94 198.527 435.546 197.17 435.546 197.17Z" fill="#FF5B7E"/>
<path d="M436.305 205.944C434.867 207.913 433.632 213.654 435.053 220.384C440.568 220.905 447.466 221.248 448.638 220.633C449.38 215.322 448.337 206.213 445.523 203.698C439.683 204.331 436.305 205.944 436.305 205.944Z" fill="white"/>
<path d="M429.656 170.5C433.94 171.322 439.29 171.983 439.948 176.59C440.606 181.201 439.633 185.811 438.727 188.113C437.821 190.415 437.723 193.546 438.3 194.697C434.433 192.948 432.701 187.781 432.701 187.781C430.398 176.838 429.656 170.5 429.656 170.5Z" fill="#07085B"/>
<path d="M432.337 200.164L427.791 195.124L434.223 190.964L438.104 194.004C438.913 194.637 439.151 195.753 438.671 196.663C438.115 197.719 436.081 199.654 434.612 200.497C433.863 200.931 432.925 200.787 432.337 200.164Z" fill="#FFC0BB"/>
<g opacity="0.6">
<path opacity="0.6" d="M430.947 198.625L427.791 195.127L434.895 191.492L436.291 192.591C435.539 194.224 433.733 197.114 430.947 198.625Z" fill="#FC8D84"/>
</g>
<path d="M417.792 196.043C417.344 195.564 416.935 195.043 416.574 194.48C415.574 192.976 414.853 191.296 414.345 189.803C414.237 189.481 414.111 189.169 413.978 188.858C413.442 187.602 413.12 186.21 413.096 184.709C413.012 179.882 416.176 175.485 420.792 174.036C427.01 172.084 433.408 175.845 434.85 182.009C435.434 181.48 436.169 181.215 436.9 181.358C438.307 181.627 439.172 183.268 438.832 185.024C438.493 186.78 437.079 187.987 435.672 187.714C435.476 187.676 435.294 187.609 435.119 187.525C435.812 192.899 432.452 197.957 427.269 199.08C424.736 199.629 422.209 199.143 420.099 197.894C419.962 197.824 419.815 197.74 419.658 197.639C418.972 197.198 418.352 196.652 417.792 196.043Z" fill="#FFC0BB"/>
<path d="M420.854 185.419C421.201 186.021 421.442 186.672 421.61 187.347C421.694 187.686 421.75 188.036 421.768 188.396C421.778 188.76 421.768 189.138 421.607 189.53L421.533 189.677L421.463 189.803C421.435 189.862 421.39 189.915 421.372 189.974C421.32 190.09 421.299 190.209 421.302 190.324C421.299 190.562 421.453 190.793 421.663 190.982C422.107 191.363 422.786 191.492 423.472 191.503C422.839 191.755 422.044 191.821 421.362 191.401C421.029 191.199 420.735 190.835 420.683 190.383C420.669 190.272 420.666 190.16 420.687 190.051C420.697 189.939 420.732 189.838 420.767 189.736C420.798 189.631 420.861 189.547 420.907 189.453C420.938 189.4 420.942 189.383 420.956 189.352L420.998 189.271C421.099 189.033 421.131 188.718 421.141 188.407C421.159 188.089 421.12 187.763 421.099 187.431C421.036 186.773 420.938 186.105 420.854 185.419Z" fill="#F99893"/>
<path d="M434.853 182.009C434.024 183.258 433.94 184.174 433.94 184.174C430.811 182.268 429.74 177.409 429.331 176.009C427.682 174.694 427.203 177.905 426.248 178.563C425.296 179.221 423.721 178.615 424.795 176.408C422.513 177.349 423.136 180.553 421.002 180.438C418.772 180.316 420.676 177.248 420.676 177.248C417.638 179.326 419.626 182.425 417.019 182.813C415.168 183.09 415.577 179.934 415.577 179.934C414.524 183.09 412.914 184.681 410.842 183.709C409.257 182.967 409.607 180.704 410.636 179.882C406.723 181.075 405.53 179.018 406.023 177.699C406.517 176.384 407.731 176.877 408.557 175.558C403.885 175.722 406.356 171.895 411.255 171.731C407.756 170.083 412.039 167.82 414.856 169.016C412.12 166.669 417.348 165.27 420.148 165.969C418.625 164.077 421.989 163.542 426.006 164.528C424.13 161.894 428.813 162.265 432.953 165.147C437.173 168.082 439.539 172.144 439.952 176.59C440.362 181.036 435.766 179.843 434.853 182.009Z" fill="#07085B"/>
<path d="M407.909 244.253L405.827 244.742L405.586 243.717C405.288 242.454 404.025 241.671 402.761 241.968L401.967 242.154L401.943 242.052C401.554 240.405 399.976 239.362 398.422 239.726L391.174 241.429C389.62 241.793 388.672 243.434 389.06 245.082L389.085 245.183L388.29 245.368C387.027 245.666 386.243 246.929 386.541 248.192L387.279 251.333C384.14 252.033 381.624 253.862 380.21 256.489L371.566 253.407V253.379L364.416 246.596L363.065 258.434L371.625 255.237L390.593 265.403L390.523 265.112C390.719 265.945 391.552 266.459 392.382 266.263L408.413 262.492C409.246 262.296 409.761 261.464 409.565 260.635L409.138 258.826L411.22 258.336C412.868 257.948 413.817 255.958 413.33 253.897L411.773 247.278C411.294 245.225 409.558 243.864 407.909 244.253ZM381.869 257.084C383.069 255.024 385.123 253.582 387.678 253.016L389.256 259.718L381.869 257.084ZM390.642 244.711C390.471 243.99 390.761 242.731 391.44 242.57L398.688 240.866C399.367 240.705 400.189 241.702 400.357 242.426L400.382 242.528L390.667 244.816L390.642 244.711ZM412.291 254.558C412.522 255.534 411.58 256.594 410.856 256.762L408.774 257.252L406.198 246.313L408.28 245.823C409.001 245.652 410.317 246.18 410.548 247.156L412.291 254.558Z" fill="#FF5B7E"/>
<path d="M442.832 203.012C434.409 200.175 436.039 216.06 436.288 233.67C436.288 233.67 430.961 237.508 417.901 246.232C414.478 246.201 411.077 244.889 407.874 246.435C406.391 248.286 408.861 255.202 411.21 255.324C415.129 254.401 418.401 251.109 419.826 250.577C419.857 250.567 419.892 250.56 419.924 250.549C419.987 250.532 420.05 250.511 420.102 250.507C420.102 250.504 420.102 250.504 420.102 250.5C433.87 246.526 443.511 241.769 445.674 237.546C447.032 234.891 449.429 205.237 442.832 203.012Z" fill="#FFC0BB"/>
<path d="M440.907 201.368C446.167 201.368 448.642 205.979 448.638 220.629C442.461 221.371 435.053 220.381 435.053 220.381C434.269 210.463 435.196 201.368 440.907 201.368Z" fill="#FF5B7E"/>
<path d="M350.898 0.183493L349.279 -0.00527954L344.26 43.0264L345.88 43.2151L350.898 0.183493Z" fill="#FFCB2E"/>
<path d="M431.007 43.8517L429.964 42.5984L396.644 70.3028L397.687 71.5561L431.007 43.8517Z" fill="#FFCB2E"/>
<path d="M469.671 111.646L469.157 110.099L428.028 123.754L428.542 125.301L469.671 111.646Z" fill="#FFCB2E"/>
<path d="M259.63 16.8878L258.229 17.722L280.406 54.9398L281.807 54.1056L259.63 16.8878Z" fill="#FFCB2E"/>
<path d="M201.495 73.8259L200.63 75.2075L233.065 95.5102L233.931 94.1286L201.495 73.8259Z" fill="#FFCB2E"/>
</g>
<defs>
<clipPath id="clip0_3_861">
<rect width="584" height="586" fill="white"/>
</clipPath>
</defs>
</svg>
